<?xml version="1.0" encoding="UTF-8"?> <svg xmlns="http://www.w3.org/2000/svg" xmlns:xlink="http://www.w3.org/1999/xlink" width="425px" height="90px" viewBox="0 0 425 90" version="1.1"><title>logo-ideasforward-full-hor-lightbg</title><g id="logo-ideasforward-full-hor-lightbg" stroke="none" stroke-width="1" fill="none" fill-rule="evenodd"><g id="Group" fill="#2C3344" fill-rule="nonzero"><g id="word-ideas"><path d="M11.016,22.944 C12.36,22.944 13.5,22.512 14.436,21.648 C15.372,20.784 15.84,19.68 15.84,18.336 C15.84,16.944 15.372,15.828 14.436,14.988 C13.5,14.148 12.36,13.728 11.016,13.728 C9.672,13.728 8.532,14.148 7.596,14.988 C6.66,15.828 6.192,16.944 6.192,18.336 C6.192,19.68 6.66,20.784 7.596,21.648 C8.532,22.512 9.672,22.944 11.016,22.944 Z M19.224,66 L19.224,63.408 L14.184,62.4 C14.136,60.576 14.1,58.596 14.076,56.46 C14.052,54.324 14.04,52.464 14.04,50.88 L14.04,41.376 L14.256,31.584 L13.176,30.864 L2.088,35.256 L2.088,37.776 L7.848,38.424 C7.944,39.864 8.004,41.244 8.028,42.564 C8.052,43.884 8.064,45.528 8.064,47.496 L8.064,47.496 L8.064,50.88 C8.064,52.464 8.052,54.324 8.028,56.46 C8.004,58.596 7.968,60.576 7.92,62.4 L7.92,62.4 L2.52,63.408 L2.52,66 L19.224,66 Z M37.884,66.936 C40.14,66.936 42.072,66.48 43.68,65.568 C45.288,64.656 46.716,63.384 47.964,61.752 L47.964,61.752 L48.468,66.72 L59.628,66 L59.628,63.408 L53.796,62.544 L53.796,23.592 L54.084,13.368 L53.076,12.792 L41.844,16.032 L41.844,18.552 L47.964,19.272 L47.964,35.544 C46.476,33.768 44.952,32.544 43.392,31.872 C41.832,31.2 40.212,30.864 38.532,30.864 C35.604,30.864 32.988,31.632 30.684,33.168 C28.38,34.704 26.556,36.84 25.212,39.576 C23.868,42.312 23.196,45.528 23.196,49.224 C23.196,52.728 23.808,55.812 25.032,58.476 C26.256,61.14 27.972,63.216 30.18,64.704 C32.388,66.192 34.956,66.936 37.884,66.936 Z M39.684,62.832 C36.804,62.832 34.416,61.716 32.52,59.484 C30.624,57.252 29.676,53.784 29.676,49.08 C29.676,45.816 30.132,43.14 31.044,41.052 C31.956,38.964 33.168,37.428 34.68,36.444 C36.192,35.46 37.836,34.968 39.612,34.968 C40.812,34.968 42.06,35.232 43.356,35.76 C44.652,36.288 46.116,37.272 47.748,38.712 L47.748,38.712 L47.748,58.656 C46.404,60.144 45.12,61.212 43.896,61.86 C42.672,62.508 41.268,62.832 39.684,62.832 Z M78.576,66.936 C81.84,66.936 84.624,66.18 86.928,64.668 C89.232,63.156 91.056,61.128 92.4,58.584 L92.4,58.584 L90.672,57.216 C89.376,58.704 87.96,59.916 86.424,60.852 C84.888,61.788 82.968,62.256 80.664,62.256 C77.208,62.256 74.424,61.104 72.312,58.8 C70.2,56.496 69.096,53.136 69,48.72 L69,48.72 L91.968,48.72 C92.112,48.24 92.232,47.652 92.328,46.956 C92.424,46.26 92.472,45.504 92.472,44.688 C92.472,41.76 91.872,39.276 90.672,37.236 C89.472,35.196 87.864,33.624 85.848,32.52 C83.832,31.416 81.576,30.864 79.08,30.864 C76.104,30.864 73.356,31.632 70.836,33.168 C68.316,34.704 66.3,36.84 64.788,39.576 C63.276,42.312 62.52,45.528 62.52,49.224 C62.52,54.744 63.984,59.076 66.912,62.22 C69.84,65.364 73.728,66.936 78.576,66.936 Z M82.248,45.696 L69.144,45.696 C69.432,42.912 70.068,40.68 71.052,39 C72.036,37.32 73.212,36.096 74.58,35.328 C75.948,34.56 77.304,34.176 78.648,34.176 C80.136,34.176 81.468,34.536 82.644,35.256 C83.82,35.976 84.756,36.924 85.452,38.1 C86.148,39.276 86.496,40.56 86.496,41.952 C86.496,43.008 86.22,43.896 85.668,44.616 C85.116,45.336 83.976,45.696 82.248,45.696 L82.248,45.696 Z M107.468,66.936 C109.58,66.936 111.38,66.456 112.868,65.496 C114.356,64.536 116.084,63.096 118.052,61.176 C118.34,62.856 119.06,64.2 120.212,65.208 C121.364,66.216 122.804,66.72 124.532,66.72 C125.78,66.72 126.92,66.444 127.952,65.892 C128.984,65.34 129.932,64.368 130.796,62.976 L130.796,62.976 L129.356,61.392 C128.972,61.872 128.564,62.256 128.132,62.544 C127.7,62.832 127.172,62.976 126.548,62.976 C125.78,62.976 125.156,62.652 124.676,62.004 C124.196,61.356 123.956,60.264 123.956,58.728 L123.956,58.728 L123.956,43.392 C123.956,38.832 123.044,35.604 121.22,33.708 C119.396,31.812 116.588,30.864 112.796,30.864 C109.148,30.864 106.064,31.668 103.544,33.276 C101.024,34.884 99.428,37.056 98.756,39.792 C98.996,41.76 100.124,42.744 102.14,42.744 C103.964,42.744 105.212,41.592 105.884,39.288 L105.884,39.288 L107.252,34.608 C108.02,34.416 108.728,34.296 109.376,34.248 C110.024,34.2 110.612,34.176 111.14,34.176 C113.54,34.176 115.268,34.752 116.324,35.904 C117.38,37.056 117.908,39.384 117.908,42.888 L117.908,42.888 L117.908,44.688 C116.468,45.024 115.028,45.408 113.588,45.84 C112.148,46.272 110.876,46.68 109.772,47.064 C106.556,48.216 104.084,49.368 102.356,50.52 C100.628,51.672 99.44,52.848 98.792,54.048 C98.144,55.248 97.82,56.544 97.82,57.936 C97.82,60.912 98.768,63.156 100.664,64.668 C102.56,66.18 104.828,66.936 107.468,66.936 Z M109.988,62.184 C108.356,62.184 106.988,61.776 105.884,60.96 C104.78,60.144 104.228,58.776 104.228,56.856 C104.228,56.136 104.384,55.368 104.696,54.552 C105.008,53.736 105.668,52.896 106.676,52.032 C107.684,51.168 109.22,50.328 111.284,49.512 C112.052,49.224 113.036,48.876 114.236,48.468 C115.436,48.06 116.66,47.688 117.908,47.352 L117.908,47.352 L117.908,58.368 C116.468,59.424 115.292,60.228 114.38,60.78 C113.468,61.332 112.688,61.704 112.04,61.896 C111.392,62.088 110.708,62.184 109.988,62.184 Z M145.128,66.936 C148.248,66.936 150.84,66.456 152.904,65.496 C154.968,64.536 156.528,63.276 157.584,61.716 C158.64,60.156 159.168,58.464 159.168,56.64 C159.168,54.384 158.412,52.392 156.9,50.664 C155.388,48.936 152.832,47.4 149.232,46.056 L149.232,46.056 L147,45.264 C144.552,44.352 142.836,43.488 141.852,42.672 C140.868,41.856 140.376,40.656 140.376,39.072 C140.376,37.584 140.94,36.396 142.068,35.508 C143.196,34.62 144.864,34.176 147.072,34.176 C148.752,34.176 150.408,34.584 152.04,35.4 L152.04,35.4 L153.192,41.16 L156.936,41.16 L157.224,33.816 C155.688,32.856 154.116,32.124 152.508,31.62 C150.9,31.116 149.112,30.864 147.144,30.864 C144.456,30.864 142.176,31.344 140.304,32.304 C138.432,33.264 137.016,34.512 136.056,36.048 C135.096,37.584 134.616,39.24 134.616,41.016 C134.616,43.464 135.408,45.456 136.992,46.992 C138.576,48.528 140.688,49.776 143.328,50.736 L143.328,50.736 L146.64,51.96 C148.896,52.728 150.576,53.58 151.68,54.516 C152.784,55.452 153.336,56.688 153.336,58.224 C153.336,59.856 152.676,61.176 151.356,62.184 C150.036,63.192 148.008,63.696 145.272,63.696 C143.064,63.696 141.12,63.312 139.44,62.544 L139.44,62.544 L138.072,56.28 L134.112,56.28 L134.4,64.2 C136.176,65.112 137.904,65.796 139.584,66.252 C141.264,66.708 143.112,66.936 145.128,66.936 Z" id="ideas"></path></g></g><g id="Group" transform="translate(163.000000, 0.000000)" fill="#2C3344" fill-rule="nonzero"><g id="word-forward"><path d="M-1.584,83.064 C0.048,83.064 1.788,82.656 3.636,81.84 C5.484,81.024 7.152,79.824 8.64,78.24 C10.368,76.416 11.784,74.232 12.888,71.688 C13.992,69.144 14.856,66.12 15.48,62.616 C16.296,58.392 17.04,53.988 17.712,49.404 C18.384,44.82 19.032,40.176 19.656,35.472 L19.656,35.472 L28.008,35.688 L28.872,31.224 L20.304,31.224 C20.352,30.984 20.388,30.72 20.412,30.432 C20.436,30.144 20.472,29.88 20.52,29.64 C21.096,25.896 21.744,22.968 22.464,20.856 C23.184,18.744 24.096,17.16 25.2,16.104 L25.2,16.104 L26.928,18.984 C27.744,20.184 28.584,21.12 29.448,21.792 C30.312,22.464 31.296,22.8 32.4,22.8 C33.504,22.8 34.548,22.392 35.532,21.576 C36.516,20.76 37.08,19.728 37.224,18.48 C36.84,16.848 35.736,15.528 33.912,14.52 C32.088,13.512 30.072,13.008 27.864,13.008 C23.736,13.008 20.088,14.508 16.92,17.508 C13.752,20.508 11.568,25.056 10.368,31.152 L10.368,31.152 L4.896,31.872 L4.248,35.256 L9.72,35.256 C9.096,39.912 8.472,44.52 7.848,49.08 C7.224,53.64 6.552,58.152 5.832,62.616 C5.4,65.16 4.968,67.476 4.536,69.564 C4.104,71.652 3.552,73.536 2.88,75.216 C2.544,76.128 2.184,76.932 1.8,77.628 C1.416,78.324 1.032,78.936 0.648,79.464 L0.648,79.464 L-0.936,77.232 C-1.752,76.032 -2.64,75.072 -3.6,74.352 C-4.56,73.632 -5.664,73.272 -6.912,73.272 C-8.16,73.272 -9.144,73.668 -9.864,74.46 C-10.584,75.252 -11.04,76.272 -11.232,77.52 C-10.416,79.584 -9.144,81.024 -7.416,81.84 C-5.688,82.656 -3.744,83.064 -1.584,83.064 Z M40.152,67.08 C43.128,67.08 45.888,66.444 48.432,65.172 C50.976,63.9 53.184,62.16 55.056,59.952 C56.928,57.744 58.392,55.26 59.448,52.5 C60.504,49.74 61.032,46.848 61.032,43.824 C61.032,40.656 60.42,38.064 59.196,36.048 C57.972,34.032 56.328,32.532 54.264,31.548 C52.2,30.564 49.848,30.072 47.208,30.072 C44.184,30.072 41.4,30.708 38.856,31.98 C36.312,33.252 34.092,34.992 32.196,37.2 C30.3,39.408 28.824,41.892 27.768,44.652 C26.712,47.412 26.184,50.304 26.184,53.328 C26.184,56.448 26.808,59.028 28.056,61.068 C29.304,63.108 30.984,64.62 33.096,65.604 C35.208,66.588 37.56,67.08 40.152,67.08 Z M41.016,63.192 C39.768,63.192 38.724,62.64 37.884,61.536 C37.044,60.432 36.624,58.344 36.624,55.272 C36.624,52.824 36.852,50.352 37.308,47.856 C37.764,45.36 38.424,43.068 39.288,40.98 C40.152,38.892 41.172,37.212 42.348,35.94 C43.524,34.668 44.832,34.032 46.272,34.032 C47.568,34.032 48.612,34.572 49.404,35.652 C50.196,36.732 50.592,38.736 50.592,41.664 C50.592,44.16 50.364,46.68 49.908,49.224 C49.452,51.768 48.792,54.096 47.928,56.208 C47.064,58.32 46.044,60.012 44.868,61.284 C43.692,62.556 42.408,63.192 41.016,63.192 Z M64.756,66.576 L74.116,66 C74.644,63.408 75.16,60.828 75.664,58.26 C76.168,55.692 76.66,53.136 77.14,50.592 L77.14,50.592 L77.284,49.872 C78.292,47.52 79.456,45.252 80.776,43.068 C82.096,40.884 83.74,38.76 85.708,36.696 C86.62,37.656 87.484,38.4 88.3,38.928 C89.116,39.456 90.052,39.72 91.108,39.72 C92.692,39.72 93.892,39.132 94.708,37.956 C95.524,36.78 95.956,35.352 96.004,33.672 C95.572,32.472 94.828,31.572 93.772,30.972 C92.716,30.372 91.564,30.072 90.316,30.072 C88.252,30.072 86.176,31.188 84.088,33.42 C82,35.652 80.116,38.472 78.436,41.88 L78.436,41.88 L80.308,31.152 L78.94,30 L65.116,34.104 L64.612,36.768 L69.652,37.56 L63.748,65.712 L64.756,66.576 Z M127.348,66.648 L132.604,66.072 C136.204,62.328 139.432,58.548 142.288,54.732 C145.144,50.916 147.46,47.4 149.236,44.184 C150.484,41.88 151.312,40.08 151.72,38.784 C152.128,37.488 152.332,36.312 152.332,35.256 C152.332,34.152 152.26,33.288 152.116,32.664 C151.972,32.04 151.708,31.44 151.324,30.864 C150.988,30.624 150.532,30.396 149.956,30.18 C149.38,29.964 148.756,29.856 148.084,29.856 C146.404,29.856 144.964,30.348 143.764,31.332 C142.564,32.316 141.964,33.84 141.964,35.904 C141.964,36.816 142.132,37.776 142.468,38.784 C142.804,39.792 143.14,40.776 143.476,41.736 L143.476,41.736 L144.34,44.256 C142.996,46.656 141.628,48.936 140.236,51.096 C138.844,53.256 137.332,55.44 135.7,57.648 C135.46,55.776 135.22,53.688 134.98,51.384 C134.74,49.08 134.488,46.716 134.224,44.292 C133.96,41.868 133.708,39.564 133.468,37.38 C133.228,35.196 132.988,33.312 132.748,31.728 L132.748,31.728 L126.484,31.728 C124.612,35.856 122.704,39.888 120.76,43.824 C118.816,47.76 116.86,51.624 114.892,55.416 C114.7,52.248 114.484,49.08 114.244,45.912 C114.004,42.744 113.716,39.72 113.38,36.84 C113.14,34.536 112.564,32.832 111.652,31.728 C110.74,30.624 109.348,30.072 107.476,30.072 C105.7,30.072 103.924,30.768 102.148,32.16 C100.372,33.552 98.5,35.592 96.532,38.28 L96.532,38.28 L98.188,40.224 C99.532,38.544 100.66,37.704 101.572,37.704 C102.004,37.704 102.364,37.836 102.652,38.1 C102.94,38.364 103.156,39 103.3,40.008 C103.828,44.088 104.368,48.276 104.92,52.572 C105.472,56.868 105.964,61.368 106.396,66.072 L106.396,66.072 L107.188,66.648 L113.02,66.072 C114.988,62.808 116.92,59.4 118.816,55.848 C120.712,52.296 122.476,48.912 124.108,45.696 C124.396,47.664 124.684,49.884 124.972,52.356 C125.26,54.828 125.548,57.276 125.836,59.7 C126.124,62.124 126.388,64.248 126.628,66.072 L126.628,66.072 L127.348,66.648 Z M176.902,67.08 C178.726,67.08 180.442,66.6 182.05,65.64 C183.658,64.68 185.122,63.456 186.442,61.968 C187.762,60.48 188.854,58.992 189.718,57.504 L189.718,57.504 L187.486,55.992 C186.382,57.432 185.41,58.548 184.57,59.34 C183.73,60.132 182.974,60.528 182.302,60.528 C181.438,60.528 181.006,60.048 181.006,59.088 C181.006,58.704 181.054,58.248 181.15,57.72 C181.246,57.192 181.39,56.616 181.582,55.992 L181.582,55.992 L187.342,30.792 L186.118,29.928 L180.862,32.376 C180.046,31.656 179.158,31.092 178.198,30.684 C177.238,30.276 176.206,30.072 175.102,30.072 C172.99,30.072 170.806,30.588 168.55,31.62 C166.294,32.652 164.11,34.068 161.998,35.868 C159.886,37.668 157.978,39.72 156.274,42.024 C154.57,44.328 153.226,46.764 152.242,49.332 C151.258,51.9 150.766,54.48 150.766,57.072 C150.766,59.52 151.126,61.476 151.846,62.94 C152.566,64.404 153.502,65.46 154.654,66.108 C155.806,66.756 157.054,67.08 158.398,67.08 C160.414,67.08 162.526,66.396 164.734,65.028 C166.942,63.66 169.006,61.896 170.926,59.736 L170.926,59.736 L170.926,60.528 C170.926,62.736 171.478,64.38 172.582,65.46 C173.686,66.54 175.126,67.08 176.902,67.08 Z M165.166,59.736 C163.966,59.736 163.006,59.232 162.286,58.224 C161.566,57.216 161.206,55.584 161.206,53.328 C161.206,51.6 161.446,49.74 161.926,47.748 C162.406,45.756 163.078,43.86 163.942,42.06 C164.806,40.26 165.79,38.856 166.894,37.848 C168.67,36.216 170.35,35.4 171.934,35.4 C173.23,35.4 174.478,35.736 175.678,36.408 L175.678,36.408 L171.646,54.912 C171.598,55.104 171.562,55.296 171.538,55.488 C171.514,55.68 171.478,55.896 171.43,56.136 C170.278,57.24 169.186,58.116 168.154,58.764 C167.122,59.412 166.126,59.736 165.166,59.736 Z M192.502,66.576 L201.862,66 C202.39,63.408 202.906,60.828 203.41,58.26 C203.914,55.692 204.406,53.136 204.886,50.592 L204.886,50.592 L205.03,49.872 C206.038,47.52 207.202,45.252 208.522,43.068 C209.842,40.884 211.486,38.76 213.454,36.696 C214.366,37.656 215.23,38.4 216.046,38.928 C216.862,39.456 217.798,39.72 218.854,39.72 C220.438,39.72 221.638,39.132 222.454,37.956 C223.27,36.78 223.702,35.352 223.75,33.672 C223.318,32.472 222.574,31.572 221.518,30.972 C220.462,30.372 219.31,30.072 218.062,30.072 C215.998,30.072 213.922,31.188 211.834,33.42 C209.746,35.652 207.862,38.472 206.182,41.88 L206.182,41.88 L208.054,31.152 L206.686,30 L192.862,34.104 L192.358,36.768 L197.398,37.56 L191.494,65.712 L192.502,66.576 Z M245.47,67.08 C247.294,67.08 249.034,66.636 250.69,65.748 C252.346,64.86 253.87,63.684 255.262,62.22 C256.654,60.756 257.806,59.184 258.718,57.504 L258.718,57.504 L256.558,56.064 C254.302,59.04 252.55,60.528 251.302,60.528 C250.486,60.528 250.078,60.048 250.078,59.088 C250.078,58.368 250.246,57.312 250.582,55.92 L250.582,55.92 L259.294,15.096 L258.142,14.232 L243.022,18.264 L242.59,21 L247.99,21.864 L246.262,30.36 C245.542,30.168 244.75,30.072 243.886,30.072 C241.726,30.072 239.518,30.588 237.262,31.62 C235.006,32.652 232.834,34.056 230.746,35.832 C228.658,37.608 226.774,39.648 225.094,41.952 C223.414,44.256 222.094,46.68 221.134,49.224 C220.174,51.768 219.694,54.312 219.694,56.856 C219.694,59.4 220.042,61.416 220.738,62.904 C221.434,64.392 222.346,65.46 223.474,66.108 C224.602,66.756 225.838,67.08 227.182,67.08 C229.246,67.08 231.43,66.384 233.734,64.992 C236.038,63.6 238.15,61.8 240.07,59.592 C240.022,59.832 239.998,60.084 239.998,60.348 L239.998,60.348 L239.998,61.104 C239.998,62.784 240.478,64.2 241.438,65.352 C242.398,66.504 243.742,67.08 245.47,67.08 Z M234.094,59.736 C232.894,59.736 231.922,59.232 231.178,58.224 C230.434,57.216 230.062,55.56 230.062,53.256 C230.062,51.624 230.29,49.812 230.746,47.82 C231.202,45.828 231.85,43.908 232.69,42.06 C233.53,40.212 234.502,38.76 235.606,37.704 C236.23,37.08 236.998,36.54 237.91,36.084 C238.822,35.628 239.734,35.4 240.646,35.4 C241.462,35.4 242.182,35.484 242.806,35.652 C243.43,35.82 244.03,36.072 244.606,36.408 L244.606,36.408 L240.718,55.056 C240.67,55.2 240.634,55.356 240.61,55.524 C240.586,55.692 240.55,55.848 240.502,55.992 C239.35,57.144 238.246,58.056 237.19,58.728 C236.134,59.4 235.102,59.736 234.094,59.736 Z" id="forward"></path></g></g><g id="Group" transform="translate(193.000000, 72.000000)" fill="#2C3344" fill-rule="nonzero"><g id="byline"><path d="M3.641,11 L3.641,4.884 L5.72,4.884 L5.72,3.806 L0.286,3.806 L0.286,4.884 L2.365,4.884 L2.365,11 L3.641,11 Z M13.1863975,11 L13.1863975,9.922 L10.0183975,9.922 L10.0183975,7.799 L12.6033975,7.799 L12.6033975,6.721 L10.0183975,6.721 L10.0183975,4.884 L13.0763975,4.884 L13.0763975,3.806 L8.7423975,3.806 L8.7423975,11 L13.1863975,11 Z M19.354795,11.132 C20.278795,11.132 21.037795,10.758 21.620795,10.087 L20.938795,9.284 C20.531795,9.724 20.036795,10.021 19.398795,10.021 C18.188795,10.021 17.418795,9.031 17.418795,7.392 C17.418795,5.775 18.254795,4.785 19.431795,4.785 C19.992795,4.785 20.421795,5.038 20.795795,5.412 L21.477795,4.587 C21.026795,4.103 20.300795,3.674 19.398795,3.674 C17.583795,3.674 16.109795,5.071 16.109795,7.425 C16.109795,9.812 17.539795,11.132 19.354795,11.132 Z M25.9191925,11 L25.9191925,7.81 L28.8341925,7.81 L28.8341925,11 L30.1101925,11 L30.1101925,3.806 L28.8341925,3.806 L28.8341925,6.699 L25.9191925,6.699 L25.9191925,3.806 L24.6431925,3.806 L24.6431925,11 L25.9191925,11 Z M34.98059,11 L34.98059,7.854 C34.98059,7.051 34.87059,6.182 34.81559,5.423 L34.85959,5.423 L35.59659,6.952 L37.84059,11 L39.14959,11 L39.14959,3.806 L37.92859,3.806 L37.92859,6.93 C37.92859,7.733 38.03859,8.646 38.09359,9.383 L38.04959,9.383 L37.31259,7.854 L35.06859,3.806 L33.75959,3.806 L33.75959,11 L34.98059,11 Z M45.5929875,11.132 C47.4739875,11.132 48.7719875,9.702 48.7719875,7.37 C48.7719875,5.049 47.4739875,3.674 45.5929875,3.674 C43.7229875,3.674 42.4249875,5.049 42.4249875,7.37 C42.4249875,9.702 43.7229875,11.132 45.5929875,11.132 Z M45.5929875,10.021 C44.4599875,10.021 43.7339875,8.987 43.7339875,7.37 C43.7339875,5.764 44.4599875,4.785 45.5929875,4.785 C46.7259875,4.785 47.4519875,5.764 47.4519875,7.37 C47.4519875,8.987 46.7259875,10.021 45.5929875,10.021 Z M56.304385,11 L56.304385,9.922 L53.312385,9.922 L53.312385,3.806 L52.036385,3.806 L52.036385,11 L56.304385,11 Z M61.8347825,11.132 C63.7157825,11.132 65.0137825,9.702 65.0137825,7.37 C65.0137825,5.049 63.7157825,3.674 61.8347825,3.674 C59.9647825,3.674 58.6667825,5.049 58.6667825,7.37 C58.6667825,9.702 59.9647825,11.132 61.8347825,11.132 Z M61.8347825,10.021 C60.7017825,10.021 59.9757825,8.987 59.9757825,7.37 C59.9757825,5.764 60.7017825,4.785 61.8347825,4.785 C62.9677825,4.785 63.6937825,5.764 63.6937825,7.37 C63.6937825,8.987 62.9677825,10.021 61.8347825,10.021 Z M71.29218,11.132 C72.27118,11.132 73.10718,10.758 73.59118,10.274 L73.59118,7.106 L71.08318,7.106 L71.08318,8.151 L72.44718,8.151 L72.44718,9.702 C72.21618,9.911 71.82018,10.021 71.41318,10.021 C69.97218,10.021 69.21318,9.031 69.21318,7.392 C69.21318,5.775 70.07118,4.785 71.34718,4.785 C72.01818,4.785 72.43618,5.06 72.79918,5.412 L73.48118,4.587 C73.03018,4.125 72.32618,3.674 71.30318,3.674 C69.38918,3.674 67.90418,5.071 67.90418,7.425 C67.90418,9.812 69.34518,11.132 71.29218,11.132 Z M79.4845775,11 L79.4845775,8.327 L81.6515775,3.806 L80.3205775,3.806 L79.5395775,5.643 C79.3305775,6.182 79.1105775,6.677 78.8795775,7.227 L78.8355775,7.227 C78.6045775,6.677 78.4065775,6.182 78.1975775,5.643 L77.4165775,3.806 L76.0525775,3.806 L78.2085775,8.327 L78.2085775,11 L79.4845775,11 Z M91.1613725,11 L93.3943725,3.806 L92.0853725,3.806 L91.0843725,7.425 C90.8643725,8.239 90.6993725,8.943 90.4573725,9.768 L90.4133725,9.768 C90.1713725,8.943 90.0063725,8.239 89.7753725,7.425 L88.7633725,3.806 L87.4103725,3.806 L89.6543725,11 L91.1613725,11 Z M100.53077,11 L100.53077,9.922 L97.36277,9.922 L97.36277,7.799 L99.94777,7.799 L99.94777,6.721 L97.36277,6.721 L97.36277,4.884 L100.42077,4.884 L100.42077,3.806 L96.08677,3.806 L96.08677,11 L100.53077,11 Z M105.049168,11 L105.049168,7.854 C105.049168,7.051 104.939168,6.182 104.884168,5.423 L104.928168,5.423 L105.665168,6.952 L107.909168,11 L109.218168,11 L109.218168,3.806 L107.997168,3.806 L107.997168,6.93 C107.997168,7.733 108.107168,8.646 108.162168,9.383 L108.118168,9.383 L107.381168,7.854 L105.137168,3.806 L103.828168,3.806 L103.828168,11 L105.049168,11 Z M115.595565,11 L115.595565,4.884 L117.674565,4.884 L117.674565,3.806 L112.240565,3.806 L112.240565,4.884 L114.319565,4.884 L114.319565,11 L115.595565,11 Z M123.391963,11.132 C125.063963,11.132 126.108963,10.208 126.108963,7.843 L126.108963,3.806 L124.887963,3.806 L124.887963,7.942 C124.887963,9.504 124.271963,10.021 123.391963,10.021 C122.522963,10.021 121.939963,9.504 121.939963,7.942 L121.939963,3.806 L120.663963,3.806 L120.663963,7.843 C120.663963,10.208 121.730963,11.132 123.391963,11.132 Z M131.00136,11 L131.00136,8.184 L132.10136,8.184 L133.65236,11 L135.08236,11 L133.36636,7.997 C134.22436,7.7 134.79636,7.04 134.79636,5.94 C134.79636,4.334 133.65236,3.806 132.15636,3.806 L129.72536,3.806 L129.72536,11 L131.00136,11 Z M132.02436,7.172 L131.00136,7.172 L131.00136,4.829 L132.02436,4.829 C133.00336,4.829 133.54236,5.115 133.54236,5.94 C133.54236,6.754 133.00336,7.172 132.02436,7.172 Z M142.504758,11 L142.504758,9.922 L139.336758,9.922 L139.336758,7.799 L141.921758,7.799 L141.921758,6.721 L139.336758,6.721 L139.336758,4.884 L142.394758,4.884 L142.394758,3.806 L138.060758,3.806 L138.060758,11 L142.504758,11 Z M151.926553,11.132 C153.543553,11.132 154.511553,10.164 154.511553,8.998 C154.511553,7.953 153.906553,7.414 153.059553,7.051 L152.080553,6.644 C151.486553,6.402 150.936553,6.193 150.936553,5.632 C150.936553,5.104 151.387553,4.785 152.069553,4.785 C152.685553,4.785 153.169553,5.016 153.631553,5.401 L154.280553,4.587 C153.719553,4.026 152.905553,3.674 152.069553,3.674 C150.661553,3.674 149.649553,4.554 149.649553,5.698 C149.649553,6.754 150.397553,7.315 151.101553,7.612 L152.091553,8.041 C152.740553,8.316 153.202553,8.503 153.202553,9.097 C153.202553,9.658 152.762553,10.021 151.948553,10.021 C151.288553,10.021 150.595553,9.691 150.078553,9.207 L149.330553,10.076 C150.012553,10.747 150.958553,11.132 151.926553,11.132 Z M160.15195,11 L160.15195,4.884 L162.23095,4.884 L162.23095,3.806 L156.79695,3.806 L156.79695,4.884 L158.87595,4.884 L158.87595,11 L160.15195,11 Z M167.948348,11.132 C169.620348,11.132 170.665348,10.208 170.665348,7.843 L170.665348,3.806 L169.444348,3.806 L169.444348,7.942 C169.444348,9.504 168.828348,10.021 167.948348,10.021 C167.079348,10.021 166.496348,9.504 166.496348,7.942 L166.496348,3.806 L165.220348,3.806 L165.220348,7.843 C165.220348,10.208 166.287348,11.132 167.948348,11.132 Z M176.272745,11 C178.406745,11 179.704745,9.757 179.704745,7.37 C179.704745,4.994 178.406745,3.806 176.206745,3.806 L174.281745,3.806 L174.281745,11 L176.272745,11 Z M176.118745,9.966 L175.557745,9.966 L175.557745,4.84 L176.118745,4.84 C177.570745,4.84 178.395745,5.61 178.395745,7.37 C178.395745,9.141 177.570745,9.966 176.118745,9.966 Z M184.256143,11 L184.256143,3.806 L182.980143,3.806 L182.980143,11 L184.256143,11 Z M190.69954,11.132 C192.58054,11.132 193.87854,9.702 193.87854,7.37 C193.87854,5.049 192.58054,3.674 190.69954,3.674 C188.82954,3.674 187.53154,5.049 187.53154,7.37 C187.53154,9.702 188.82954,11.132 190.69954,11.132 Z M190.69954,10.021 C189.56654,10.021 188.84054,8.987 188.84054,7.37 C188.84054,5.764 189.56654,4.785 190.69954,4.785 C191.83254,4.785 192.55854,5.764 192.55854,7.37 C192.55854,8.987 191.83254,10.021 190.69954,10.021 Z" id="TECHNOLOGYVENTURESTUDIO"></path></g></g></g></svg> 