<?xml version="1.0" ?><svg data-name="001" id="_001" viewBox="0 0 128 128" xmlns="http://www.w3.org/2000/svg"><defs><style>.cls-1{opacity:0.3;}.cls-2{fill:#c9c1f5;}.cls-3{fill:#f2eed5;}.cls-4{fill:#6d6daa;}.cls-5{fill:#fffad1;}.cls-6{fill:#e0f3ff;}.cls-7{fill:#ff968c;}.cls-8{fill:#fff2cc;}.cls-9{fill:#ced8ee;}.cls-10{opacity:0.5;}.cls-11,.cls-12{fill:#fff;}.cls-12{fill-rule:evenodd;}.cls-13{fill:#d6b5b0;}.cls-14{fill:#ffd288;}.cls-15{fill:#96d7ff;}.cls-16{fill:#ff91a9;}.cls-17{fill:#eef6ff;}.cls-18{fill:#7595b5;}.cls-19{fill:#7690a8;}.cls-20{fill:#d63c74;}.cls-21{fill:#fff9e0;}.cls-22{fill:#97c1ff;}.cls-23{fill:#ff99b1;}</style></defs><title/><g class="cls-1"><path class="cls-2" d="M116.25,63.17A45.95,45.95,0,1,0,26,50.82a50.29,50.29,0,0,1-5.85,23.53A27,27,0,0,0,45.08,114a27.47,27.47,0,0,0,4.36-.53c10.76-2.2,22.06-1.18,31.83,3.83a24.53,24.53,0,0,0,34.24-13.41,24.48,24.48,0,0,0,.55-15.1A47.49,47.49,0,0,1,116.25,63.17Z"/><rect class="cls-3" height="21" width="6" x="84.01" y="66"/><path class="cls-4" d="M90,88H84a1,1,0,0,1-1-1V66a1,1,0,0,1,1-1h6a1,1,0,0,1,1,1V87A1,1,0,0,1,90,88Zm-5-2h4V67H85Z"/><rect class="cls-5" height="6" width="44" x="79.01" y="87"/><path class="cls-4" d="M123,94H79a1,1,0,0,1-1-1V87a1,1,0,0,1,1-1h44a1,1,0,0,1,1,1v6A1,1,0,0,1,123,94ZM80,92h42V88H80Z"/><rect class="cls-6" height="21" width="6" x="102.01" y="66"/><path class="cls-4" d="M108,88h-6a1,1,0,0,1-1-1V66a1,1,0,0,1,1-1h6a1,1,0,0,1,1,1V87A1,1,0,0,1,108,88Zm-5-2h4V67h-4Z"/><rect class="cls-7" height="21" width="6" x="108.01" y="66"/><path class="cls-4" d="M114,88h-6a1,1,0,0,1-1-1V66a1,1,0,0,1,1-1h6a1,1,0,0,1,1,1V87A1,1,0,0,1,114,88Zm-5-2h4V67h-4Z"/><rect class="cls-6" height="21" width="6" x="96.01" y="66"/><path class="cls-4" d="M102,88H96a1,1,0,0,1-1-1V66a1,1,0,0,1,1-1h6a1,1,0,0,1,1,1V87A1,1,0,0,1,102,88Zm-5-2h4V67H97Z"/><rect class="cls-7" height="21" width="6" x="90.01" y="66"/><path class="cls-4" d="M96,88H90a1,1,0,0,1-1-1V66a1,1,0,0,1,1-1h6a1,1,0,0,1,1,1V87A1,1,0,0,1,96,88Zm-5-2h4V67H91Z"/><rect class="cls-8" height="21" width="6" x="114.01" y="66"/><path class="cls-4" d="M120,88h-6a1,1,0,0,1-1-1V66a1,1,0,0,1,1-1h6a1,1,0,0,1,1,1V87A1,1,0,0,1,120,88Zm-5-2h4V67h-4Z"/><path class="cls-4" d="M113,106H13a1,1,0,0,1,0-2H113a1,1,0,0,1,0,2Z"/><path class="cls-4" d="M120,106h-4a1,1,0,0,1,0-2h4a1,1,0,0,1,0,2Z"/><path class="cls-4" d="M7,106H5a1,1,0,1,1,0-2H7a1,1,0,1,1,0,2Z"/><path class="cls-5" d="M20.7,44.78a7,7,0,0,1-9.48-9.48Z"/><path class="cls-9" d="M28.69,20.24l6.36-6.36a3,3,0,0,1,4.24,0l2.83,2.83a3,3,0,0,1,0,4.24l-6.36,6.36.18,3.42a22.53,22.53,0,0,1-6.57,17.11l-2.81,2.81L5.35,29.44l2.81-2.81a22.53,22.53,0,0,1,17.11-6.57Z"/><g class="cls-10"><path class="cls-11" d="M31.24,26.11l.82-2.42,6.36-6.36c1.17-1.17,1.45-2.79.62-3.62l2,2c.83.83.55,2.45-.62,3.62l-6.36,6.36-.35,2.89c-.65,5.39-2.9,11.75-7.41,16.27l-2.81,2.81L20.14,44.3l2.81-2.81C27.46,37,30.59,31.5,31.24,26.11Z"/></g><path class="cls-4" d="M26.57,51.65a1,1,0,0,1-.71-.29L4.65,30.14a1,1,0,0,1,0-1.41l2.81-2.8a23.6,23.6,0,0,1,17.87-6.86l3,.16,6-6a4.09,4.09,0,0,1,5.66,0L42.83,16a4,4,0,0,1,0,5.66l-6,6,.16,3a23.56,23.56,0,0,1-6.86,17.87l-2.81,2.81A1,1,0,0,1,26.57,51.65ZM6.77,29.43l19.8,19.8,2.1-2.1a21.56,21.56,0,0,0,6.28-16.35l-.18-3.42a1,1,0,0,1,.29-.76l6.36-6.36a2,2,0,0,0,0-2.83l-2.83-2.83a2,2,0,0,0-2.83,0l-6.36,6.36a1,1,0,0,1-.76.29l-3.42-.18A21.53,21.53,0,0,0,8.86,27.34Z"/><path class="cls-4" d="M35.76,28.31a1,1,0,0,1-.71-.29l-1.41-1.41a1,1,0,0,1,1.41-1.41l1.41,1.41a1,1,0,0,1-.71,1.71Z"/><path class="cls-4" d="M30.81,23.36a1,1,0,0,1-.71-.29L28,20.95a1,1,0,0,1,1.41-1.41l2.12,2.12a1,1,0,0,1-.71,1.71Z"/><path class="cls-4" d="M17.39,46.62a8,8,0,0,1-7.05-11.79,1,1,0,0,1,1.59-.23l9.48,9.48a1,1,0,0,1-.23,1.59A8,8,0,0,1,17.39,46.62Zm-5.81-9.54a6,6,0,0,0,7.34,7.34Z"/><path class="cls-4" d="M60,103a1,1,0,0,1-1-1V16.49a7.49,7.49,0,0,0-12.78-5.29l-4.51,4.51a1,1,0,0,1-1.41-1.41l4.51-4.51A9.49,9.49,0,0,1,61,16.49V102A1,1,0,0,1,60,103Z"/><path class="cls-9" d="M46,104.93H74v-2a2,2,0,0,0-2-2H48a2,2,0,0,0-2,2Z"/><path class="cls-4" d="M74,105.93H46a1,1,0,0,1-1-1v-2a3,3,0,0,1,3-3H72a3,3,0,0,1,3,3v2A1,1,0,0,1,74,105.93Zm-27-2H73v-1a1,1,0,0,0-1-1H48a1,1,0,0,0-1,1Z"/><path class="cls-8" d="M29.1,105H17.9a2,2,0,0,1-2-1.9L15,85H32l-.9,18.1A2,2,0,0,1,29.1,105Z"/><polygon class="cls-12" points="22.28 104.96 19.34 104.96 18.31 84.96 21.25 84.96 22.28 104.96"/><rect class="cls-8" height="4" rx="2" ry="2" width="21" x="13" y="80.96"/><rect class="cls-11" height="4.21" width="2.94" x="16.4" y="80.96"/><polygon class="cls-13" points="20.54 61.83 16.55 62.13 16.55 62.13 18.01 55 20.54 61.83 20.54 61.83"/><polygon class="cls-14" points="21.99 80.96 18 80.96 16.55 62.13 20.54 61.83 21.99 80.96"/><path class="cls-4" d="M22,82H18A1,1,0,0,1,17,81L15.55,62.21a1,1,0,0,1,.92-1.07l4-.31a1,1,0,0,1,1.07.92L23,80.89A1,1,0,0,1,22,82Zm-3.06-2h2L19.61,62.9l-2,.15Z"/><path class="cls-4" d="M16.55,63.13a1,1,0,0,1-1-1.2L17,54.8a1,1,0,0,1,1.92-.15l2.53,6.83a1,1,0,0,1-.86,1.34l-4,.31Zm1.74-4.5L17.79,61l1.34-.1Z"/><polygon class="cls-15" points="29.11 60.74 33.07 61.36 29.95 80.96 26 80.96 29.11 60.74"/><path class="cls-16" d="M32,55.12h0a2,2,0,0,1,1.66,2.29l-.62,4-4-.62.62-4A2,2,0,0,1,32,55.12Z"/><path class="cls-4" d="M30,82H26a1,1,0,0,1-1-1.15l3.11-20.23a1,1,0,0,1,.4-.66,1,1,0,0,1,.75-.18l4,.62a1,1,0,0,1,.83,1.15l-3.11,19.6A1,1,0,0,1,30,82Zm-2.79-2H29.1l2.82-17.77-2-.31Z"/><path class="cls-4" d="M33.07,62.36h-.16l-4-.62a1,1,0,0,1-.83-1.14l.62-4a3,3,0,0,1,3.43-2.5h0a3,3,0,0,1,2.5,3.43l-.62,4A1,1,0,0,1,33.07,62.36ZM30.26,59.9l2,.31.47-3a1,1,0,0,0-.83-1.14h0a1,1,0,0,0-.74.18,1,1,0,0,0-.4.65Z"/><path class="cls-4" d="M29.1,106H17.9a3,3,0,0,1-3-2.85L14,85a1,1,0,0,1,1-1H32a1,1,0,0,1,1,1l-.9,18.1A3,3,0,0,1,29.1,106Zm-13-20,.85,17a1,1,0,0,0,1,1H29.1a1,1,0,0,0,1-1l.85-17Z"/><path class="cls-4" d="M32,86H15a3,3,0,0,1,0-6H32a3,3,0,0,1,0,6ZM15,82a1,1,0,0,0,0,2H32a1,1,0,0,0,0-2Z"/><circle class="cls-9" cx="100" cy="28" r="25"/><circle class="cls-17" cx="100" cy="28" r="21"/><g class="cls-1"><path class="cls-18" d="M100,45A21,21,0,0,1,79.11,26.09C79,26.72,79,27.36,79,28a21,21,0,0,0,42,0c0-.64,0-1.28-.11-1.91A21,21,0,0,1,100,45Z"/></g><path class="cls-11" d="M100,11a21,21,0,0,1,20.89,18.91c.06-.63.11-1.26.11-1.91a21,21,0,0,0-42,0c0,.64,0,1.28.11,1.91A21,21,0,0,1,100,11Z"/><path class="cls-4" d="M100,54a26,26,0,1,1,26-26A26,26,0,0,1,100,54Zm0-50a24,24,0,1,0,24,24A24,24,0,0,0,100,4Z"/><path class="cls-4" d="M100,50a22,22,0,1,1,22-22A22,22,0,0,1,100,50Zm0-42a20,20,0,1,0,20,20A20,20,0,0,0,100,8Z"/><path class="cls-4" d="M100,12a1,1,0,0,1-.38-.08,1.15,1.15,0,0,1-.33-.21,1,1,0,0,1-.21-1.09,1.15,1.15,0,0,1,.21-.33,1,1,0,0,1,1.09-.21,1,1,0,0,1,.33.21,1.16,1.16,0,0,1,.21.33.94.94,0,0,1,0,.76,1.17,1.17,0,0,1-.21.33A1,1,0,0,1,100,12Z"/><path class="cls-4" d="M100,46a1,1,0,0,1-.38-.07,1.45,1.45,0,0,1-.33-.22,1,1,0,0,1-.21-1.09,1.15,1.15,0,0,1,.21-.33,1,1,0,0,1,1.42,0,1.16,1.16,0,0,1,.21.33A1,1,0,0,1,100,46Z"/><path class="cls-4" d="M117,29a1,1,0,0,1-.38-.08.9.9,0,0,1-.54-.54.95.95,0,0,1,0-.76,1,1,0,0,1,.21-.33,1.55,1.55,0,0,1,.15-.12.74.74,0,0,1,.18-.09.65.65,0,0,1,.18-.06,1,1,0,0,1,.91.27,1,1,0,0,1,.21.33.94.94,0,0,1,0,.76,1.17,1.17,0,0,1-.21.33A1,1,0,0,1,117,29Z"/><path class="cls-4" d="M83,29a1,1,0,0,1-.71-.29,1.16,1.16,0,0,1-.21-.33.95.95,0,0,1,0-.76,1,1,0,0,1,.21-.33A1,1,0,0,1,83.2,27a.65.65,0,0,1,.18.06.74.74,0,0,1,.18.09l.15.12a1,1,0,0,1,.21.33.94.94,0,0,1,0,.76,1.17,1.17,0,0,1-.21.33A1,1,0,0,1,83,29Z"/><path class="cls-4" d="M100,31a3,3,0,1,1,3-3A3,3,0,0,1,100,31Zm0-4a1,1,0,1,0,1,1A1,1,0,0,0,100,27Z"/><path class="cls-4" d="M100,27a1,1,0,0,1-1-1V16a1,1,0,0,1,2,0V26A1,1,0,0,1,100,27Z"/><path class="cls-4" d="M111,29h-9a1,1,0,0,1,0-2h9a1,1,0,0,1,0,2Z"/><path class="cls-4" d="M110,116H19a1,1,0,0,1,0-2h91a1,1,0,0,1,0,2Z"/><path class="cls-4" d="M114,116h-1a1,1,0,0,1,0-2h1a1,1,0,0,1,0,2Z"/><g class="cls-10"><path class="cls-4" d="M114,71h-6a1,1,0,0,1,0-2h6a1,1,0,0,1,0,2Z"/><path class="cls-4" d="M114,84h-6a1,1,0,0,1,0-2h6a1,1,0,0,1,0,2Z"/></g><g class="cls-10"><path class="cls-4" d="M120,71h-6a1,1,0,0,1,0-2h6a1,1,0,0,1,0,2Z"/><path class="cls-4" d="M120,84h-6a1,1,0,0,1,0-2h6a1,1,0,0,1,0,2Z"/></g><g class="cls-10"><path class="cls-4" d="M108,71h-6a1,1,0,0,1,0-2h6a1,1,0,0,1,0,2Z"/><path class="cls-4" d="M108,84h-6a1,1,0,0,1,0-2h6a1,1,0,0,1,0,2Z"/></g><g class="cls-10"><path class="cls-4" d="M96,71H90a1,1,0,1,1,0-2h6a1,1,0,0,1,0,2Z"/><path class="cls-4" d="M96,84H90a1,1,0,1,1,0-2h6a1,1,0,0,1,0,2Z"/></g><g class="cls-10"><path class="cls-4" d="M102,71H96a1,1,0,1,1,0-2h6a1,1,0,0,1,0,2Z"/><path class="cls-4" d="M102,84H96a1,1,0,1,1,0-2h6a1,1,0,0,1,0,2Z"/></g><g class="cls-10"><path class="cls-4" d="M90,71H84a1,1,0,1,1,0-2h6a1,1,0,0,1,0,2Z"/><path class="cls-4" d="M90,84H84a1,1,0,1,1,0-2h6a1,1,0,0,1,0,2Z"/></g></g><rect class="cls-17" height="32" width="76" x="26" y="83"/><polygon class="cls-11" points="102 101 94 101 94 109 26 109 26 57 102 57 102 101"/><g class="cls-1"><rect class="cls-19" height="3" width="76" x="26" y="57"/></g><path class="cls-16" d="M102,57H26V46a4,4,0,0,1,4-4H98a4,4,0,0,1,4,4Z"/><g class="cls-1"><rect class="cls-20" height="3" width="76" x="26" y="54"/></g><g class="cls-1"><path class="cls-21" d="M98,42H30a4,4,0,0,0-4,4v2a3,3,0,0,1,3-3H99a3,3,0,0,1,3,3V46A4,4,0,0,0,98,42Z"/></g><path class="cls-4" d="M94,110H26a1,1,0,0,1-1-1V46a5,5,0,0,1,5-5H98a5,5,0,0,1,5,5v55a1,1,0,0,1-1,1H95v7A1,1,0,0,1,94,110Zm-67-2H93v-7a1,1,0,0,1,1-1h7V46a3,3,0,0,0-3-3H30a3,3,0,0,0-3,3Z"/><path class="cls-4" d="M102,113H26a1,1,0,0,1-1-1v-3a1,1,0,0,1,2,0v2h74V97a1,1,0,0,1,2,0v15A1,1,0,0,1,102,113Z"/><path class="cls-4" d="M94,110a1,1,0,0,1-.71-1.71l8-8a1,1,0,0,1,1.41,1.41l-8,8A1,1,0,0,1,94,110Z"/><path class="cls-4" d="M102,116H26a1,1,0,0,1-1-1v-3a1,1,0,0,1,1-1h76a1,1,0,0,1,1,1v3A1,1,0,0,1,102,116Zm-75-2h74v-1H27Z"/><path class="cls-4" d="M102,58H26a1,1,0,0,1,0-2h76a1,1,0,0,1,0,2Z"/><rect class="cls-9" height="6" rx="1" ry="1" width="6" x="37" y="64"/><rect class="cls-9" height="6" rx="1" ry="1" width="6" x="45" y="64"/><rect class="cls-9" height="6" rx="1" ry="1" width="6" x="53" y="64"/><rect class="cls-22" height="6" rx="1" ry="1" width="6" x="61" y="64"/><rect class="cls-9" height="6" rx="1" ry="1" width="6" x="69" y="64"/><rect class="cls-23" height="6" rx="1" ry="1" width="6" x="77" y="64"/><rect class="cls-23" height="6" rx="1" ry="1" width="6" x="85" y="64"/><rect class="cls-9" height="6" rx="1" ry="1" width="6" x="37" y="72"/><rect class="cls-9" height="6" rx="1" ry="1" width="6" x="45" y="72"/><rect class="cls-9" height="6" rx="1" ry="1" width="6" x="53" y="72"/><rect class="cls-9" height="6" rx="1" ry="1" width="6" x="61" y="72"/><rect class="cls-9" height="6" rx="1" ry="1" width="6" x="69" y="72"/><rect class="cls-23" height="6" rx="1" ry="1" width="6" x="77" y="72"/><rect class="cls-23" height="6" rx="1" ry="1" width="6" x="85" y="72"/><rect class="cls-9" height="6" rx="1" ry="1" width="6" x="37" y="80"/><rect class="cls-22" height="6" rx="1" ry="1" width="6" x="45" y="80"/><rect class="cls-9" height="6" rx="1" ry="1" width="6" x="53" y="80"/><rect class="cls-9" height="6" rx="1" ry="1" width="6" x="61" y="80"/><rect class="cls-9" height="6" rx="1" ry="1" width="6" x="69" y="80"/><rect class="cls-23" height="6" rx="1" ry="1" width="6" x="77" y="80"/><rect class="cls-23" height="6" rx="1" ry="1" width="6" x="85" y="80"/><rect class="cls-9" height="6" rx="1" ry="1" width="6" x="37" y="88"/><rect class="cls-9" height="6" rx="1" ry="1" width="6" x="45" y="88"/><rect class="cls-9" height="6" rx="1" ry="1" width="6" x="53" y="88"/><rect class="cls-9" height="6" rx="1" ry="1" width="6" x="61" y="88"/><rect class="cls-9" height="6" rx="1" ry="1" width="6" x="69" y="88"/><rect class="cls-23" height="6" rx="1" ry="1" width="6" x="77" y="88"/><rect class="cls-23" height="6" rx="1" ry="1" width="6" x="85" y="88"/><rect class="cls-9" height="6" rx="1" ry="1" width="6" x="37" y="96"/><rect class="cls-9" height="6" rx="1" ry="1" width="6" x="45" y="96"/><rect class="cls-22" height="6" rx="1" ry="1" width="6" x="53" y="96"/><g class="cls-1"><path class="cls-20" d="M48,37a3,3,0,0,0-3,3v8a3,3,0,0,0,6,0V40A3,3,0,0,0,48,37Z"/></g><rect class="cls-9" height="12" rx="2" ry="2" width="4" x="46" y="36"/><g class="cls-1"><path class="cls-19" d="M48,45a2,2,0,0,1-2-2v3a2,2,0,0,0,4,0V43A2,2,0,0,1,48,45Z"/></g><path class="cls-17" d="M48,36a2,2,0,0,0-2,2v3a2,2,0,1,1,4,0V38A2,2,0,0,0,48,36Z"/><path class="cls-4" d="M48,49a3,3,0,0,1-3-3V38a3,3,0,0,1,6,0v8A3,3,0,0,1,48,49Zm0-12a1,1,0,0,0-1,1v8a1,1,0,0,0,2,0V38A1,1,0,0,0,48,37Z"/><g class="cls-1"><path class="cls-20" d="M80,37a3,3,0,0,0-3,3v8a3,3,0,0,0,6,0V40A3,3,0,0,0,80,37Z"/></g><rect class="cls-9" height="12" rx="2" ry="2" width="4" x="78" y="36"/><g class="cls-1"><path class="cls-19" d="M80,45a2,2,0,0,1-2-2v3a2,2,0,0,0,4,0V43A2,2,0,0,1,80,45Z"/></g><path class="cls-17" d="M80,36a2,2,0,0,0-2,2v3a2,2,0,1,1,4,0V38A2,2,0,0,0,80,36Z"/><path class="cls-4" d="M80,49a3,3,0,0,1-3-3V38a3,3,0,0,1,6,0v8A3,3,0,0,1,80,49Zm0-12a1,1,0,0,0-1,1v8a1,1,0,0,0,2,0V38A1,1,0,0,0,80,37Z"/></svg>