<?xml version="1.0" ?><svg data-name="005" id="_005" viewBox="0 0 128 128" xmlns="http://www.w3.org/2000/svg"><defs><style>.cls-1,.cls-10,.cls-15,.cls-16,.cls-19,.cls-21,.cls-25,.cls-29{opacity:0.3;}.cls-2{fill:#d6b5b0;}.cls-3{fill:#89dbba;}.cls-4{fill:#2c4b75;}.cls-4,.cls-7{opacity:0.2;}.cls-11,.cls-15,.cls-28,.cls-5{fill:#fff;}.cls-28,.cls-5{opacity:0.5;}.cls-6{fill:none;stroke:#6d6daa;stroke-linecap:round;stroke-linejoin:round;stroke-width:2px;}.cls-7{fill:#633d3d;}.cls-8{fill:#ffd599;}.cls-9{fill:#eef6ff;}.cls-10{fill:#6c86a6;}.cls-11{opacity:0.75;}.cls-12{fill:#9eb2cc;}.cls-13{fill:#6d6daa;}.cls-14{fill:#d4edff;}.cls-16{fill:#93765f;}.cls-17{fill:#fff27d;}.cls-18{fill:#ff9797;}.cls-19{fill:#fff9e0;}.cls-20{fill:#ced8ee;}.cls-21{fill:#2b5c8e;}.cls-22{fill:#939fc6;}.cls-23{fill:#e0f3ff;}.cls-24{fill:#c7e9ff;}.cls-25{fill:#1c64ba;}.cls-26{fill:#b1f1a8;}.cls-27,.cls-30{fill:#c9c1f5;}.cls-27,.cls-28,.cls-29{fill-rule:evenodd;}.cls-29{fill:#554dad;}</style></defs><title/><g class="cls-1"><path class="cls-2" d="M125.7,46.66a30,30,0,0,0-23.51-25,19.71,19.71,0,0,1-10.93-6.55A37,37,0,0,0,27,30.44,21,21,0,0,1,16.12,44.11C2,51.47-5.14,70.57,7.77,88.5a16.59,16.59,0,0,0,6.35,4.91,20.53,20.53,0,0,1,10,10.87,28.48,28.48,0,0,0,42.62,12.64A20.05,20.05,0,0,1,83.39,114a29,29,0,0,0,36-33.8,20.08,20.08,0,0,1,2.51-14.13A29.89,29.89,0,0,0,125.7,46.66Z"/><rect class="cls-3" height="12" width="4" x="16" y="65"/><rect class="cls-4" height="3" width="4" x="16" y="74"/><rect class="cls-5" height="3" width="4" x="16" y="65"/><rect class="cls-3" height="12" transform="translate(-40.25 44.84) rotate(-45)" width="4" x="32" y="65"/><rect class="cls-4" height="2.83" transform="translate(-41.59 48.08) rotate(-45)" width="4" x="35.24" y="72.83"/><polygon class="cls-5" points="39.66 73.83 39.66 73.83 31.17 65.34 28.34 68.17 30.34 70.17 33.17 67.34 39.66 73.83"/><rect class="cls-3" height="12" width="4" x="20" y="65"/><rect class="cls-4" height="3" width="4" x="20" y="74"/><rect class="cls-5" height="3" width="4" x="20" y="65"/><rect class="cls-3" height="12" width="4" x="24" y="65"/><rect class="cls-4" height="3" width="4" x="24" y="74"/><rect class="cls-5" height="3" width="4" x="24" y="65"/><rect class="cls-6" height="12" width="4" x="16" y="65"/><rect class="cls-6" height="12" transform="translate(-40.25 44.84) rotate(-45)" width="4" x="32" y="65"/><rect class="cls-6" height="12" width="4" x="20" y="65"/><rect class="cls-6" height="12" width="4" x="24" y="65"/><line class="cls-6" x1="2" x2="1" y1="21" y2="21"/><line class="cls-6" x1="39" x2="38" y1="21" y2="21"/><polygon class="cls-2" points="10 31 6 31 6 25 12 25 10 31"/><polygon class="cls-7" points="12 25 6 25 6 28 11 28 12 25"/><polygon class="cls-2" points="34 31 30 31 28 25 34 25 34 31"/><polygon class="cls-7" points="28 25 29 28 34 28 34 25 28 25"/><rect class="cls-8" height="4" width="36" x="2" y="21"/><rect class="cls-7" height="4" width="3" x="35" y="21"/><rect class="cls-5" height="4" width="3" x="2" y="21"/><polygon class="cls-6" points="10 31 6 31 6 25 12 25 10 31"/><polygon class="cls-6" points="34 31 30 31 28 25 34 25 34 31"/><rect class="cls-6" height="4" width="36" x="2" y="21"/><line class="cls-6" x1="90" x2="89" y1="21" y2="21"/><line class="cls-6" x1="127" x2="126" y1="21" y2="21"/><polygon class="cls-2" points="98 31 94 31 94 25 100 25 98 31"/><polygon class="cls-7" points="100 25 94 25 94 28 99 28 100 25"/><polygon class="cls-2" points="122 31 118 31 116 25 122 25 122 31"/><polygon class="cls-7" points="116 25 117 28 122 28 122 25 116 25"/><rect class="cls-8" height="4" width="36" x="90" y="21"/><rect class="cls-7" height="4" width="3" x="123" y="21"/><rect class="cls-5" height="4" width="3" x="90" y="21"/><polygon class="cls-6" points="98 31 94 31 94 25 100 25 98 31"/><polygon class="cls-6" points="122 31 118 31 116 25 122 25 122 31"/><rect class="cls-6" height="4" width="36" x="90" y="21"/><rect class="cls-9" height="28" transform="translate(33 -7) rotate(90)" width="16" x="12" y="-1"/><rect class="cls-10" height="3" width="28" x="6" y="18"/><rect class="cls-11" height="3" width="28" x="6" y="5"/><rect class="cls-6" height="28" transform="translate(33 -7) rotate(90)" width="16" x="12" y="-1"/><circle class="cls-12" cx="15" cy="13" r="5"/><circle class="cls-6" cx="15" cy="13" r="5"/><circle class="cls-6" cx="15" cy="13" r="1"/><circle class="cls-12" cx="27" cy="13" r="3"/><circle class="cls-6" cx="27" cy="13" r="3"/><rect class="cls-9" height="28" transform="translate(121 -95) rotate(90)" width="16" x="100" y="-1"/><rect class="cls-10" height="3" width="28" x="94" y="18"/><rect class="cls-11" height="3" width="28" x="94" y="5"/><rect class="cls-6" height="28" transform="translate(121 -95) rotate(90)" width="16" x="100" y="-1"/><circle class="cls-12" cx="113" cy="13" r="5"/><circle class="cls-6" cx="113" cy="13" r="5"/><circle class="cls-6" cx="113" cy="13" r="1"/><circle class="cls-12" cx="101" cy="13" r="3"/><circle class="cls-6" cx="101" cy="13" r="3"/><line class="cls-6" x1="127" x2="127" y1="125" y2="125"/><path class="cls-13" d="M2,126H1a1,1,0,0,1,0-2H2a1,1,0,0,1,0,2Z"/><path class="cls-13" d="M124,126H5a1,1,0,0,1,0-2H124a1,1,0,0,1,0,2Z"/></g><polygon class="cls-14" points="8 125 16 81 22 81 8 125"/><polygon class="cls-11" points="8 125 16 81 18.95 81 8 125"/><polygon class="cls-4" points="21.05 84 22 81 16 81 15.45 84 21.05 84"/><polygon class="cls-14" points="120 125 106 81 112 81 120 125"/><polygon class="cls-11" points="120 125 109.05 81 112 81 120 125"/><polygon class="cls-4" points="112.55 84 112 81 106 81 106.95 84 112.55 84"/><rect class="cls-2" height="6" width="116" x="6" y="75"/><rect class="cls-15" height="6" width="3" x="6" y="75"/><rect class="cls-16" height="6" width="3" x="119" y="75"/><path class="cls-13" d="M8,126a1,1,0,0,1-.24,0A1,1,0,0,1,7,124.82l8-44A1,1,0,0,1,16,80h6a1,1,0,0,1,.81.41,1,1,0,0,1,.14.89l-14,44A1,1,0,0,1,8,126Zm8.83-44-5.06,27.85L20.63,82Z"/><path class="cls-13" d="M120,126a1,1,0,0,1-1-.7l-14-44a1,1,0,0,1,.14-.89A1,1,0,0,1,106,80h6a1,1,0,0,1,1,.82l8,44a1,1,0,0,1-.74,1.15A1,1,0,0,1,120,126ZM107.37,82l8.86,27.85L111.17,82Z"/><path class="cls-13" d="M122,82H6a1,1,0,0,1-1-1V75a1,1,0,0,1,1-1H122a1,1,0,0,1,1,1v6A1,1,0,0,1,122,82ZM7,80H121V76H7Z"/><circle class="cls-17" cx="28.74" cy="50.35" r="3.43"/><path class="cls-13" d="M28.74,54.78a4.43,4.43,0,1,1,3.13-1.3A4.39,4.39,0,0,1,28.74,54.78Zm0-6.86a2.43,2.43,0,1,0,1.72.71A2.41,2.41,0,0,0,28.74,47.92Z"/><path class="cls-18" d="M31.8,42.87H27.64l-3.51-3.5A4.5,4.5,0,0,0,18,39.06a4.42,4.42,0,0,0-.21,6.44l3.61,3.61v4.16a3.34,3.34,0,0,0,1,2.36l.76.76L34.92,44.6l-.76-.75A3.32,3.32,0,0,0,31.8,42.87Z"/><path class="cls-19" d="M21.4,49.11l6.24-6.24-3.51-3.5A4.5,4.5,0,0,0,18,39.06a4.42,4.42,0,0,0-.21,6.44Z"/><path class="cls-13" d="M23.13,57.39h0a1,1,0,0,1-.71-.3l-.75-.75a4.31,4.31,0,0,1-1.27-3.07V49.52l-3.32-3.31a5.46,5.46,0,0,1-1.58-4,5.35,5.35,0,0,1,1.84-3.89,5.5,5.5,0,0,1,7.5.35l3.21,3.21H31.8a4.31,4.31,0,0,1,3.07,1.27l.75.76a1,1,0,0,1,0,1.41L23.84,57.09A1,1,0,0,1,23.13,57.39ZM20.86,39a3.28,3.28,0,0,0-2.2.81,3.42,3.42,0,0,0-.17,5L22.1,48.4a1,1,0,0,1,.3.71v4.16a2.31,2.31,0,0,0,.68,1.65l.05,0L33.5,44.6l0-.05a2.32,2.32,0,0,0-1.65-.68H27.64a1,1,0,0,1-.71-.29l-3.5-3.51A3.66,3.66,0,0,0,20.86,39Z"/><path class="cls-13" d="M26.54,45.09a1,1,0,0,1-.7-.29,1,1,0,0,1,0-1.41l1.22-1.23a1,1,0,0,1,1.42,1.42L27.25,44.8A1,1,0,0,1,26.54,45.09Z"/><path class="cls-13" d="M21.4,50.24a1,1,0,0,1-.71-.29,1,1,0,0,1,0-1.42l3.19-3.18a1,1,0,1,1,1.41,1.41L22.1,50A1,1,0,0,1,21.4,50.24Z"/><path class="cls-13" d="M15.05,51a1,1,0,0,1-.69-.27,1,1,0,0,1,0-1.41l3.41-3.66A1,1,0,0,1,19.19,47l-3.41,3.66A1,1,0,0,1,15.05,51Z"/><path class="cls-13" d="M19,72.05a1,1,0,0,1-.79-.38l-8-10.09a1,1,0,0,1,1.57-1.24l8,10.09a1,1,0,0,1-.17,1.4A1,1,0,0,1,19,72.05Z"/><rect class="cls-14" height="4" width="12" x="13" y="71"/><path class="cls-13" d="M25,76H13a1,1,0,0,1-1-1V73a3,3,0,0,1,3-3h8a3,3,0,0,1,3,3v2A1,1,0,0,1,25,76ZM14,74H24V73a1,1,0,0,0-1-1H15a1,1,0,0,0-1,1Z"/><path class="cls-13" d="M11.05,62a1.07,1.07,0,0,1-.35-.06,1,1,0,0,1-.59-1.28l4-11a1,1,0,0,1,1.28-.6A1,1,0,0,1,16,50.3l-4,11A1,1,0,0,1,11.05,62Z"/><circle class="cls-14" cx="11.05" cy="60.96" r="1.96"/><path class="cls-13" d="M11.05,63.92a3,3,0,1,1,3-3A3,3,0,0,1,11.05,63.92Zm0-3.92a1,1,0,1,0,1,1A1,1,0,0,0,11.05,60Z"/><path class="cls-13" d="M15.05,51a1,1,0,0,1-.7-.28L11,47.44A1,1,0,0,1,11,46a1,1,0,0,1,1.41,0l3.38,3.24a1,1,0,0,1,0,1.41A1,1,0,0,1,15.05,51Z"/><circle class="cls-14" cx="15.05" cy="49.96" r="1.96"/><path class="cls-13" d="M15.05,52.92a3,3,0,1,1,3-3A3,3,0,0,1,15.05,52.92Zm0-3.92a1,1,0,1,0,1,1A1,1,0,0,0,15.05,49Z"/><rect class="cls-20" height="6" width="14" x="57" y="69"/><rect class="cls-21" height="3" width="14" x="57" y="69"/><path class="cls-13" d="M71,76H57a1,1,0,0,1-1-1V69a1,1,0,0,1,1-1H71a1,1,0,0,1,1,1v6A1,1,0,0,1,71,76ZM58,74H70V70H58Z"/><path class="cls-13" d="M75,76H53a1,1,0,0,1,0-2H75a1,1,0,0,1,0,2Z"/><path class="cls-22" d="M41,30H87a2,2,0,0,1,2,2V63a0,0,0,0,1,0,0H39a0,0,0,0,1,0,0V32A2,2,0,0,1,41,30Z"/><rect class="cls-23" height="27" width="44" x="42" y="32.99"/><polygon class="cls-24" points="82.79 32.99 42 32.99 42 51.84 82.79 32.99"/><polygon class="cls-24" points="42 57.84 86 37.51 86 34.51 42 54.84 42 57.84"/><rect class="cls-25" height="4" width="44" x="42" y="33"/><path class="cls-13" d="M86,61H42a1,1,0,0,1-1-1V33a1,1,0,0,1,1-1H86a1,1,0,0,1,1,1V60A1,1,0,0,1,86,61ZM43,59H85V34H43Z"/><path class="cls-13" d="M89,64H39a1,1,0,0,1-1-1V32a3,3,0,0,1,3-3H87a3,3,0,0,1,3,3V63A1,1,0,0,1,89,64ZM40,62H88V32a1,1,0,0,0-1-1H41a1,1,0,0,0-1,1Z"/><path class="cls-9" d="M39,63H89a0,0,0,0,1,0,0v4a2,2,0,0,1-2,2H41a2,2,0,0,1-2-2V63A0,0,0,0,1,39,63Z"/><path class="cls-13" d="M87,70H41a3,3,0,0,1-3-3V63a1,1,0,0,1,1-1H89a1,1,0,0,1,1,1v4A3,3,0,0,1,87,70ZM40,64v3a1,1,0,0,0,1,1H87a1,1,0,0,0,1-1V64Z"/><polygon class="cls-14" points="82 125 76 91 70 91 82 125"/><path class="cls-13" d="M82,126a1,1,0,0,1-.94-.67l-12-34A1,1,0,0,1,70,90h6a1,1,0,0,1,1,.83l6,34a1,1,0,0,1-.73,1.14A1.07,1.07,0,0,1,82,126ZM71.41,92l7.5,21.24L75.16,92Z"/><polygon class="cls-14" points="46 125 52 91 58 91 46 125"/><path class="cls-13" d="M46,126a1.07,1.07,0,0,1-.25,0,1,1,0,0,1-.73-1.14l6-34A1,1,0,0,1,52,90h6a1,1,0,0,1,.94,1.33l-12,34A1,1,0,0,1,46,126Zm6.84-34-3.75,21.24L56.59,92Z"/><path class="cls-8" d="M69.51,101h-11A16,16,0,0,1,43,81.12L49.24,56a4,4,0,0,1,3.88-3H74.88a4,4,0,0,1,3.88,3L85,81.12A16,16,0,0,1,69.51,101Z"/><path class="cls-15" d="M43,85.12,49.24,60a4,4,0,0,1,3.88-3H74.88a4,4,0,0,1,3.88,3L85,85.12A15.72,15.72,0,0,1,85.39,87,16,16,0,0,0,85,81.12L78.76,56a4,4,0,0,0-3.88-3H53.12a4,4,0,0,0-3.88,3L43,81.12A16,16,0,0,0,42.61,87,15.72,15.72,0,0,1,43,85.12Z"/><path class="cls-16" d="M69.51,97h-11A16,16,0,0,1,42.61,83a16,16,0,0,0,15.88,18h11A16,16,0,0,0,85.39,83,16,16,0,0,1,69.51,97Z"/><path class="cls-13" d="M69.51,102h-11A17,17,0,0,1,42,80.88l6.27-25.09A5,5,0,0,1,53.12,52H74.88a5,5,0,0,1,4.85,3.79L86,80.88A17,17,0,0,1,69.51,102ZM53.12,54a3,3,0,0,0-2.91,2.27L43.94,81.36A15,15,0,0,0,58.49,100h11A15,15,0,0,0,84.06,81.36L77.79,56.27A3,3,0,0,0,74.88,54Z"/><path class="cls-9" d="M91,71h4a2,2,0,0,1,2,2v2a0,0,0,0,1,0,0H89a0,0,0,0,1,0,0V73A2,2,0,0,1,91,71Z"/><path class="cls-13" d="M97,76H89a1,1,0,0,1-1-1V73a3,3,0,0,1,3-3h4a3,3,0,0,1,3,3v2A1,1,0,0,1,97,76Zm-7-2h6V73a1,1,0,0,0-1-1H91a1,1,0,0,0-1,1Z"/><path class="cls-26" d="M114.88,42.36c-3.74,6.71-3.9,15.27-3.77,24l-5.28.34C105.63,52.47,109.28,44.43,114.88,42.36Z"/><path class="cls-13" d="M105.83,67.68a1,1,0,0,1-.68-.26,1,1,0,0,1-.32-.72c-.19-13.92,3.25-22.89,9.7-25.28a1,1,0,0,1,1.22,1.43c-3.59,6.45-3.77,14.78-3.64,23.47a1,1,0,0,1-.94,1l-5.27.35ZM112.57,45c-3.7,3.38-5.75,10.63-5.74,20.67l3.26-.22C110,58.06,110.22,51,112.57,45Z"/><path class="cls-26" d="M102.58,46.29c4.17,6.45,4.89,15,5.34,23.68h5.28C112.47,55.77,108.3,48,102.58,46.29Z"/><path class="cls-13" d="M113.2,71h-5.28a1,1,0,0,1-1-1c-.44-8.68-1.17-17-5.18-23.18a1,1,0,0,1,0-1.15,1,1,0,0,1,1.08-.35c6.59,1.95,10.62,10.68,11.34,24.58a1.06,1.06,0,0,1-.27.74A1,1,0,0,1,113.2,71Zm-4.33-2h3.27c-.66-10-3.18-17.12-7.08-20.25C107.79,54.59,108.47,61.64,108.87,69Z"/><path class="cls-26" d="M117,49.8c-3.08,3.13-4.58,9.84-4.57,12.81l-5.94-.16C108.32,55.22,113.16,50,117,49.8Z"/><path class="cls-13" d="M112.47,63.61h0l-5.94-.16a1,1,0,0,1-.94-1.24C107.36,55,112.38,49.07,117,48.8a1,1,0,0,1,1,.59,1,1,0,0,1-.2,1.11c-2.88,2.93-4.3,9.34-4.29,12.1a1,1,0,0,1-1,1Zm-4.64-2.12,3.68.09a26.85,26.85,0,0,1,2.87-9.78C111.88,53.41,109.25,56.84,107.83,61.49Z"/><path class="cls-26" d="M119.44,57.37c-3.72,2.19-4.88,4.67-4.24,8.68l-6,2.78C109.76,60.69,114.42,56.76,119.44,57.37Z"/><path class="cls-13" d="M109.21,69.83a1,1,0,0,1-.57-.18,1,1,0,0,1-.43-.89c.31-4.54,1.92-8.23,4.53-10.38a8.92,8.92,0,0,1,6.82-2,1,1,0,0,1,.86.79,1,1,0,0,1-.48,1.07c-3.31,1.94-4.33,4-3.75,7.66a1,1,0,0,1-.57,1.06l-6,2.77A1,1,0,0,1,109.21,69.83Zm6.88-11.11a7,7,0,0,0-2.08,1.2,11.49,11.49,0,0,0-3.61,7.25l3.71-1.71A8,8,0,0,1,116.09,58.72Z"/><path class="cls-26" d="M99.1,55.31c4.08,1.41,5.69,3.62,5.84,7.69l6.42,1.55C109.24,56.68,103.9,53.73,99.1,55.31Z"/><path class="cls-13" d="M111.36,65.55l-.24,0L104.71,64a1,1,0,0,1-.77-.94c-.13-3.68-1.53-5.51-5.16-6.78a1,1,0,0,1-.68-1,1,1,0,0,1,.69-.95,8.93,8.93,0,0,1,7.08.64c3,1.61,5.27,4.91,6.46,9.3a1,1,0,0,1-.25,1A1,1,0,0,1,111.36,65.55Zm-5.47-3.35,4,1a11.48,11.48,0,0,0-5-6.41,6.88,6.88,0,0,0-2.27-.78A8,8,0,0,1,105.89,62.2Z"/><path class="cls-26" d="M101.39,51.52c3.53,2.61,5.85,8.16,6.3,11.09l5.41-.24C111.9,55.28,105.26,51.13,101.39,51.52Z"/><path class="cls-13" d="M107.69,63.61a1,1,0,0,1-1-.85c-.44-2.87-2.74-8.1-5.91-10.44a1,1,0,0,1,.5-1.8c2.26-.22,5.17.87,7.59,2.85a14.55,14.55,0,0,1,5.2,8.83,1,1,0,0,1-.2.8,1.06,1.06,0,0,1-.74.37l-5.41.24ZM104.35,53a22.5,22.5,0,0,1,4.15,8.55l3.37-.15A12.74,12.74,0,0,0,104.35,53Z"/><path class="cls-26" d="M118.49,54.92c-4,1.61-5.51,3.89-5.47,8l-6.33,1.86C108.43,56.77,113.62,53.57,118.49,54.92Z"/><path class="cls-13" d="M106.69,65.74a1,1,0,0,1-.69-.27,1,1,0,0,1-.29-1c1-4.44,3.11-7.85,6-9.6a9,9,0,0,1,7-1,1,1,0,0,1,.11,1.89c-3.57,1.44-4.89,3.34-4.85,7a1,1,0,0,1-.72,1L107,65.7A1.45,1.45,0,0,1,106.69,65.74Zm8.29-10a6.83,6.83,0,0,0-2.23.88,11.52,11.52,0,0,0-4.64,6.64L112,62.13A8,8,0,0,1,115,55.76Z"/><path class="cls-26" d="M98.39,58.72c5.59,1.58,6.09,4.06,5,8.23l6.24,2.18C108.83,60.64,104.35,56.68,98.39,58.72Z"/><path class="cls-13" d="M109.68,70.13a.88.88,0,0,1-.33-.06l-6.24-2.18a1,1,0,0,1-.64-1.18c1-3.82.56-5.64-4.35-7a1,1,0,0,1-.73-.93,1,1,0,0,1,.67-1,8.43,8.43,0,0,1,7.48.63c2.84,1.83,4.62,5.5,5.13,10.63a1,1,0,0,1-1,1.1Zm-5.07-3.83,3.86,1.35c-.61-3.63-2-6.28-4-7.57a5.54,5.54,0,0,0-2.24-.83C104.88,60.94,105.23,63.29,104.61,66.3Z"/><path class="cls-27" d="M113.8,75h-8.61a2,2,0,0,1-2-1.67L102,66h15l-1.22,7.33A2,2,0,0,1,113.8,75Z"/><polygon class="cls-28" points="108 75 106 75 105 66 107 66 108 75"/><polygon class="cls-29" points="116.5 69 117 66 102 66 102.5 69 116.5 69"/><path class="cls-13" d="M113.8,76h-8.61a3,3,0,0,1-3-2.51L101,66.16A1,1,0,0,1,102,65h15a1,1,0,0,1,.76.35,1,1,0,0,1,.23.81l-1.23,7.33A3,3,0,0,1,113.8,76Zm-10.62-9,1,6.16a1,1,0,0,0,1,.84h8.61a1,1,0,0,0,1-.84l1-6.16Z"/><rect class="cls-30" height="3" width="17" x="101" y="63"/><rect class="cls-5" height="3" width="2" x="104" y="63"/><path class="cls-13" d="M118,67H101a1,1,0,0,1-1-1V63a1,1,0,0,1,1-1h17a1,1,0,0,1,1,1v3A1,1,0,0,1,118,67Zm-16-2h15V64H102Z"/></svg>