<?xml version="1.0" ?><svg data-name="015" id="_015" viewBox="0 0 128 128" xmlns="http://www.w3.org/2000/svg" xmlns:xlink="http://www.w3.org/1999/xlink"><defs><style>.cls-1{fill:none;}.cls-14,.cls-17,.cls-18,.cls-19,.cls-2,.cls-8{opacity:0.3;}.cls-3{fill:#97c1ff;}.cls-10,.cls-4{fill:#fff;}.cls-5{clip-path:url(#clip-path);}.cls-6{fill:#ced8ee;}.cls-7{fill:#eef6ff;}.cls-8{fill:#7690a8;}.cls-9{fill:#99a5c2;}.cls-10{opacity:0.5;}.cls-11{fill:#6d6daa;}.cls-12{fill:#e1e9fa;}.cls-13,.cls-14{fill:#5cbeff;}.cls-15{clip-path:url(#clip-path-3);}.cls-16{fill:#afefa6;}.cls-17{fill:#48ba33;}.cls-18{fill:#5cbcff;}.cls-19{fill:#48bc33;}.cls-20{fill:#c9c1f5;}.cls-21{fill:#96d7ff;}</style><clipPath id="clip-path"><path class="cls-1" d="M6.29,52.43a28.32,28.32,0,0,1,22-23.79,18.38,18.38,0,0,0,10.23-6.22A35.34,35.34,0,0,1,47,15.06a34.39,34.39,0,0,1,44.47,7.45A35.28,35.28,0,0,1,98.67,37a19.91,19.91,0,0,0,10.19,13c13.25,7,19.89,25.14,7.81,42.16a15.5,15.5,0,0,1-5.94,4.67,19.42,19.42,0,0,0-9.38,10.33c-3,7.35-9.07,16.32-17.16,18.74s-16.33-2.23-22.74-6.74a18.52,18.52,0,0,0-15.55-2.79A26.79,26.79,0,0,1,22.63,112,27.76,27.76,0,0,1,12.17,84.28,19.36,19.36,0,0,0,9.82,70.85,28.73,28.73,0,0,1,6.29,52.43Z"/></clipPath><clipPath id="clip-path-3"><path class="cls-1" d="M6.29,52.43a28.32,28.32,0,0,1,22-23.79c4-.85-2.4-3.07.23-6.22,2.35-2.81,2.67-10.6,6.48-11.36C50.53,8,90.59,9.31,101.48,22.51c3.62,4.38,16-.64,17.19,4.51,1.31,5.63.13,20.32,5.19,23,13.25,7,4.89,25.14-7.19,42.16a15.5,15.5,0,0,1-5.94,4.67,19.42,19.42,0,0,0-9.38,10.33c-3,7.35-9.07,16.32-17.16,18.74s-16.33-2.23-22.74-6.74a18.52,18.52,0,0,0-15.55-2.79A26.79,26.79,0,0,1,22.63,112,27.76,27.76,0,0,1,12.17,84.28,19.36,19.36,0,0,0,9.82,70.85,28.73,28.73,0,0,1,6.29,52.43Z"/></clipPath></defs><title/><g class="cls-2"><path class="cls-3" d="M6.29,52.43a28.32,28.32,0,0,1,22-23.79,18.38,18.38,0,0,0,10.23-6.22A35.34,35.34,0,0,1,47,15.06a34.39,34.39,0,0,1,44.47,7.45A35.28,35.28,0,0,1,98.67,37a19.91,19.91,0,0,0,10.19,13c13.25,7,19.89,25.14,7.81,42.16a15.5,15.5,0,0,1-5.94,4.67,19.42,19.42,0,0,0-9.38,10.33c-3,7.35-9.07,16.32-17.16,18.74s-16.33-2.23-22.74-6.74a18.52,18.52,0,0,0-15.55-2.79A26.79,26.79,0,0,1,22.63,112,27.76,27.76,0,0,1,12.17,84.28,19.36,19.36,0,0,0,9.82,70.85,28.73,28.73,0,0,1,6.29,52.43Z"/><path class="cls-4" d="M24,46.67l-.2,0a.7.7,0,0,1-.19-.06.56.56,0,0,1-.17-.09l-.15-.12a1,1,0,0,1-.13-.16l-.09-.17L23,45.86a1.23,1.23,0,0,1,0-.19,1.09,1.09,0,0,1,.08-.39A1,1,0,0,1,23.3,45a.57.57,0,0,1,.15-.12,1,1,0,0,1,.17-.1l.19-.05a1,1,0,0,1,.9.27.87.87,0,0,1,.22.32,1.09,1.09,0,0,1,.08.39,1.23,1.23,0,0,1,0,.19l-.06.19-.09.17a1,1,0,0,1-.83.45Z"/><path class="cls-4" d="M25.26,42.67h-2.5a1,1,0,0,1,0-2h2.5a1,1,0,1,1,0,2Z"/><path class="cls-4" d="M31.51,38.67H19a1,1,0,0,1,0-2h12.5a1,1,0,0,1,0,2Z"/><path class="cls-4" d="M35.26,42.67h-5a1,1,0,0,1,0-2h5a1,1,0,1,1,0,2Z"/><path class="cls-4" d="M39,46.67H29a1,1,0,0,1,0-2H39a1,1,0,1,1,0,2Z"/><g class="cls-5"><polygon class="cls-6" points="128 86.83 110.84 67 66.02 119.8 128 120.18 128 86.83"/><polygon class="cls-7" points="110.83 67.09 96.07 84.81 105.22 82.94 110.77 87.32 116.72 82.84 125.21 84.34 110.83 67.09"/><polygon class="cls-4" points="110.83 70.71 99.7 84.07 96.07 84.81 110.83 67.09 125.21 84.34 117.17 82.37 110.83 70.71"/><polygon class="cls-8" points="92.95 89.02 110.84 67 97.95 120.02 92.95 89.02"/><polygon class="cls-9" points="110.76 89.97 116.97 85.29 125.21 86.74 125.22 84.3 125.38 83.36 116.46 81.78 110.78 86.05 105.47 81.87 95.87 83.83 96.27 87.18 104.97 85.41 110.76 89.97"/><polygon class="cls-10" points="128 87.81 110.34 67 128 110.78 128 87.81"/><path class="cls-11" d="M65.62,120.31a1,1,0,0,1-.66-.25,1,1,0,0,1-.09-1.41l30.45-34.5,14.75-17.7a1,1,0,0,1,.76-.36h0a1,1,0,0,1,.77.36L126,83.7l2.77,3.14a1,1,0,0,1-1.5,1.33L124.46,85,110.83,68.66l-14,16.79L66.37,120A1,1,0,0,1,65.62,120.31Z"/></g><g class="cls-5"><polygon class="cls-6" points="114.01 113 87.01 86 74.01 86 56.01 68 42.01 68 25.01 50 16.01 50 -2.99 69 -2.99 131 114.01 131 114.01 113"/><polygon class="cls-8" points="20.01 131 14.01 106 20.01 81 9.01 84 16.01 50 -2.99 69 -2.99 131 20.01 131"/><polygon class="cls-7" points="114.01 113 87.01 86 74.01 86 56.01 68 42.01 68 25.01 50 16.01 50 23.01 68 42.01 68 53.01 86 74.01 86 91.01 120 114.01 113"/><polygon class="cls-4" points="84.01 86 101.01 117 114.01 113 87.01 86 84.01 86"/><polygon class="cls-4" points="42.01 68 25.01 50 24.01 50 33.01 68 42.01 68"/><polygon class="cls-4" points="74.01 86 56.01 68 54.01 68 58.01 86 74.01 86"/><path class="cls-11" d="M114,132H-3a1,1,0,0,1-1-1V69a1,1,0,0,1,.29-.71l19-19A1,1,0,0,1,16,49h9a1,1,0,0,1,.72.31L42.44,67H56a1,1,0,0,1,.7.29L74.42,85H87a1,1,0,0,1,.7.29l27,27a1,1,0,0,1,.3.71v18A1,1,0,0,1,114,132ZM-2,130H113V113.41L86.59,87H74a1,1,0,0,1-.71-.29L55.59,69H42a1,1,0,0,1-.73-.31L24.58,51H16.42L-2,69.41Z"/><polygon class="cls-8" points="42.01 68 38.01 115 15.01 104 42.01 68"/><polygon class="cls-8" points="74.01 86 80.01 131 53.01 114 74.01 86"/><polygon class="cls-12" points="57.77 101.67 82.01 131 9.01 131 32.87 100.4 44.78 86.33 57.77 101.67"/><polygon class="cls-4" points="44.78 86.33 32.87 100.4 33.04 100.49 40.19 99.52 44.74 102.33 49.58 99.45 57.71 101.7 57.77 101.67 44.78 86.33"/><polygon class="cls-8" points="32.83 126.54 13.01 124.17 44.78 86.33 32.83 126.54"/><polygon class="cls-9" points="45.01 105 49.92 100.17 59.01 103 55.34 99.17 48.84 96.83 45.26 100.67 41.17 97.17 35.59 97.5 32.76 100.75 40.17 100.42 45.01 105"/><path class="cls-11" d="M67.22,113.88a1,1,0,0,1-.77-.36L44.78,87.88,33.63,101.05a1,1,0,1,1-1.53-1.29l12.68-15L68,112.23a1,1,0,0,1-.76,1.65Z"/></g><path class="cls-7" d="M117.55,14.08a7.21,7.21,0,0,0-10.72-8,9.47,9.47,0,0,0-17,4.74A6.77,6.77,0,0,0,92.06,24h25.28a5,5,0,0,0,.21-9.92Z"/><path class="cls-4" d="M117.55,16.79a7.26,7.26,0,0,0,.24-1.82,8.11,8.11,0,0,0-.05-.86A5,5,0,0,1,122.31,19a5.24,5.24,0,0,1-.2,1.39A5,5,0,0,0,117.55,16.79Z"/><path class="cls-4" d="M110.57,7.75a7.2,7.2,0,0,0-3.74,1.05,9.47,9.47,0,0,0-17,4.74,6.78,6.78,0,0,0-4.42,5.08,6.37,6.37,0,0,1-.15-1.39,6.77,6.77,0,0,1,4.57-6.4,9.47,9.47,0,0,1,17-4.74,7.21,7.21,0,0,1,11,6.17,7,7,0,0,1-.14,1.31A7.21,7.21,0,0,0,110.57,7.75Z"/><path class="cls-13" d="M117.55,11.37a4.18,4.18,0,0,0,.1-.51c0,.18.06.36.09.54Z"/><path class="cls-14" d="M92.06,21.29h25.28a5,5,0,0,0,4.77-3.58,5.27,5.27,0,0,1,.2,1.32,5,5,0,0,1-5,5H92.06a6.77,6.77,0,0,1-6.77-6.77,6.43,6.43,0,0,1,.15-1.32A6.77,6.77,0,0,0,92.06,21.29Z"/><path class="cls-11" d="M117.34,25H92.06a7.77,7.77,0,0,1-3.12-14.88,10.46,10.46,0,0,1,18.14-5.29A8.1,8.1,0,0,1,110.57,4a8.21,8.21,0,0,1,8.16,9.2A6,6,0,0,1,117.34,25Zm-18-21.67a8.46,8.46,0,0,0-8.44,7.61,1,1,0,0,1-.67.84A5.77,5.77,0,0,0,92.06,23h25.28a4,4,0,0,0,.17-7.92,1,1,0,0,1-.76-.4,1,1,0,0,1-.17-.85A6.2,6.2,0,0,0,107.35,7,1,1,0,0,1,106,6.7,8.4,8.4,0,0,0,99.29,3.33Z"/><path class="cls-11" d="M90.27,15.75a1,1,0,0,1-1-.69,14.46,14.46,0,0,1-.51-3.84,1,1,0,1,1,2,0,12.67,12.67,0,0,0,.41,3.22,1,1,0,0,1-.64,1.26A1.12,1.12,0,0,1,90.27,15.75Z"/><path class="cls-11" d="M114.07,16.3a1,1,0,0,1-.75-.34,1,1,0,0,1,.09-1.41,5.93,5.93,0,0,1,3.93-1.48,1,1,0,0,1,0,2,4,4,0,0,0-2.61,1A1,1,0,0,1,114.07,16.3Z"/><path class="cls-11" d="M104.7,9.06a1,1,0,0,1-.58-.19,1,1,0,0,1-.23-1.39,8.11,8.11,0,0,1,2.57-2.34,1,1,0,0,1,1,1.73,6.35,6.35,0,0,0-1.95,1.77A1,1,0,0,1,104.7,9.06Z"/><path class="cls-7" d="M27.14,20.36a6,6,0,0,0,0-.74A6.65,6.65,0,0,0,14.31,17.3a3.54,3.54,0,0,0-5.75,2.77c0,.1,0,.2,0,.3a5.3,5.3,0,0,0,1.76,10.3H25.41a5.3,5.3,0,0,0,1.73-10.31Z"/><path class="cls-4" d="M27.14,22.57a6,6,0,0,0,0-.74,6.65,6.65,0,0,0-12.87-2.32,3.54,3.54,0,0,0-5.75,2.77c0,.1,0,.2,0,.3a5.31,5.31,0,0,0-3.44,3.91A5.19,5.19,0,0,1,5,25.37a5.29,5.29,0,0,1,3.56-5c0-.1,0-.2,0-.3a3.54,3.54,0,0,1,5.75-2.77,6.65,6.65,0,0,1,12.87,2.32,6,6,0,0,1,0,.74,5.3,5.3,0,0,1,3.59,5,5.91,5.91,0,0,1-.12,1.12A5.33,5.33,0,0,0,27.14,22.57Z"/><path class="cls-14" d="M10.33,28.46H25.41a5.32,5.32,0,0,0,5.2-4.18,5.51,5.51,0,0,1,.12,1.09,5.31,5.31,0,0,1-5.32,5.3H10.33A5.31,5.31,0,0,1,5,25.37a5.51,5.51,0,0,1,.12-1.09A5.32,5.32,0,0,0,10.33,28.46Z"/><path class="cls-11" d="M25.41,31.67H10.33a6.3,6.3,0,0,1-2.76-12,4.55,4.55,0,0,1,4.53-4.17,4.41,4.41,0,0,1,1.77.36,7.65,7.65,0,0,1,14.31,3.73v.09a6.3,6.3,0,0,1-2.77,12ZM12.1,17.53a2.54,2.54,0,0,0-2.54,2.54,1.48,1.48,0,0,0,0,.21,1,1,0,0,1-.67,1,4.3,4.3,0,0,0,1.43,8.36H25.41a4.3,4.3,0,0,0,1.41-8.37,1,1,0,0,1-.67-1.05c0-.21,0-.41,0-.63a5.65,5.65,0,0,0-10.94-2,1,1,0,0,1-1.55.43A2.56,2.56,0,0,0,12.1,17.53Z"/><path class="cls-7" d="M25.41,20.07a5.25,5.25,0,0,1,1.74.29"/><path class="cls-11" d="M27.15,21.36a1,1,0,0,1-.32-.06,4.54,4.54,0,0,0-1.42-.23,1,1,0,0,1,0-2,6.28,6.28,0,0,1,2.07.34,1,1,0,0,1-.33,1.95Z"/><path class="cls-7" d="M8.57,20.36a5.37,5.37,0,0,1,1.76-.29"/><path class="cls-11" d="M8.57,21.36a1,1,0,0,1-.33-1.94,6.41,6.41,0,0,1,2.09-.35,1,1,0,0,1,0,2,4.34,4.34,0,0,0-1.43.24A1,1,0,0,1,8.57,21.36Z"/><path class="cls-7" d="M14.28,17.28a3.59,3.59,0,0,1,1,1.15"/><path class="cls-11" d="M15.25,19.43a1,1,0,0,1-.89-.53,2.4,2.4,0,0,0-.69-.83,1,1,0,1,1,1.23-1.58A4.58,4.58,0,0,1,16.13,18a1,1,0,0,1-.42,1.35A.93.93,0,0,1,15.25,19.43Z"/></g><g class="cls-15"><path class="cls-16" d="M106,77V36H87a2,2,0,0,0-2,2V75a2,2,0,0,0,2,2Z"/><path class="cls-10" d="M87,36a2,2,0,0,0-2,2v3a2,2,0,0,1,2-2h19V36Z"/><path class="cls-17" d="M85,72v3a2,2,0,0,0,2,2h19V74H87A2,2,0,0,1,85,72Z"/><path class="cls-17" d="M89,76h5a3,3,0,0,0,3-3V36H87a2,2,0,0,0-2,2V72h1v4.72A2,2,0,0,0,87,77h1A1,1,0,0,1,89,76Z"/><path class="cls-11" d="M106,78H87a3,3,0,0,1-3-3V38a3,3,0,0,1,3-3h19a1,1,0,0,1,1,1V77A1,1,0,0,1,106,78ZM87,37a1,1,0,0,0-1,1V75a1,1,0,0,0,1,1h18V37Z"/><path class="cls-16" d="M92,69H85v6a2,2,0,0,1,2-2h5a2,2,0,0,0,0-4Z"/><path class="cls-17" d="M92,69H85v6a2,2,0,0,1,2-2h5a2,2,0,0,0,0-4Z"/><path class="cls-11" d="M85,76a1,1,0,0,1-1-1V68a1,1,0,0,1,1-1h7a1,1,0,0,0,1-1,1,1,0,0,1,2,0v5a3,3,0,0,1-3,3H87a1,1,0,0,0-1,1A1,1,0,0,1,85,76Zm1-7v3.17A3,3,0,0,1,87,72h5a1,1,0,0,0,1-1V68.83A3,3,0,0,1,92,69Z"/><path class="cls-16" d="M42,69H92a2,2,0,0,1,2,2V30a2,2,0,0,0-2-2H42Z"/><path class="cls-10" d="M92,28H87a2,2,0,0,1,2,2V69h3a2,2,0,0,1,2,2V30A2,2,0,0,0,92,28Z"/><rect class="cls-10" height="41" width="15" x="51" y="28"/><path class="cls-17" d="M92,66H42v3H92a2,2,0,0,1,2,2V68A2,2,0,0,0,92,66Z"/><path class="cls-10" d="M92,28H42v3H92a2,2,0,0,1,2,2V30A2,2,0,0,0,92,28Z"/><path class="cls-11" d="M94,72a1,1,0,0,1-1-1,1,1,0,0,0-1-1H42a1,1,0,0,1-1-1V28a1,1,0,0,1,1-1H92a3,3,0,0,1,3,3V71A1,1,0,0,1,94,72ZM43,68H92a3,3,0,0,1,1,.17V30a1,1,0,0,0-1-1H43Z"/><path class="cls-7" d="M37,128V26.5A2.5,2.5,0,0,1,39.5,24h0A2.5,2.5,0,0,1,42,26.5V128"/><path class="cls-18" d="M39.5,24a2.42,2.42,0,0,0-1.25.35A2.49,2.49,0,0,1,39.5,26.5V128H42V26.5A2.5,2.5,0,0,0,39.5,24Z"/><path class="cls-11" d="M42,129a1,1,0,0,1-1-1V26.5a1.5,1.5,0,0,0-3,0V128a1,1,0,0,1-2,0V26.5a3.5,3.5,0,0,1,7,0V128A1,1,0,0,1,42,129Z"/><circle class="cls-7" cx="39.5" cy="19.5" r="4.5"/><circle class="cls-4" cx="37.79" cy="17.64" r="2.02"/><path class="cls-18" d="M41.51,15.49a4.47,4.47,0,0,1-6,6,4.49,4.49,0,1,0,6-6Z"/><path class="cls-11" d="M39.5,25A5.5,5.5,0,1,1,45,19.5,5.51,5.51,0,0,1,39.5,25Zm0-9A3.5,3.5,0,1,0,43,19.5,3.5,3.5,0,0,0,39.5,16Z"/><rect class="cls-7" height="3" width="7" x="36" y="25"/><rect class="cls-18" height="3" width="3" x="40" y="25"/><rect class="cls-7" height="3" width="7" x="36" y="69"/><rect class="cls-18" height="3" width="3" x="40" y="69"/><path class="cls-11" d="M43,29H36a1,1,0,0,1-1-1V25a1,1,0,0,1,1-1h7a1,1,0,0,1,1,1v3A1,1,0,0,1,43,29Zm-6-2h5V26H37Z"/><path class="cls-11" d="M43,73H36a1,1,0,0,1-1-1V69a1,1,0,0,1,1-1h7a1,1,0,0,1,1,1v3A1,1,0,0,1,43,73Zm-6-2h5V70H37Z"/><path class="cls-19" d="M80.47,42.2a2.41,2.41,0,0,0-1-1.63,2.44,2.44,0,0,0-3.32.37l-9,8.39-3.91-1.07a2.45,2.45,0,0,0-3.82,2.05A2.32,2.32,0,0,0,60.16,52l5.58,6.25a2.82,2.82,0,0,0,2,.79h.16a2.81,2.81,0,0,0,2-1.13L80,44A2.39,2.39,0,0,0,80.47,42.2Z"/><path class="cls-4" d="M79.39,40.16a1.34,1.34,0,0,0-.54-.9h0a1.38,1.38,0,0,0-1.88.25l-9.52,9-4.6-1.43c-.88-.42-1.35-.43-1.85.08A1.35,1.35,0,0,0,61,49l5.53,6.19a1.69,1.69,0,0,0,1.18.48h.12A1.7,1.7,0,0,0,69,55L79.13,41.16A1.33,1.33,0,0,0,79.39,40.16Z"/><path class="cls-11" d="M67.73,56.71A2.71,2.71,0,0,1,65.81,56L60.23,49.7a2.23,2.23,0,0,1-.63-1.59,2.3,2.3,0,0,1,.69-1.68,2.33,2.33,0,0,1,2.93-.3l4,1.23,9-8.54a2.36,2.36,0,0,1,3.2-.36A2.32,2.32,0,0,1,80.38,40h0a2.35,2.35,0,0,1-.45,1.75L69.85,55.62a2.66,2.66,0,0,1-2,1.08Zm-5.92-9a.5.5,0,0,0-.11.09.35.35,0,0,0-.1.26.38.38,0,0,0,.07.22l5.59,6.24a.65.65,0,0,0,.43.15h.09a.67.67,0,0,0,.46-.28L78.32,40.58a.38.38,0,0,0,.08-.28h0a.33.33,0,0,0-.14-.23.37.37,0,0,0-.51.06l-.09.11-9.53,9a1,1,0,0,1-1,.22L62.56,48,62.43,48C62,47.75,61.83,47.74,61.81,47.75Z"/></g><path class="cls-20" d="M67.92,7.38a5.57,5.57,0,0,0,3.7,3.7c1.84.61,1.84,1.23,0,1.84a5.57,5.57,0,0,0-3.7,3.7c-.61,1.84-1.23,1.84-1.84,0a5.57,5.57,0,0,0-3.7-3.7c-1.84-.61-1.84-1.23,0-1.84a5.57,5.57,0,0,0,3.7-3.7C66.69,5.54,67.31,5.54,67.92,7.38Z"/><path class="cls-21" d="M12.77,48.15a4.61,4.61,0,0,0,3.08,3.08c1.53.51,1.53,1,0,1.54a4.61,4.61,0,0,0-3.08,3.08c-.51,1.53-1,1.53-1.54,0a4.61,4.61,0,0,0-3.08-3.08c-1.53-.51-1.53-1,0-1.54a4.61,4.61,0,0,0,3.08-3.08C11.74,46.61,12.26,46.61,12.77,48.15Z"/><path class="cls-16" d="M108.62,106.92a3.7,3.7,0,0,0,2.46,2.46c1.23.41,1.23.83,0,1.24a3.7,3.7,0,0,0-2.46,2.46c-.42,1.23-.83,1.23-1.24,0a3.7,3.7,0,0,0-2.46-2.46c-1.23-.41-1.23-.83,0-1.24a3.7,3.7,0,0,0,2.46-2.46C107.79,105.69,108.2,105.69,108.62,106.92Z"/><path class="cls-21" d="M118.62,42.92a3.7,3.7,0,0,0,2.46,2.46q1.85.61,0,1.23a3.73,3.73,0,0,0-2.46,2.47c-.42,1.23-.83,1.23-1.24,0a3.73,3.73,0,0,0-2.46-2.47q-1.85-.61,0-1.23a3.7,3.7,0,0,0,2.46-2.46C117.79,41.69,118.2,41.69,118.62,42.92Z"/><path class="cls-20" d="M77.62,82.92a3.7,3.7,0,0,0,2.46,2.46c1.23.41,1.23.83,0,1.24a3.7,3.7,0,0,0-2.46,2.46c-.42,1.23-.83,1.23-1.24,0a3.7,3.7,0,0,0-2.46-2.46c-1.23-.41-1.23-.83,0-1.24a3.7,3.7,0,0,0,2.46-2.46C76.79,81.69,77.2,81.69,77.62,82.92Z"/><path class="cls-16" d="M24.62,98.92a3.7,3.7,0,0,0,2.46,2.46c1.23.41,1.23.83,0,1.24a3.7,3.7,0,0,0-2.46,2.46c-.42,1.23-.83,1.23-1.24,0a3.7,3.7,0,0,0-2.46-2.46c-1.23-.41-1.23-.83,0-1.24a3.7,3.7,0,0,0,2.46-2.46C23.79,97.69,24.2,97.69,24.62,98.92Z"/></svg>