<?xml version="1.0" ?><svg data-name="009" height="128" id="_009" viewBox="0 0 128 128" width="128" xmlns="http://www.w3.org/2000/svg"><title/><g style="opacity:0.30000000000000004"><path d="M119.12808,67.65245c4.29329-13.44719,1.28253-28.47112-9.87075-40.24605C92.49222,9.70683,62.41855,5.806,40.35831,18.47494,25.25381,27.14926,17.23022,41.28286,17.1752,55.63006A43.68508,43.68508,0,0,1,10.562,78.54436,23.093,23.093,0,0,0,7.34722,94.81768C9.64172,107.95378,23.321,117.697,38.71794,117.1461a35.78821,35.78821,0,0,0,4.92793-.5167c12.159-2.1411,24.91783-1.14479,35.96228,3.73392a31.08762,31.08762,0,0,0,7.50022,2.21751c13.2236,2.18563,26.60758-4.363,31.185-15.27858a20.73454,20.73454,0,0,0,.62678-14.70218A40.12667,40.12667,0,0,1,119.12808,67.65245Z" style="fill:#c9c1f5"/><rect height="5" style="fill:#fffad1" width="44" x="76" y="87"/><path d="M120,93H76a.99942.99942,0,0,1-1-1V87a.99942.99942,0,0,1,1-1h44a.99942.99942,0,0,1,1,1v5A.99942.99942,0,0,1,120,93ZM77,91h42V88H77Z" style="fill:#6d6daa"/><path d="M106,106H17.001a1,1,0,1,1,0-2H106a1,1,0,0,1,0,2Z" style="fill:#6d6daa"/><path d="M111,106h-1.999a1,1,0,0,1,0-2H111a1,1,0,0,1,0,2Z" style="fill:#6d6daa"/><path d="M10.999,106H9a1,1,0,0,1,0-2h1.999a1,1,0,1,1,0,2Z" style="fill:#6d6daa"/><path d="M14.2002,106H14a1,1,0,0,1,0-2h.2002a1,1,0,0,1,0,2Z" style="fill:#6d6daa"/><circle cx="105" cy="24" r="17" style="fill:#ced8ee"/><path d="M105,42a18,18,0,1,1,18-18A18.02094,18.02094,0,0,1,105,42Zm0-34a16,16,0,1,0,16,16A16.01833,16.01833,0,0,0,105,8Z" style="fill:#6d6daa"/><circle cx="105" cy="24" r="13" style="fill:#eef6ff"/><path d="M105,34c-6.74189,0-12.28351-4.60872-12.93452-11.1793C92.02785,23.20957,92,23.60116,92,24a13,13,0,0,0,26,0c0-.39884-.02785-.79043-.06548-1.1793C117.28351,29.39128,111.74189,34,105,34Z" style="fill:#7595b5;opacity:0.30000000000000004"/><path d="M105,14c6.74189,0,12.28351,4.60865,12.93452,11.1793C117.97215,24.79043,118,24.39884,118,24a13,13,0,0,0-26,0c0,.39884.02785.79043.06548,1.1793C92.71649,18.60865,98.25811,14,105,14Z" style="fill:#fff"/><path d="M105,38a14,14,0,1,1,14-14A14.01573,14.01573,0,0,1,105,38Zm0-26a12,12,0,1,0,12,12A12.01312,12.01312,0,0,0,105,12Z" style="fill:#6d6daa"/><path d="M105,15a.99953.99953,0,0,1-.37988-.08008,1.14722,1.14722,0,0,1-.33008-.21,1.16058,1.16058,0,0,1-.21-.33008.9411.9411,0,0,1,0-.75977.90089.90089,0,0,1,.54-.54.98243.98243,0,0,1,1.08008.21.91089.91089,0,0,1,.21973.33008.9411.9411,0,0,1,0,.75977,1.01181,1.01181,0,0,1-.21973.33008A.955.955,0,0,1,105,15Z" style="fill:#6d6daa"/><path d="M105,35a.98984.98984,0,0,1-.37988-.07031A1.25614,1.25614,0,0,1,104.29,34.71.98946.98946,0,0,1,104,34a.99953.99953,0,0,1,.08008-.37988,1.14722,1.14722,0,0,1,.21-.33008,1.02891,1.02891,0,0,1,.33008-.21A1.00575,1.00575,0,0,1,106,34a.964.964,0,0,1-.2998.71,1.21838,1.21838,0,0,1-.32031.21973A.98984.98984,0,0,1,105,35Z" style="fill:#6d6daa"/><path d="M115,25a.99953.99953,0,0,1-.37988-.08008,1.14722,1.14722,0,0,1-.33008-.21,1.16058,1.16058,0,0,1-.21-.33008.9411.9411,0,0,1,0-.75977,1.02891,1.02891,0,0,1,.21-.33008,1.00692,1.00692,0,0,1,.89941-.27051.62094.62094,0,0,1,.19043.06055.736.736,0,0,1,.17969.08984A1.61882,1.61882,0,0,1,115.71,23.29a1.02891,1.02891,0,0,1,.21.33008A.99013.99013,0,0,1,115,25Z" style="fill:#6d6daa"/><path d="M95,25a.96089.96089,0,0,1-.71-.2998.97367.97367,0,0,1-.21-1.08008,1.02891,1.02891,0,0,1,.21-.33008,1.04669,1.04669,0,0,1,1.41992,0,1.02891,1.02891,0,0,1,.21.33008,1.00353,1.00353,0,0,1-.21,1.08008,1.01181,1.01181,0,0,1-.33008.21973A.99953.99953,0,0,1,95,25Z" style="fill:#6d6daa"/><path d="M105,26a2,2,0,1,1,2-2A2.00261,2.00261,0,0,1,105,26Zm0-2.002v0Z" style="fill:#6d6daa"/><path d="M105,23.76172a.99942.99942,0,0,1-1-1V17a1,1,0,0,1,2,0v5.76172A.99942.99942,0,0,1,105,23.76172Z" style="fill:#6d6daa"/><path d="M112,25h-5.76172a1,1,0,0,1,0-2H112a1,1,0,0,1,0,2Z" style="fill:#6d6daa"/><path d="M47.70092,45.71655c-7.38529,13.25768-7.709,30.1711-7.45471,47.38416l-10.41843.68551C29.43385,65.69236,36.64362,49.80655,47.70092,45.71655Z" style="fill:#b1f1a8"/><path d="M29.82813,94.78613a1.00021,1.00021,0,0,1-1-.98633c-.5127-36.501,11.3877-46.38086,18.52637-49.02051a.99975.99975,0,0,1,1.2207,1.42383c-7.21582,12.95313-7.585,29.56738-7.3291,46.88281a1.00074,1.00074,0,0,1-.93457,1.0127l-10.418.68555C29.87207,94.78516,29.84961,94.78613,29.82813,94.78613ZM45.459,47.88965c-9.52441,5.63477-14.80566,21.67285-14.64258,44.8291l8.416-.55371C39.01758,76.05469,39.44141,60.57129,45.459,47.88965Z" style="fill:#6d6daa"/><path d="M23.396,53.491c8.2398,12.74419,9.67325,29.59986,10.54969,46.79247h10.441C42.93519,72.22435,34.698,56.84618,23.396,53.491Z" style="fill:#b1f1a8"/><path d="M44.38672,101.2832H33.94531a1.00045,1.00045,0,0,1-.999-.94922c-.88086-17.293-2.33887-33.84668-10.38965-46.2998a1,1,0,0,1,1.124-1.502c7.29688,2.166,19.81934,11.24316,21.70508,47.69922a1.00006,1.00006,0,0,1-.999,1.05176Zm-9.49219-2h8.43555C41.97266,76.165,35.64941,60.50879,25.77637,55.51172,32.61328,67.77246,34.05273,83.19434,34.89453,99.2832Z" style="fill:#6d6daa"/><path d="M51.98258,60.42248c-6.08945,6.18855-9.06753,19.45123-9.04212,25.305l-11.74114-.301C34.751,71.1296,44.30633,60.86154,51.98258,60.42248Z" style="fill:#b1f1a8"/><path d="M42.94043,86.72754H42.915l-11.74121-.30078a1.00069,1.00069,0,0,1-.94531-1.24121c3.86816-15.57031,14.06934-25.3252,21.69727-25.76074a.99967.99967,0,0,1,.76953,1.69922c-5.874,5.9707-8.7793,18.98926-8.75488,24.59961a1.00012,1.00012,0,0,1-1,1.00391ZM32.48633,84.459l9.47754.24316c.252-5.416,2.5293-16.01465,7.39746-22.71094C43.17676,64.18848,35.80371,72.46094,32.48633,84.459Z" style="fill:#6d6daa"/><path d="M56.71235,75.38956c-7.35185,4.31326-9.63778,9.21638-8.36492,17.15112L36.50157,98.01874C37.59175,81.93851,46.80372,74.17386,56.71235,75.38956Z" style="fill:#b1f1a8"/><path d="M36.502,99.01855a1.00024,1.00024,0,0,1-.998-1.06738c.58984-8.69727,3.6416-15.74023,8.59473-19.832A16.38609,16.38609,0,0,1,56.834,74.39746a.9994.9994,0,0,1,.38379,1.85449c-6.88672,4.041-9.09668,8.56348-7.88281,16.13086a.99875.99875,0,0,1-.56738,1.06543l-11.8457,5.47754A.99143.99143,0,0,1,36.502,99.01855ZM53.49219,76.3125a14.42917,14.42917,0,0,0-8.12012,3.34863c-4.20508,3.47363-6.917,9.37207-7.72168,16.72461L47.249,91.94727C46.31152,85.02344,48.16406,80.28125,53.49219,76.3125Z" style="fill:#6d6daa"/><path d="M16.53089,71.29915c8.04923,2.80426,11.24336,7.17045,11.53482,15.20134l12.68386,3.07462C36.559,74.0123,26.01512,68.18334,16.53089,71.29915Z" style="fill:#b1f1a8"/><path d="M40.75,90.5752a.96952.96952,0,0,1-.23535-.02832L27.83008,87.47266a.99849.99849,0,0,1-.76367-.93555c-.27832-7.65918-3.32422-11.666-10.86426-14.29395a1.0002,1.0002,0,0,1,.0166-1.89453,16.41465,16.41465,0,0,1,13.21582,1.17969c5.65234,3.05273,10.01367,9.36914,12.28125,17.78711A1.00022,1.00022,0,0,1,40.75,90.5752ZM29.02832,85.70508l10.27832,2.49121c-2.21777-7.05664-6.02344-12.31641-10.82324-14.9082a14.44013,14.44013,0,0,0-8.61426-1.709C25.86621,74.43848,28.60352,78.73047,29.02832,85.70508Z" style="fill:#6d6daa"/><path d="M21.04312,63.8113c6.98012,5.16309,11.56017,16.13884,12.448,21.9249l10.69-.478C41.81545,71.25271,28.6939,63.04777,21.04312,63.8113Z" style="fill:#b1f1a8"/><path d="M33.49023,86.73633a1,1,0,0,1-.9873-.84863c-.8623-5.62109-5.29-16.26855-12.05469-21.27246a1,1,0,0,1,.49512-1.79883c7.999-.78906,21.75781,7.67676,24.22363,22.27441a1.00051,1.00051,0,0,1-.94141,1.166l-10.68945.47852C33.52051,86.73633,33.50586,86.73633,33.49023,86.73633Zm-9.6416-21.8418c5.64453,5.47754,9.39746,14.35938,10.47461,19.80371l8.65723-.3877C40.55176,73.02637,30.93555,65.9375,23.84863,64.89453Z" style="fill:#6d6daa"/><path d="M54.84557,70.5446c-7.90877,3.17889-10.8945,7.69015-10.80878,15.72588L31.51118,89.93691C34.96685,74.19459,45.22558,67.87727,54.84557,70.5446Z" style="fill:#b1f1a8"/><path d="M31.51074,90.93652a1.00029,1.00029,0,0,1-.97656-1.21484C32.40332,81.208,36.46387,74.69336,41.9668,71.37891a16.40586,16.40586,0,0,1,13.14648-1.79785,1.00037,1.00037,0,0,1,.10547,1.8916c-7.40918,2.97754-10.26367,7.124-10.18164,14.78711a1.00027,1.00027,0,0,1-.71875.9707L31.792,90.89648A1.03,1.03,0,0,1,31.51074,90.93652ZM50.543,70.94727A14.5028,14.5028,0,0,0,42.999,73.0918c-4.67285,2.81445-8.22754,8.24707-10.11133,15.39941l10.15039-2.9707c.09668-6.98633,2.62988-11.40234,8.4873-14.53906C51.19727,70.959,50.86914,70.94727,50.543,70.94727Z" style="fill:#6d6daa"/><path d="M15.113,78.04843c11.06154,3.12321,12.04253,8.02525,9.987,16.26013l12.32083,4.30469C35.74237,81.83249,26.89444,74.01566,15.113,78.04843Z" style="fill:#b1f1a8"/><path d="M37.4209,99.61328a1.00985,1.00985,0,0,1-.33008-.05566L24.76953,95.25293a1.00123,1.00123,0,0,1-.64062-1.18652c1.96484-7.86914,1.07617-12.12891-9.28711-15.05566a.99969.99969,0,0,1-.05273-1.9082c5.18848-1.77539,10.00488-1.38379,13.92578,1.13281,5.36426,3.44336,8.71875,10.45508,9.70117,20.27832a1.00033,1.00033,0,0,1-.99512,1.09961ZM26.28223,93.66211l9.96094,3.48047c-1.0957-8.26367-4.125-14.34668-8.6084-17.22363a12.67245,12.67245,0,0,0-8.94531-1.73145C26.9873,81.458,27.91992,86.47363,26.28223,93.66211Z" style="fill:#6d6daa"/><path d="M44.8488,105.002H27.15214a2,2,0,0,1-1.964-1.62229L23,92.0019H49.00094l-2.18812,11.37781A2,2,0,0,1,44.8488,105.002Z" style="fill:#c9c1f5;fill-rule:evenodd"/><polygon points="31.999 105.003 29.001 105.003 27 92.002 29.999 92.002 31.999 105.003" style="fill:#fff;fill-rule:evenodd;opacity:0.5"/><polygon points="48.424 95.002 49.001 92.002 23 92.002 23.577 95.002 48.424 95.002" style="fill:#554dad;fill-rule:evenodd;opacity:0.30000000000000004"/><rect height="8.0008" style="fill:#c9c1f5" width="30.00108" x="20.99994" y="84.0011"/><rect height="8.0008" style="fill:#fff;opacity:0.5" width="2.9986" x="26.00034" y="84.0011"/><path d="M44.84863,106.002H27.15234a3.00332,3.00332,0,0,1-2.94629-2.43359L22.01758,92.19043A.99994.99994,0,0,1,23,91.002H49.001a.99994.99994,0,0,1,.98242,1.18848l-2.18848,11.37793A3.00332,3.00332,0,0,1,44.84863,106.002Zm-20.6377-13,1.96,10.18945a1.00015,1.00015,0,0,0,.98145.81055H44.84863a1.00015,1.00015,0,0,0,.98145-.81055L47.79,93.002Z" style="fill:#6d6daa"/><path d="M51.001,93.002H21a.99942.99942,0,0,1-1-1V84.001a.99942.99942,0,0,1,1-1H51.001a.99942.99942,0,0,1,1,1v8.001A.99942.99942,0,0,1,51.001,93.002ZM22,91.002H50.001V85.001H22Z" style="fill:#6d6daa"/><rect height="21" style="fill:#e0f3ff" width="5" x="51" y="8.99618"/><path d="M56,30.99609H51a.99942.99942,0,0,1-1-1v-21a.99942.99942,0,0,1,1-1h5a.99942.99942,0,0,1,1,1v21A.99942.99942,0,0,1,56,30.99609Zm-4-2h3v-19H52Z" style="fill:#6d6daa"/><rect height="21" style="fill:#ff968c" width="5" x="41" y="8.99618"/><path d="M46,30.99609H41a.99942.99942,0,0,1-1-1v-21a.99942.99942,0,0,1,1-1h5a.99942.99942,0,0,1,1,1v21A.99942.99942,0,0,1,46,30.99609Zm-4-2h3v-19H42Z" style="fill:#6d6daa"/><rect height="21" style="fill:#ff968c" width="5" x="46" y="8.99618"/><path d="M51,30.99609H46a.99942.99942,0,0,1-1-1v-21a.99942.99942,0,0,1,1-1h5a.99942.99942,0,0,1,1,1v21A.99942.99942,0,0,1,51,30.99609Zm-4-2h3v-19H47Z" style="fill:#6d6daa"/><rect height="21" style="fill:#f2eed5" transform="translate(77 38.99618) rotate(180)" width="5" x="36" y="8.99809"/><path d="M41,30.998H36a.99942.99942,0,0,1-1-1v-21a.99942.99942,0,0,1,1-1h5a.99942.99942,0,0,1,1,1v21A.99942.99942,0,0,1,41,30.998Zm-4-2h3v-19H37Z" style="fill:#6d6daa"/><rect height="6" style="fill:#fffad1" width="56.9995" x="5.0005" y="30"/><path d="M62,37H5.001a.99942.99942,0,0,1-1-1V30a.99942.99942,0,0,1,1-1H62a.99942.99942,0,0,1,1,1v6A.99942.99942,0,0,1,62,37ZM6.001,35H61V31H6.001Z" style="fill:#6d6daa"/><rect height="21" style="fill:#e0f3ff" transform="translate(66.99959 38.99618) rotate(180)" width="4.99959" x="31" y="8.99809"/><path d="M36,30.998H31a.99942.99942,0,0,1-1-1v-21a.99942.99942,0,0,1,1-1h5a.99942.99942,0,0,1,1,1v21A.99942.99942,0,0,1,36,30.998Zm-4-2h3v-19H32Z" style="fill:#6d6daa"/><rect height="12" style="fill:#c9c1f5" width="15" x="11" y="17.99618"/><path d="M26,30.99609H11a.99942.99942,0,0,1-1-1v-12a.99942.99942,0,0,1,1-1H26a.99942.99942,0,0,1,1,1v12A.99942.99942,0,0,1,26,30.99609Zm-14-2H25v-10H12Z" style="fill:#6d6daa"/><rect height="5" style="fill:#c9c1f5" width="17" x="10" y="12.99618"/><path d="M27,18.99609H10a.99942.99942,0,0,1-1-1v-5a.99942.99942,0,0,1,1-1H27a.99942.99942,0,0,1,1,1v5A.99942.99942,0,0,1,27,18.99609Zm-16-2H26v-3H11Z" style="fill:#6d6daa"/><path d="M21,22.99609H16a1,1,0,0,1,0-2h5a1,1,0,0,1,0,2Z" style="fill:#6d6daa"/><g style="opacity:0.5"><path d="M50,13.99512H46a1,1,0,0,1,0-2h4a1,1,0,0,1,0,2Z" style="fill:#6d6daa"/><path d="M50,26.99512H46a1,1,0,0,1,0-2h4a1,1,0,0,1,0,2Z" style="fill:#6d6daa"/></g><g style="opacity:0.5"><path d="M56,13.99512H51.001a1,1,0,0,1,0-2H56a1,1,0,0,1,0,2Z" style="fill:#6d6daa"/><path d="M56,26.99512H51.001a1,1,0,0,1,0-2H56a1,1,0,0,1,0,2Z" style="fill:#6d6daa"/><path d="M56,13.99512H51.001a1,1,0,0,1,0-2H56a1,1,0,0,1,0,2Z" style="fill:#231f20"/><path d="M56,26.99512H51.001a1,1,0,0,1,0-2H56a1,1,0,0,1,0,2Z" style="fill:#231f20"/></g><g style="opacity:0.5"><path d="M46,13.99512H41a1,1,0,0,1,0-2h5a1,1,0,0,1,0,2Z" style="fill:#6d6daa"/><path d="M46,26.99512H41a1,1,0,0,1,0-2h5a1,1,0,0,1,0,2Z" style="fill:#6d6daa"/><path d="M46,13.99512H41a1,1,0,0,1,0-2h5a1,1,0,0,1,0,2Z" style="fill:#231f20"/><path d="M46,26.99512H41a1,1,0,0,1,0-2h5a1,1,0,0,1,0,2Z" style="fill:#231f20"/></g><g style="opacity:0.5"><path d="M36,13.99512H31a1,1,0,0,1,0-2h5a1,1,0,0,1,0,2Z" style="fill:#6d6daa"/><path d="M36,26.99512H31a1,1,0,0,1,0-2h5a1,1,0,0,1,0,2Z" style="fill:#6d6daa"/></g><g style="opacity:0.5"><path d="M41,13.99512H36a1,1,0,0,1,0-2h5a1,1,0,0,1,0,2Z" style="fill:#6d6daa"/><path d="M41,26.99512H36a1,1,0,0,1,0-2h5a1,1,0,0,1,0,2Z" style="fill:#6d6daa"/><path d="M41,13.99512H36a1,1,0,0,1,0-2h5a1,1,0,0,1,0,2Z" style="fill:#231f20"/><path d="M41,26.99512H36a1,1,0,0,1,0-2h5a1,1,0,0,1,0,2Z" style="fill:#231f20"/></g><rect height="21" style="fill:#e0f3ff" width="5" x="108" y="65.99929"/><path d="M113,87.999h-5a.99942.99942,0,0,1-1-1v-21a.99942.99942,0,0,1,1-1h5a.99942.99942,0,0,1,1,1v21A.99942.99942,0,0,1,113,87.999Zm-4-2h3v-19h-3Z" style="fill:#6d6daa"/><rect height="21" style="fill:#ff968c" width="5" x="98" y="65.99929"/><path d="M103,87.999H98a.99942.99942,0,0,1-1-1v-21a.99942.99942,0,0,1,1-1h5a.99942.99942,0,0,1,1,1v21A.99942.99942,0,0,1,103,87.999Zm-4-2h3v-19H99Z" style="fill:#6d6daa"/><rect height="21" style="fill:#ff968c" width="5" x="103" y="65.99929"/><path d="M108,87.999h-5a.99942.99942,0,0,1-1-1v-21a.99942.99942,0,0,1,1-1h5a.99942.99942,0,0,1,1,1v21A.99942.99942,0,0,1,108,87.999Zm-4-2h3v-19h-3Z" style="fill:#6d6daa"/><rect height="21" style="fill:#f2eed5" transform="translate(191 153.00241) rotate(180)" width="5" x="93" y="66.00121"/><path d="M98,88.001H93a.99942.99942,0,0,1-1-1v-21a.99942.99942,0,0,1,1-1h5a.99942.99942,0,0,1,1,1v21A.99942.99942,0,0,1,98,88.001Zm-4-2h3v-19H94Z" style="fill:#6d6daa"/><rect height="21" style="fill:#e0f3ff" transform="translate(180.99959 153.00241) rotate(180)" width="4.99959" x="88" y="66.00121"/><path d="M93,88.001H88a.99942.99942,0,0,1-1-1v-21a.99942.99942,0,0,1,1-1h5a.99942.99942,0,0,1,1,1v21A.99942.99942,0,0,1,93,88.001Zm-4-2h3v-19H89Z" style="fill:#6d6daa"/><g style="opacity:0.5"><path d="M107,70.999h-4a1,1,0,0,1,0-2h4a1,1,0,0,1,0,2Z" style="fill:#6d6daa"/><path d="M107,83.999h-4a1,1,0,0,1,0-2h4a1,1,0,0,1,0,2Z" style="fill:#6d6daa"/></g><g style="opacity:0.5"><path d="M113,70.999h-4.999a1,1,0,0,1,0-2H113a1,1,0,0,1,0,2Z" style="fill:#6d6daa"/><path d="M113,83.999h-4.999a1,1,0,0,1,0-2H113a1,1,0,0,1,0,2Z" style="fill:#6d6daa"/><path d="M113,70.999h-4.999a1,1,0,0,1,0-2H113a1,1,0,0,1,0,2Z" style="fill:#231f20"/><path d="M113,83.999h-4.999a1,1,0,0,1,0-2H113a1,1,0,0,1,0,2Z" style="fill:#231f20"/></g><g style="opacity:0.5"><path d="M103,70.999H98a1,1,0,0,1,0-2h5a1,1,0,0,1,0,2Z" style="fill:#6d6daa"/><path d="M103,83.999H98a1,1,0,0,1,0-2h5a1,1,0,0,1,0,2Z" style="fill:#6d6daa"/><path d="M103,70.999H98a1,1,0,0,1,0-2h5a1,1,0,0,1,0,2Z" style="fill:#231f20"/><path d="M103,83.999H98a1,1,0,0,1,0-2h5a1,1,0,0,1,0,2Z" style="fill:#231f20"/></g><g style="opacity:0.5"><path d="M93,70.999H88a1,1,0,0,1,0-2h5a1,1,0,0,1,0,2Z" style="fill:#6d6daa"/><path d="M93,83.999H88a1,1,0,0,1,0-2h5a1,1,0,0,1,0,2Z" style="fill:#6d6daa"/></g><g style="opacity:0.5"><path d="M98,70.999H93a1,1,0,0,1,0-2h5a1,1,0,0,1,0,2Z" style="fill:#6d6daa"/><path d="M98,83.999H93a1,1,0,0,1,0-2h5a1,1,0,0,1,0,2Z" style="fill:#6d6daa"/><path d="M98,70.999H93a1,1,0,0,1,0-2h5a1,1,0,0,1,0,2Z" style="fill:#231f20"/><path d="M98,83.999H93a1,1,0,0,1,0-2h5a1,1,0,0,1,0,2Z" style="fill:#231f20"/></g></g><path d="M83.24258,104.49759h0A1.58816,1.58816,0,0,1,81.657,103l-1.8185-37.32115a1.58816,1.58816,0,0,1,1.58557-1.67876h3.637a1.58816,1.58816,0,0,1,1.58557,1.67876L84.82816,103A1.58816,1.58816,0,0,1,83.24258,104.49759Z" style="fill:#ced8ee"/><polygon points="80.828 83 85.657 83 85.943 78.001 80.543 78.001 80.828 83" style="fill:#7690a8;opacity:0.30000000000000004"/><path d="M81.4241,64.00009a1.58817,1.58817,0,0,0-1.58557,1.67877L81.657,103a1.58814,1.58814,0,0,0,1.58557,1.49756V64.00009Z" style="fill:#fff;opacity:0.5"/><path d="M83.24219,105.498a2.58844,2.58844,0,0,1-2.583-2.44141l-1.81934-37.3291A2.58784,2.58784,0,0,1,81.42383,63h3.6377a2.58706,2.58706,0,0,1,2.583,2.73535l-1.81738,37.31348A2.592,2.592,0,0,1,83.24219,105.498ZM81.42383,65a.58781.58781,0,0,0-.58691.62109l1.81934,37.33008a.58811.58811,0,0,0,1.17383-.00781l1.81738-37.31348a.59206.59206,0,0,0-.15918-.44629A.58611.58611,0,0,0,85.06152,65Z" style="fill:#6d6daa"/><path d="M64.28074,104.97623h0a1.55019,1.55019,0,0,1-1.27032-1.70829l3.64595-28.39666a1.55019,1.55019,0,0,1,1.80869-1.345l3.4961.61646a1.55019,1.55019,0,0,1,1.23961,1.88248l-7.142,27.7802A1.55019,1.55019,0,0,1,64.28074,104.97623Z" style="fill:#d4edff"/><path d="M70.12055,73.81818l-1.65546-.29187a1.5502,1.5502,0,0,0-1.80872,1.345l-3.64594,28.39667a1.55014,1.55014,0,0,0,1.27032,1.70825Z" style="fill:#fff"/><polygon points="65.638 83 71.437 83 72.617 78.001 66.228 78.001 65.638 83" style="fill:#7690a8;opacity:0.30000000000000004"/><path d="M64.55078,106a2.55454,2.55454,0,0,1-.44434-.03906h0a2.55045,2.55045,0,0,1-2.08887-2.81055l3.64648-28.40625A2.55141,2.55141,0,0,1,68.6377,72.541l3.49707.61719a2.55106,2.55106,0,0,1,2.04,3.09668l-7.14746,27.7998A2.54618,2.54618,0,0,1,64.55078,106Zm-.09668-2.00781a.55057.55057,0,0,0,.63086-.416l7.14746-27.7998a.53284.53284,0,0,0-.08105-.40918.54834.54834,0,0,0-.36426-.24023L68.291,74.51074a.55916.55916,0,0,0-.42383.10059.55016.55016,0,0,0-.21777.377l-3.64648,28.40625a.54833.54833,0,0,0,.45117.59766Z" style="fill:#6d6daa"/><path d="M102.20442,104.97623h0a1.55019,1.55019,0,0,0,1.27032-1.70829L99.8288,74.87128a1.55019,1.55019,0,0,0-1.80869-1.345l-3.4961.61646a1.55019,1.55019,0,0,0-1.23961,1.88248l7.142,27.7802A1.55019,1.55019,0,0,0,102.20442,104.97623Z" style="fill:#d4edff"/><path d="M103.47479,103.26794l-3.646-28.39667a1.55012,1.55012,0,0,0-1.80865-1.345l-1.72552.30426,5.90985,31.14563A1.55024,1.55024,0,0,0,103.47479,103.26794Z" style="fill:#fff"/><polygon points="95.048 83 100.847 83 100.257 78.001 93.869 78.001 95.048 83" style="fill:#7690a8;opacity:0.30000000000000004"/><path d="M101.93359,106a2.55328,2.55328,0,0,1-2.48047-1.96484l-7.1377-27.76074a2.55075,2.55075,0,0,1,2.03516-3.11621l3.49609-.61621a2.54983,2.54983,0,0,1,2.97559,2.21191l3.64453,28.38672a2.55294,2.55294,0,0,1-2.08887,2.82031h0A2.55454,2.55454,0,0,1,101.93359,106ZM98.292,74.50293a.5.5,0,0,0-.09863.00879l-3.49512.61523a.55189.55189,0,0,0-.44043.66895l7.1377,27.76074a.55553.55553,0,0,0,.63477.43555h0a.55151.55151,0,0,0,.45117-.60742L98.83691,74.998a.54887.54887,0,0,0-.54492-.49512Z" style="fill:#6d6daa"/><path d="M83.24219,31a.99942.99942,0,0,1-1-1V27a1,1,0,0,1,2,0v3A.99942.99942,0,0,1,83.24219,31Z" style="fill:#6d6daa"/><path d="M119,31H47a1,1,0,0,1,0-2h72a1,1,0,0,1,0,2Z" style="fill:#6d6daa"/><rect height="12.00127" style="fill:#eef6ff" width="68.00019" x="48.99961" y="67"/><path d="M117,80.001H49a.99942.99942,0,0,1-1-1V67a.99942.99942,0,0,1,1-1h68a.99942.99942,0,0,1,1,1V79.001A.99942.99942,0,0,1,117,80.001Zm-67-2h66V68H50Z" style="fill:#6d6daa"/><polygon points="49 34 49 75 109 75.001 117 67 117 34 49 34" style="fill:#fff"/><rect height="3" style="fill:#7690a8;opacity:0.30000000000000004" width="68.00039" x="48.99961" y="36.00009"/><path d="M109,76.001,49,76a.99942.99942,0,0,1-1-1V34a.99942.99942,0,0,1,1-1h68a.99942.99942,0,0,1,1,1V67a.99928.99928,0,0,1-.293.707l-8,8.001A.99928.99928,0,0,1,109,76.001ZM50,74l58.58594.001L116,66.58594V35H50Z" style="fill:#6d6daa"/><polygon points="109 75.001 109 67.001 117 67.001 109 75.001" style="fill:#eef6ff"/><path d="M109,76.001a1,1,0,0,1-1-1v-8a.99942.99942,0,0,1,1-1h8a.99991.99991,0,0,1,.707,1.707l-8,8A.99978.99978,0,0,1,109,76.001Zm1-8v4.58594l4.58594-4.58594Z" style="fill:#6d6daa"/><path d="M116,36H49.99961a2,2,0,0,1-2-2V30H118v4A2,2,0,0,1,116,36Z" style="fill:#939fc6"/><rect height="3" style="fill:#fff;opacity:0.30000000000000004" width="70.00039" x="47.99961" y="30"/><path d="M116,37H50a3.00328,3.00328,0,0,1-3-3V30a.99942.99942,0,0,1,1-1h70a.99942.99942,0,0,1,1,1v4A3.00328,3.00328,0,0,1,116,37ZM49,31v3a1.00068,1.00068,0,0,0,1,1h66a1.00068,1.00068,0,0,0,1-1V31Z" style="fill:#6d6daa"/><g style="opacity:0.25"><path d="M82,64H56a1,1,0,0,1,0-2H82a1,1,0,0,1,0,2Z" style="fill:#6d6daa"/><path d="M82,58H56a1,1,0,0,1,0-2H82a1,1,0,0,1,0,2Z" style="fill:#6d6daa"/><path d="M82,52H56a1,1,0,0,1,0-2H82a1,1,0,0,1,0,2Z" style="fill:#6d6daa"/></g><rect height="18.00119" style="fill:#96d7ff" width="6" x="55.99961" y="51"/><rect height="12.00119" style="fill:#fff27d" width="6" x="65.99961" y="57"/><path d="M72,70.001H66a.99942.99942,0,0,1-1-1V57a.99942.99942,0,0,1,1-1h6a.99942.99942,0,0,1,1,1V69.001A.99942.99942,0,0,1,72,70.001Zm-5-2h4V58H67Z" style="fill:#6d6daa"/><rect height="24.00119" style="fill:#b1f1a8" width="6" x="75.99961" y="45"/><path d="M82,70.001H56.5a1,1,0,0,1,0-2H82a1,1,0,0,1,0,2Z" style="fill:#6d6daa"/><path d="M96.99961,49.00119a9,9,0,1,0,9,9h-9Z" style="fill:#ff99b1"/><path d="M97,68.001a10,10,0,0,1,0-20,.99942.99942,0,0,1,1,1v8h8a.99942.99942,0,0,1,1,1A10.01177,10.01177,0,0,1,97,68.001Zm-1-17.9375a8.00013,8.00013,0,1,0,8.9375,8.9375H97a.99942.99942,0,0,1-1-1Z" style="fill:#6d6daa"/><path d="M100.99961,45.00119v9h9A8.99989,8.99989,0,0,0,100.99961,45.00119Z" style="fill:#96d7ff"/><path d="M110,55.001h-9a.99942.99942,0,0,1-1-1v-9a.99942.99942,0,0,1,1-1,10.01177,10.01177,0,0,1,10,10A.99942.99942,0,0,1,110,55.001Zm-8-2h6.9375A8.01545,8.01545,0,0,0,102,46.06348Z" style="fill:#6d6daa"/><path d="M62,70.001H56a.99942.99942,0,0,1-1-1V55a1,1,0,0,1,2,0V68.001h4V53a1,1,0,0,1,2,0V69.001A.99942.99942,0,0,1,62,70.001Z" style="fill:#6d6daa"/><path d="M82,70.001H76a.99942.99942,0,0,1-1-1V49a1,1,0,0,1,2,0V68.001h4V46H80a1,1,0,0,1,0-2h2a.99942.99942,0,0,1,1,1V69.001A.99942.99942,0,0,1,82,70.001Z" style="fill:#6d6daa"/><line style="fill:#d6b5b0" x1="61" x2="75.99961" y1="47" y2="45"/><path d="M60.999,48a1,1,0,0,1-.13086-1.99121l15-2a.99994.99994,0,1,1,.26367,1.98242l-15,2A1.02236,1.02236,0,0,1,60.999,48Z" style="fill:#6d6daa"/><path d="M34.99988,69l-17.18557.89788v2.86548H13.0394L11.78428,62.18974a7.03892,7.03892,0,0,1,0-1.7766l.92088-7.744a4.99252,4.99252,0,0,1,2.824-3.97585l4.95227-2.27089c.50478,1.64049,2.9468,3.02308,5.498,3.02308S31.27694,46.64765,32,45l2,2H61c1.51433.71637-2.00039,4-3,4H53c.075.58742-14.925,1.41258-15,2l-3,1Z" style="fill:#fff"/><path d="M61,47H55v4h3C58.99963,51,62.51434,47.71631,61,47Z" style="fill:#f9e2dc"/><polygon points="16.948 72.763 13.001 72.763 12.635 69.182 16.948 69.182 16.948 72.763" style="fill:#fff"/><path d="M12.99988,73h4a0,0,0,0,1,0,0v5.6a0,0,0,0,1,0,0h-.63736a3.36264,3.36264,0,0,1-3.36264-3.36264V73A0,0,0,0,1,12.99988,73Z" style="fill:#f9e2dc"/><path d="M17,79.59961h-.6377A4.36739,4.36739,0,0,1,12,75.2373V73a.99942.99942,0,0,1,1-1h4a.99942.99942,0,0,1,1,1v5.59961A.99942.99942,0,0,1,17,79.59961ZM14,74v1.2373a2.36653,2.36653,0,0,0,2,2.335V74Z" style="fill:#6d6daa"/><path d="M35,70.89746a.99942.99942,0,0,1-1-1V54a1,1,0,0,1,2,0V69.89746A.99942.99942,0,0,1,35,70.89746Z" style="fill:#6d6daa"/><path d="M17,70.89746a.99942.99942,0,0,1-1-1V57.41406A4.38489,4.38489,0,0,1,17.293,54.293.99989.99989,0,0,1,18.707,55.707a2.39856,2.39856,0,0,0-.707,1.707v12.4834A.99942.99942,0,0,1,17,70.89746Z" style="fill:#6d6daa"/><path d="M17.81445,74H13.03906a1.00016,1.00016,0,0,1-.99316-.88477L10.791,62.30469a7.97949,7.97949,0,0,1,.001-2.01855l.91992-7.73535a6.0153,6.0153,0,0,1,3.39941-4.76562l4.95313-2.27148.4375.90137.35645.93457-.02051.00781-4.8916,2.24512a4.00338,4.00338,0,0,0-2.248,3.18262l-.9209,7.74609a5.99732,5.99732,0,0,0-.001,1.53125L13.92969,72h3.88477a1,1,0,0,1,0,2Z" style="fill:#6d6daa"/><polygon points="17 104 24 104 24 77 28 77 28 104 35 104 35 69 17 69 17 104" style="fill:#939fc6"/><path d="M35,105H28a.99942.99942,0,0,1-1-1V78H25v26a.99942.99942,0,0,1-1,1H17a.99942.99942,0,0,1-1-1V69a.99942.99942,0,0,1,1-1H35a.99942.99942,0,0,1,1,1v35A.99942.99942,0,0,1,35,105Zm-6-2h5V70H18v33h5V77a.99942.99942,0,0,1,1-1h4a.99942.99942,0,0,1,1,1Z" style="fill:#6d6daa"/><path d="M17,76a1,1,0,0,1-.707-1.707l6-6A.99989.99989,0,0,1,23.707,69.707l-6,6A.99676.99676,0,0,1,17,76Z" style="fill:#6d6daa"/><path d="M34.9248,76a.99914.99914,0,0,1-.71191-.29785l-5.9248-6a.99992.99992,0,0,1,1.42383-1.4043l5.9248,6A1,1,0,0,1,34.9248,76Z" style="fill:#6d6daa"/><path d="M17,70H13.2334a1,1,0,0,1,0-2H17a1,1,0,0,1,0,2Z" style="fill:#6d6daa"/><path d="M11.8457,62.30176a1,1,0,0,1-.33691-1.94141l1.7168-.61426a.99988.99988,0,1,1,.67383,1.88281l-1.7168.61426A.99129.99129,0,0,1,11.8457,62.30176Z" style="fill:#6d6daa"/><polygon points="32.499 48.872 19.547 48.872 19.612 44.419 32.418 44.419 32.499 48.872" style="fill:#ced8ee"/><path d="M32.499,49.87207H19.54688a1.00038,1.00038,0,0,1-1-1.01465l.06445-4.45312a.99953.99953,0,0,1,1-.98535H32.418a1,1,0,0,1,1,.98145l.08105,4.45313a1.00043,1.00043,0,0,1-1,1.01855Zm-11.9375-2H31.48047l-.04492-2.45312H20.59668Z" style="fill:#6d6daa"/><path d="M30.72491,43.84177a2.13447,2.13447,0,0,0,.965,2.651c-.74692,1.619-3.64286,2.42857-5.66667,3.00334-2.02381-.57477-5.14807-1.39643-5.66667-3.00334a2.09131,2.09131,0,0,0,.95262-2.651Z" style="fill:#efdcd2"/><polygon points="29.666 48.922 26.978 48.922 26.023 49.496 25.035 48.922 22.38 48.922 22.38 51.35 29.666 51.35 29.666 48.922" style="fill:#4e4e96;opacity:0.30000000000000004"/><path d="M30.72492,43.84177H21.30916a1.34087,1.34087,0,0,1,.00763,1.3346l.58476.49157a4.85438,4.85438,0,0,0,3.11027,1.083H27.0346a4.85438,4.85438,0,0,0,3.11027-1.083l.59049-.49638A1.33229,1.33229,0,0,1,30.72492,43.84177Z" style="fill:#cc7e54;opacity:0.30000000000000004"/><path d="M26.02344,50.49609a.99945.99945,0,0,1-.46777-.11621l-5.667-3.00293a.99963.99963,0,0,1-.04687-1.74121c.09473-.05664.918-.58008.55566-1.38281a1.00049,1.00049,0,0,1,1.82422-.82227,2.86775,2.86775,0,0,1-.2041,2.81055l4.00586,2.123L30.043,46.23438a2.83713,2.83713,0,0,1-.23437-2.793.9997.9997,0,1,1,1.832.80078c-.31055.71191.31738,1.22852.60254,1.418a1.00039,1.00039,0,0,1-.085,1.7168l-5.666,3.00293A1.00621,1.00621,0,0,1,26.02344,50.49609Z" style="fill:#6d6daa"/><path d="M21.19109,50.7638l-3.66787-3.05656,2.02381-3.2381,4.85714,4.04762-1.20333,1.92532A1.35048,1.35048,0,0,1,21.19109,50.7638Z" style="fill:#eff7ff"/><path d="M30.85534,50.7638l3.66787-3.05656-2.02381-3.2381-4.85714,4.04762,1.20333,1.92532A1.35048,1.35048,0,0,0,30.85534,50.7638Z" style="fill:#eff7ff"/><polygon points="19.547 46.088 23.739 49.581 24.404 48.517 19.547 44.469 17.523 47.707 18.189 48.262 19.547 46.088" style="fill:#fff;opacity:0.30000000000000004"/><polygon points="32.483 46.088 33.842 48.262 34.507 47.707 32.483 44.469 27.626 48.517 28.291 49.581 32.483 46.088" style="fill:#fff;opacity:0.30000000000000004"/><path d="M22.05566,52.07715a2.35193,2.35193,0,0,1-1.50488-.54492l-3.668-3.05664a1.00012,1.00012,0,0,1-.207-1.29883l2.02344-3.23828a1.00077,1.00077,0,0,1,1.48828-.23828L25.04492,47.748a1.00012,1.00012,0,0,1,.207,1.29883l-1.20312,1.92578a2.35258,2.35258,0,0,1-1.62207,1.0752A2.38524,2.38524,0,0,1,22.05566,52.07715ZM18.834,47.49707l2.998,2.498v.001a.33951.33951,0,0,0,.2793.07617.34454.34454,0,0,0,.24219-.16016l.74023-1.18555L19.78711,45.9707Z" style="fill:#6d6daa"/><path d="M29.97461,52.07715a2.38524,2.38524,0,0,1-.37109-.0293,2.35258,2.35258,0,0,1-1.62207-1.0752l-1.20312-1.92578a1.00012,1.00012,0,0,1,.207-1.29883l4.85742-4.04785a1.00077,1.00077,0,0,1,1.48828.23828l2.02344,3.23828a1.00012,1.00012,0,0,1-.207,1.29883l-3.668,3.05664A2.35193,2.35193,0,0,1,29.97461,52.07715Zm-1.03809-3.35059.74023,1.18555a.34454.34454,0,0,0,.24219.16016.33885.33885,0,0,0,.2793-.07617v-.001l2.998-2.498-.95312-1.52637Z" style="fill:#6d6daa"/><polygon points="23.417 50.498 25.182 53.131 26.864 53.131 28.598 50.472 27.704 48.922 24.341 48.922 23.417 50.498" style="fill:#939fc6"/><polygon points="28.823 62.675 26.864 53.131 25.182 53.131 23.222 62.675 26.007 65.47 28.823 62.675" style="fill:#939fc6"/><path d="M26.00684,66.46973a.99428.99428,0,0,1-.708-.29395l-2.78418-2.79492a.99981.99981,0,0,1-.27148-.90723l1.959-9.54395a1.00039,1.00039,0,0,1,.97949-.79883h1.68164a1.00039,1.00039,0,0,1,.97949.79883l1.96,9.54395a.99762.99762,0,0,1-.27539.91113l-2.81641,2.79492A.99521.99521,0,0,1,26.00684,66.46973Zm-1.69629-4.12012,1.7002,1.707,1.72363-1.71094-1.7373-8.21484Z" style="fill:#6d6daa"/><path d="M26.86328,54.13086H25.18164a1.00171,1.00171,0,0,1-.83105-.44336l-1.76465-2.63281a1.0008,1.0008,0,0,1-.03125-1.0625l.9248-1.57617a.999.999,0,0,1,.8623-.49414h3.3623a.99872.99872,0,0,1,.86621.501l.89355,1.5498a.99894.99894,0,0,1-.02832,1.04492l-1.73437,2.65918A1.0005,1.0005,0,0,1,26.86328,54.13086Zm-1.14844-2h.60645l1.10352-1.69141-.29883-.51758H24.91406l-.31738.541Z" style="fill:#6d6daa"/><path d="M19.69878,99.90909h.6022a3.6989,3.6989,0,0,1,3.6989,3.6989V105a0,0,0,0,1,0,0H16.67241a.67253.67253,0,0,1-.67253-.67253V103.608A3.6989,3.6989,0,0,1,19.69878,99.90909Z" style="fill:#9eb2cc"/><path d="M24,106H16.67285A1.67418,1.67418,0,0,1,15,104.32715v-.71875a4.705,4.705,0,0,1,4.69922-4.69922h.60156A4.705,4.705,0,0,1,25,103.6084V105A.99942.99942,0,0,1,24,106Zm-7-2h6v-.3916a2.70237,2.70237,0,0,0-2.69922-2.69922h-.60156A2.70237,2.70237,0,0,0,17,103.6084Z" style="fill:#6d6daa"/><path d="M31.69878,99.90909h.6022a3.6989,3.6989,0,0,1,3.6989,3.6989v.71948A.67253.67253,0,0,1,35.32735,105H27.99988a0,0,0,0,1,0,0v-1.392a3.6989,3.6989,0,0,1,3.6989-3.6989Z" style="fill:#9eb2cc"/><path d="M35.32715,106H28a.99942.99942,0,0,1-1-1v-1.3916a4.705,4.705,0,0,1,4.69922-4.69922h.60156A4.705,4.705,0,0,1,37,103.6084v.71875A1.67418,1.67418,0,0,1,35.32715,106ZM29,104h6v-.3916a2.70237,2.70237,0,0,0-2.69922-2.69922h-.60156A2.70237,2.70237,0,0,0,29,103.6084Z" style="fill:#6d6daa"/><path d="M27.10431,45H24.89546a4.30322,4.30322,0,0,1-3.0276-1.2418L19.254,41.16989a4.21887,4.21887,0,0,1-1.25408-2.998V30.83246c0-6.17755,16-6.17764,16-.00009v7.33952a4.21887,4.21887,0,0,1-1.25408,2.998L30.13191,43.7582A4.30322,4.30322,0,0,1,27.10431,45Z" style="fill:#f9e2dc"/><path d="M30.1319,40.95914a4.30328,4.30328,0,0,1-3.02761,1.24175H24.89547a4.30335,4.30335,0,0,1-3.02761-1.24175L19.254,38.37078a4.219,4.219,0,0,1-1.25408-2.998v2.79911a4.219,4.219,0,0,0,1.25408,2.998l2.61389,2.58836A4.30335,4.30335,0,0,0,24.89547,45H27.1043a4.30328,4.30328,0,0,0,3.02761-1.24175l2.61389-2.58836a4.219,4.219,0,0,0,1.25408-2.998V35.37282a4.219,4.219,0,0,1-1.25408,2.998Z" style="fill:#cc7e54;opacity:0.30000000000000004"/><path d="M33.903,33.69135l0-3.1765c0-5.754-15.84579-5.754-15.84579,0l0,2.90786c.71872-.83576,1.88071-1.48609,2.27085-2.65654,4.49893,2.09823,9.04524.23879,11.97042.77607A2.35456,2.35456,0,0,1,33.903,33.69135Z" style="fill:#cc7e54;opacity:0.30000000000000004"/><path d="M27.10449,46h-2.209a5.26282,5.26282,0,0,1-3.73145-1.53223l-2.61328-2.58691A5.25612,5.25612,0,0,1,17,38.17188V30.832c0-3.87012,4.665-5.63281,9-5.63281s9,1.7627,9,5.63281v7.33984a5.25928,5.25928,0,0,1-1.5498,3.709L30.835,44.46875A5.262,5.262,0,0,1,27.10449,46ZM26,27.19922c-3.47852,0-7,1.248-7,3.63281v7.33984a3.237,3.237,0,0,0,.958,2.28711l2.61328,2.58789A3.27679,3.27679,0,0,0,24.89551,44h2.209a3.276,3.276,0,0,0,2.32324-.95215L32.043,40.459A3.2401,3.2401,0,0,0,33,38.17188V30.832a2.9793,2.9793,0,0,0-1.958-2.585A11.45833,11.45833,0,0,0,26,27.19922Z" style="fill:#6d6daa"/><path d="M31.17987,23.957c2.30217,1.06495,4.25827,2.24559,4.26061,5.5238a11.38393,11.38393,0,0,1-.25269,2.27934c-.14506.71-1.18005.39015-1.18005.39015s-.04027-1.9054-1.40233-2.45133c-3.52271-1.412-9.25367,1.06548-13.13-1.56121a3.56465,3.56465,0,0,1-1.17045,2.8421s-1.36067-.00493-1.44684-.78045c-.39015-3.51134,1.05669-5.07194,2.61729-4.68179C23.37689,21.61614,29.795,23.31641,31.17987,23.957Z" style="fill:#d6b5b0"/><path d="M19.4754,27.44777c3.90149-3.90149,10.31959-2.20123,11.70447-1.5606,2.069.95708,4.01953,1.56763,4.26061,4.15015.29666-3.70475-1.8328-4.95723-4.26061-6.08029-1.38488-.64064-7.803-2.34089-11.70447,1.5606-1.48411-.371-2.88876,1.026-2.66053,4.18346C16.99251,27.60192,18.25,27.14142,19.4754,27.44777Z" style="fill:#fff;opacity:0.30000000000000004"/><path d="M34.49316,33.22363a2.7623,2.7623,0,0,1-.78027-.11719,1.00128,1.00128,0,0,1-.70312-.89258,2.29467,2.29467,0,0,0-.89941-1.64551c-.98828-.56445-2.67383-.44141-4.458-.30859-2.30273.17285-4.90039.3623-7.36914-.667a5.168,5.168,0,0,1-1.19238,2.00586,1.07565,1.07565,0,0,1-.79.38086c-1.12109-.00391-2.30859-.52246-2.43652-1.66992-.26074-2.3457.21191-4.17773,1.333-5.15723a2.67161,2.67161,0,0,1,1.94043-.69141c4.21094-3.77637,10.36914-2.33008,12.44336-1.41992h0c2.209.96777,4.75684,2.57227,4.85938,6.41406A11.03594,11.03594,0,0,1,36.167,31.96a1.51709,1.51709,0,0,1-.71582,1.02051A1.85808,1.85808,0,0,1,34.49316,33.22363Zm-4.6416-5.07617a6.46573,6.46573,0,0,1,3.249.68262A3.50913,3.50913,0,0,1,34.418,30.18262a6.05812,6.05812,0,0,0,.02246-.6748c-.06738-2.54395-1.5127-3.69238-3.66211-4.63477h0c-1.667-.73242-7.19336-2.05176-10.5957,1.35156a.99611.99611,0,0,1-.94922.2627.75089.75089,0,0,0-.71973.1709c-.44434.38867-.84766,1.44141-.68066,3.24414.01563.00586.0332.01074.05078.01563a2.364,2.364,0,0,0,.5293-1.10156,1.67,1.67,0,0,1,2.35547-1.19629c2.10156.98926,4.458.81348,6.73633.64551C28.31055,28.20605,29.09961,28.14746,29.85156,28.14746Z" style="fill:#6d6daa"/><path d="M27.123,39a1.834,1.834,0,0,1-1.1377-.48926,1.00028,1.00028,0,0,1,1.14453-1.625,1.0161,1.0161,0,0,1,1.19043.22754.98187.98187,0,0,1-.06055,1.39746A1.83358,1.83358,0,0,1,27.123,39Z" style="fill:#6d6daa"/><path d="M27.04395,42a3.5869,3.5869,0,0,1-2.08789-.52734,1.034,1.034,0,0,1-.48535-1.3584.9698.9698,0,0,1,1.30762-.47266c.06738.0332.1377.07422.21582.12207A1.685,1.685,0,0,0,27.04395,40a1.91581,1.91581,0,0,0,1.09863-.22852,1.00029,1.00029,0,1,1,1.28516,1.5332A3.58594,3.58594,0,0,1,27.04395,42Z" style="fill:#6d6daa"/><path d="M23.12012,36.3584A1.3584,1.3584,0,1,1,24.47852,35,1.35994,1.35994,0,0,1,23.12012,36.3584Zm0-2a.6416.6416,0,1,0,.6416.6416A.64267.64267,0,0,0,23.12012,34.3584Z" style="fill:#6d6daa"/><path d="M31,36.3584A1.3584,1.3584,0,1,1,32.3584,35,1.35994,1.35994,0,0,1,31,36.3584Zm0-2A.6416.6416,0,1,0,31.6416,35,.64267.64267,0,0,0,31,34.3584Z" style="fill:#6d6daa"/><circle cx="23.11993" cy="35" r="1" style="fill:#6d6daa"/><circle cx="31" cy="35" r="1" style="fill:#6d6daa"/><path d="M35,55a.99986.99986,0,0,1-.31641-1.94824l3-1a.99341.99341,0,0,1,.18457-.043l15-2A.99646.99646,0,0,1,53,50h4.15137a2.85465,2.85465,0,0,0,2.71973-2H34a1,1,0,0,1,0-2H61a.99942.99942,0,0,1,1,1v.15137A4.85376,4.85376,0,0,1,57.15137,52h-4.085L38.22656,53.97852l-2.91016.96973A.99832.99832,0,0,1,35,55Z" style="fill:#6d6daa"/><path d="M55,52a.99942.99942,0,0,1-1-1V47a1,1,0,0,1,2,0v4A.99942.99942,0,0,1,55,52Z" style="fill:#6d6daa"/><path d="M51,52a.99942.99942,0,0,1-1-1V47a1,1,0,0,1,2,0v4A.99942.99942,0,0,1,51,52Z" style="fill:#6d6daa"/></svg>