<?xml version="1.0" ?><svg data-name="011" id="_011" viewBox="0 0 128 128" xmlns="http://www.w3.org/2000/svg" xmlns:xlink="http://www.w3.org/1999/xlink"><defs><style>.cls-1{fill:none;}.cls-11,.cls-15,.cls-2,.cls-22{opacity:0.3;}.cls-3{fill:#c7bff3;}.cls-4{fill:#94d5ff;}.cls-5{clip-path:url(#clip-path);}.cls-6{fill:#eddad0;}.cls-7{fill:#afefa6;}.cls-8{fill:#6d6da8;}.cls-9{fill:#d4b3ae;}.cls-10{fill:#f7e0da;}.cls-11,.cls-18{fill:#ff9595;}.cls-12{clip-path:url(#clip-path-2);}.cls-13{fill:#ffd397;}.cls-14{clip-path:url(#clip-path-3);}.cls-15{fill:#ca7e54;}.cls-16{fill:#fcd9bf;}.cls-17,.cls-20,.cls-22{fill:#fff;}.cls-19{fill:#919dc4;}.cls-20{opacity:0.5;}.cls-21{fill:#1c4188;opacity:0.2;}.cls-23{fill:#6d6daa;}.cls-24{fill:#1c64b8;}.cls-25{opacity:0.3;}.cls-26{fill:#48ba33;}</style><clipPath id="clip-path"><path class="cls-1" d="M118.85,35.65a14.85,14.85,0,1,1-29.7,0c0-8.2,6.65-17.15,14.85-17.15S118.85,27.45,118.85,35.65Z"/></clipPath><clipPath id="clip-path-2"><path class="cls-1" d="M125,109c0,7.17-6.27,13-14,13s-14-5.82-14-13,6.27-15,14-15S125,101.83,125,109Z"/></clipPath><clipPath id="clip-path-3"><path class="cls-1" d="M37.85,19.65a14.85,14.85,0,0,1-29.7,0C8.15,11.45,14.8,2.5,23,2.5S37.85,11.45,37.85,19.65Z"/></clipPath></defs><title/><g class="cls-2"><path class="cls-3" d="M64.09,11.65a45.88,45.88,0,0,0-41.33,8.74C4.59,35.23-2.42,61.85,10.59,81.38,19.5,94.75,8,94.93,15.88,113.24c5.2,12.1,26,13.67,35.87,10,11.08-4.1,11.1-12.82,22.52-10.51,10.65,2.16,4.25,10.84,21.71,10.84s19.49-27.13,18.92-40.76a26.93,26.93,0,0,0-.53-4.36c-2.19-10.77-1.17-22.06,3.84-31.84A24.52,24.52,0,0,0,89.7,11.84,47.5,47.5,0,0,1,64.09,11.65Z"/><circle class="cls-4" cx="104" cy="36" r="14"/><g class="cls-5"><path class="cls-6" d="M109.37,39.84h0c-.46,1.45-2.62,2.54-5.22,2.54s-4.76-1.09-5.21-2.54h0a8.06,8.06,0,0,1,1.17-.6,1.51,1.51,0,0,0,.84-1.34,1.75,1.75,0,0,0-.13-.65,6.5,6.5,0,0,0,6.67,0,1.52,1.52,0,0,0,.71,2A7.68,7.68,0,0,1,109.37,39.84Z"/><path class="cls-7" d="M110.22,51.56H94.6V47.5a8.94,8.94,0,0,1,4.33-7.66h0c.45,1.45,2.61,2.54,5.21,2.54s4.76-1.09,5.22-2.54h0a9,9,0,0,1,4.32,7.66v4.06Z"/><path class="cls-8" d="M94.6,52.56a1,1,0,0,1-1-1V47.5a10,10,0,0,1,6.11-9.18h0a.52.52,0,0,0,.23-.42.54.54,0,0,0-.06-.23,1,1,0,0,1,.56-1.3,1,1,0,0,1,1.3.56,2.48,2.48,0,0,1,.2,1,2.52,2.52,0,0,1-1.4,2.24,7.4,7.4,0,0,0-1.09.55A8,8,0,0,0,95.6,47.5v4.06A1,1,0,0,1,94.6,52.56Z"/><path class="cls-8" d="M113.69,52.56a1,1,0,0,1-1-1V47.5a7.93,7.93,0,0,0-1.33-4.41,8,8,0,0,0-2.5-2.39,10.4,10.4,0,0,0-1-.54,2.46,2.46,0,0,1-1.27-3.22,1,1,0,0,1,1.87.72.47.47,0,0,0,.22.68,8.39,8.39,0,0,1,1.26.65,9.93,9.93,0,0,1,4.8,8.51v4.06A1,1,0,0,1,113.69,52.56Z"/><path class="cls-8" d="M98.07,52.56a1,1,0,0,1-1-1v-4a5.33,5.33,0,0,1,.76-3.15,1,1,0,0,1,1.39-.24,1,1,0,0,1,.25,1.4,3.57,3.57,0,0,0-.4,2v4A1,1,0,0,1,98.07,52.56Z"/><path class="cls-8" d="M110.22,52.56a1,1,0,0,1-1-1v-4a3.63,3.63,0,0,0-.4-2,1,1,0,0,1,1.64-1.14,5.3,5.3,0,0,1,.76,3.14v4A1,1,0,0,1,110.22,52.56Z"/><path class="cls-8" d="M104.15,43.39a1.13,1.13,0,0,1-.44-.1L98.5,40.75A1,1,0,0,1,99.37,39l4.78,2.31L108.93,39a1,1,0,1,1,.87,1.79l-5.21,2.54A1.13,1.13,0,0,1,104.15,43.39Z"/><path class="cls-7" d="M100.78,43.13l-3-2.17a.65.65,0,0,1,0-1.05L99.6,38.5l4.54,3.24-1.83,1.38A1.29,1.29,0,0,1,100.78,43.13Z"/><path class="cls-7" d="M107.51,43.13l3-2.17a.65.65,0,0,0,0-1.05l-1.88-1.41-4.55,3.24L106,43.12A1.29,1.29,0,0,0,107.51,43.13Z"/><path class="cls-8" d="M101.53,44.38a2.3,2.3,0,0,1-1.34-.43h0l-3-2.18a1.65,1.65,0,0,1,0-2.66L99,37.7a1,1,0,0,1,1.18,0l4.55,3.25a1,1,0,0,1,0,1.61l-1.83,1.38A2.36,2.36,0,0,1,101.53,44.38Zm-.17-2.06a.3.3,0,0,0,.35,0l.74-.56-2.83-2-.92.69Z"/><path class="cls-8" d="M106.76,44.38a2.33,2.33,0,0,1-1.38-.46l-1.84-1.38a1,1,0,0,1-.4-.81,1,1,0,0,1,.42-.8l4.55-3.25a1,1,0,0,1,1.18,0l1.88,1.41a1.66,1.66,0,0,1,.66,1.34,1.62,1.62,0,0,1-.69,1.32l-3,2.18A2.32,2.32,0,0,1,106.76,44.38Zm-.92-2.62.74.56a.3.3,0,0,0,.35,0h0l2.66-1.9-.92-.69Z"/></g><path class="cls-8" d="M104,51a15,15,0,1,1,15-15A15,15,0,0,1,104,51Zm0-28a13,13,0,1,0,13,13A13,13,0,0,0,104,23Z"/><path class="cls-9" d="M108,38.32a12.41,12.41,0,0,0,3.43-.49,3.42,3.42,0,0,0,2.35-4.38c-.93-2.83-.18-5.13-.84-7.91A8.63,8.63,0,0,0,104.25,19c-4.51,0-8.1,2.68-8.84,6.51-.53,2.77.19,5-.7,7.81A3.45,3.45,0,0,0,97,37.72a12.34,12.34,0,0,0,3.24.61Z"/><path class="cls-8" d="M100.74,39.33h0a16.93,16.93,0,0,1-4-.65,4.39,4.39,0,0,1-2.66-2.17A4.46,4.46,0,0,1,93.76,33,12.37,12.37,0,0,0,94.19,29a18.53,18.53,0,0,1,.24-3.63C95.26,21,99.3,18,104.25,18A9.62,9.62,0,0,1,114,25.31a16.69,16.69,0,0,1,.34,3.81,12.19,12.19,0,0,0,.47,4,4.43,4.43,0,0,1-.31,3.49,4.32,4.32,0,0,1-2.73,2.16,17.14,17.14,0,0,1-4.2.53,1,1,0,0,1,0-2h.18a15.39,15.39,0,0,0,3.48-.46,2.38,2.38,0,0,0,1.49-1.18,2.43,2.43,0,0,0,.17-1.92,14.11,14.11,0,0,1-.57-4.63,14.78,14.78,0,0,0-.29-3.36A7.65,7.65,0,0,0,104.25,20c-4,0-7.21,2.34-7.85,5.7A16.19,16.19,0,0,0,96.19,29a14.06,14.06,0,0,1-.53,4.68,2.51,2.51,0,0,0,.17,1.92,2.44,2.44,0,0,0,1.46,1.19,15.22,15.22,0,0,0,3.47.57,1,1,0,0,1,0,2Z"/><path class="cls-10" d="M97.67,25.87a10.11,10.11,0,0,0,10.58-2,2.07,2.07,0,0,0,2.39,2.27v5.3a6.68,6.68,0,0,1-3.24,5.73l-1.52.91a3.36,3.36,0,0,1-3.46,0l-1.51-.9a6.67,6.67,0,0,1-3.23-5.73Z"/><circle class="cls-11" cx="100.41" cy="33.4" r="1.14"/><circle class="cls-11" cx="107.88" cy="33.4" r="1.14"/><path class="cls-8" d="M101,31a1,1,0,1,1,0-2h0a1,1,0,0,1,0,2Z"/><path class="cls-8" d="M107,31a1,1,0,1,1,0-2h0a1,1,0,0,1,0,2Z"/><path class="cls-8" d="M104.15,39.59A4.32,4.32,0,0,1,101.9,39l-1.51-.91a7.7,7.7,0,0,1-3.72-6.58v-5.6a1,1,0,0,1,.45-.84,1,1,0,0,1,.95-.07h0a9.08,9.08,0,0,0,9.51-1.8,1,1,0,0,1,1.07-.18,1,1,0,0,1,.6.92,1.36,1.36,0,0,0,.32,1,1.38,1.38,0,0,0,.94.24,1,1,0,0,1,1.13,1v5.3a7.7,7.7,0,0,1-3.72,6.58l-1.52.91A4.32,4.32,0,0,1,104.15,39.59ZM98.67,27.25v4.22a5.69,5.69,0,0,0,2.75,4.87l1.51.91a2.36,2.36,0,0,0,2.43,0l1.52-.91a5.71,5.71,0,0,0,2.75-4.87V27.1a3,3,0,0,1-1.38-.66,3,3,0,0,1-.62-.79A11,11,0,0,1,98.67,27.25Z"/><path class="cls-8" d="M104.18,35.89a2.17,2.17,0,0,1-1.85-.91A1,1,0,0,1,104,33.86a1.05,1.05,0,0,0,.4,0,1,1,0,0,1,1.35-.28A1,1,0,0,1,106,35,2.18,2.18,0,0,1,104.18,35.89Zm-.15-2Z"/><circle class="cls-4" cx="111" cy="108" r="14"/><g class="cls-12"><path class="cls-6" d="M116.37,113.84h0c-.46,1.45-2.62,2.54-5.22,2.54s-4.76-1.09-5.21-2.54h0a8.06,8.06,0,0,1,1.17-.6,1.51,1.51,0,0,0,.84-1.34,1.75,1.75,0,0,0-.13-.65,6.5,6.5,0,0,0,6.67,0,1.52,1.52,0,0,0,.71,2A7.68,7.68,0,0,1,116.37,113.84Z"/><path class="cls-7" d="M117.22,125.56H101.6V121.5a8.94,8.94,0,0,1,4.33-7.66h0c.45,1.45,2.61,2.54,5.21,2.54s4.76-1.09,5.22-2.54h0a9,9,0,0,1,4.32,7.66v4.06Z"/><path class="cls-8" d="M111.18,117.38c-2.42,0-5.47-1.21-6.17-3.17a1,1,0,1,1,1.89-.67c.26.74,2.18,1.84,4.28,1.84s3.85-1,4.33-2a1,1,0,1,1,1.78.91C116.41,116.07,113.78,117.38,111.18,117.38Z"/><path class="cls-8" d="M101.6,126.56a1,1,0,0,1-1-1V121.5a10,10,0,0,1,6.11-9.18h0a.52.52,0,0,0,.23-.42.54.54,0,0,0-.06-.23,1,1,0,0,1,.56-1.3,1,1,0,0,1,1.3.56,2.48,2.48,0,0,1,.2,1,2.52,2.52,0,0,1-1.4,2.24,7.4,7.4,0,0,0-1.09.55,8,8,0,0,0-3.85,6.81v4.06A1,1,0,0,1,101.6,126.56Z"/><path class="cls-8" d="M120.69,126.56a1,1,0,0,1-1-1V121.5a7.93,7.93,0,0,0-1.33-4.41,8,8,0,0,0-2.5-2.39,10.4,10.4,0,0,0-1-.54,2.46,2.46,0,0,1-1.27-3.22,1,1,0,0,1,1.87.72.47.47,0,0,0,.22.68,8.39,8.39,0,0,1,1.26.65,9.93,9.93,0,0,1,4.8,8.51v4.06A1,1,0,0,1,120.69,126.56Z"/><path class="cls-8" d="M106.07,126.56a1,1,0,0,1-1-1v-6a1,1,0,1,1,2,0v6A1,1,0,0,1,106.07,126.56Z"/><path class="cls-8" d="M116.22,126.56a1,1,0,0,1-1-1v-6a1,1,0,0,1,2,0v6A1,1,0,0,1,116.22,126.56Z"/></g><path class="cls-8" d="M111,123a15,15,0,1,1,15-15A15,15,0,0,1,111,123Zm0-28a13,13,0,1,0,13,13A13,13,0,0,0,111,95Z"/><path class="cls-13" d="M114.51,112.23c5.59,0,6.41-3.8,6.41-5.79a26.46,26.46,0,0,0-.85-7.28,8.84,8.84,0,0,0-8.94-6.66c-4.61,0-8.28,2.74-9,6.66a31.78,31.78,0,0,0-.72,7.28c0,2,1.14,5.8,6.16,5.8Z"/><path class="cls-8" d="M107.54,113.24c-5.65,0-7.16-4.28-7.16-6.8a33.23,33.23,0,0,1,.73-7.47c.85-4.4,5-7.47,10-7.47A9.83,9.83,0,0,1,121,98.93a27.3,27.3,0,0,1,.88,7.51c0,1.59-.53,6.79-7.41,6.79a1,1,0,0,1,0-2c4.47,0,5.41-2.61,5.41-4.79a25,25,0,0,0-.83-7,7.85,7.85,0,0,0-8-5.89c-4.08,0-7.39,2.4-8,5.85a30.69,30.69,0,0,0-.7,7.09c0,.49.14,4.8,5.16,4.8a1,1,0,0,1,0,2Z"/><path class="cls-10" d="M104.52,99.5a10.35,10.35,0,0,0,10.82-2,2.12,2.12,0,0,0,2.44,2.32v5.42a6.84,6.84,0,0,1-3.31,5.86l-1.56.93a3.46,3.46,0,0,1-3.54,0l-1.54-.93a6.84,6.84,0,0,1-3.31-5.85Z"/><circle class="cls-11" cx="107.33" cy="107.19" r="1.16"/><circle class="cls-11" cx="114.96" cy="107.19" r="1.16"/><path class="cls-8" d="M108,104.72a1,1,0,1,1,0-2h0a1,1,0,1,1,0,2Z"/><path class="cls-8" d="M114.08,104.72a1,1,0,0,1,0-2h0a1,1,0,1,1,0,2Z"/><path class="cls-8" d="M111.15,113.5a4.46,4.46,0,0,1-2.29-.63l-1.55-.93a7.87,7.87,0,0,1-3.79-6.71V99.5a1,1,0,0,1,.45-.84,1,1,0,0,1,1-.07,9.28,9.28,0,0,0,9.74-1.85,1,1,0,0,1,1.67.74,1.4,1.4,0,0,0,.35,1.08,1.51,1.51,0,0,0,1,.25,1,1,0,0,1,.79.24,1,1,0,0,1,.34.75v5.42a7.89,7.89,0,0,1-3.8,6.72l-1.55.93A4.46,4.46,0,0,1,111.15,113.5Zm-5.63-12.62v4.35a5.85,5.85,0,0,0,2.82,5l1.55.93a2.41,2.41,0,0,0,2.51,0l1.55-.93a5.85,5.85,0,0,0,2.83-5v-4.48a3,3,0,0,1-1.41-.68,2.85,2.85,0,0,1-.64-.82A11.16,11.16,0,0,1,105.52,100.88Z"/><path class="cls-8" d="M111.18,109.72a2.19,2.19,0,0,1-1.87-.92,1,1,0,0,1,1.66-1.12.92.92,0,0,0,.44,0,1,1,0,0,1,1.35-.28,1,1,0,0,1,.29,1.41A2.18,2.18,0,0,1,111.18,109.72Zm-.18-2Zm0-.06Z"/><circle class="cls-4" cx="23" cy="20" r="14"/><g class="cls-14"><path class="cls-7" d="M29.8,25.41s-2-.82-1.95-.77C27.21,26,25.06,27.2,23,27.2S18.62,26,18.16,24.65l-1.88.79c-2.85,1.19-4.71,3.33-4.71,6.42v5.3H34.43V31.8C34.43,28.74,32.61,26.62,29.8,25.41Z"/><path class="cls-6" d="M26.5,21.71c-.44,1,.69,2.48,1.29,2.88C27.16,26,24.71,26.65,23,27.13c-1.71-.48-4.35-1.18-4.79-2.54.59-.35,1.76-1.85,1.29-2.88Z"/><path class="cls-8" d="M23,28.13c-2.26,0-5.1-1.23-5.74-3.23a1,1,0,0,1,.44-1.16c.38-.23,1.05-1.27.89-1.62a1,1,0,0,1,1.82-.82,3.45,3.45,0,0,1-.92,3.49A5.19,5.19,0,0,0,23,26.13a5,5,0,0,0,3.49-1.4,3.42,3.42,0,0,1-.91-3.42,1,1,0,0,1,1.84.8c-.15.33.47,1.35.92,1.65A1,1,0,0,1,28.7,25C27.88,26.79,25.43,28.13,23,28.13Z"/><path class="cls-8" d="M34.43,34.63a1,1,0,0,1-1-1V31.8c0-3.09-2.19-4.68-4-5.47l-1.95-.84a1,1,0,0,1,.79-1.84l2,.84c3.38,1.46,5.24,4.05,5.24,7.31v1.83A1,1,0,0,1,34.43,34.63Z"/><path class="cls-8" d="M11.57,34.63a1,1,0,0,1-1-1V31.86c0-3.3,1.89-5.91,5.32-7.34l1.88-.79a1,1,0,1,1,.77,1.85l-1.87.78c-1.87.78-4.1,2.37-4.1,5.5v1.77A1,1,0,0,1,11.57,34.63Z"/><path class="cls-8" d="M17.07,36.56a1,1,0,0,1-1-1v-6a1,1,0,0,1,2,0v6A1,1,0,0,1,17.07,36.56Z"/><path class="cls-8" d="M29.22,36.56a1,1,0,0,1-1-1v-6a1,1,0,0,1,2,0v6A1,1,0,0,1,29.22,36.56Z"/></g><path class="cls-8" d="M23,35A15,15,0,1,1,38,20,15,15,0,0,1,23,35ZM23,7A13,13,0,1,0,36,20,13,13,0,0,0,23,7Z"/><path class="cls-10" d="M23.79,23.08H22.21a3.46,3.46,0,0,1-2.45-1L18.66,21a6.92,6.92,0,0,1-2-4.87V11.28a3.77,3.77,0,0,1,3.78-3.77h5.16a3.77,3.77,0,0,1,3.78,3.77V16.1a6.92,6.92,0,0,1-2,4.87l-1.1,1.1A3.46,3.46,0,0,1,23.79,23.08Z"/><path class="cls-15" d="M25.58,7.51H20.42a3.77,3.77,0,0,0-3.78,3.77v1c0-1.91,3.18-3.5,5.72-3.5a2.86,2.86,0,0,0-.95,3.2c3.09-2.28,4.34-.2,6.88-.75,1.07-.23,1.07,2,1.07,2v-2A3.77,3.77,0,0,0,25.58,7.51Z"/><path class="cls-13" d="M26.35,4.54c2.26,1,4.91,3.6,3.75,7.42-.17.56-.63.07-.74.32,0,0,0-2.23-1.07-2-2.54.54-3.79-1.54-6.88.75a2.86,2.86,0,0,1,.95-3.2c-2.54,0-5.72,1.59-5.72,3.49,0,0-.88-.64-1-1.27-.32-2.86,1.21-4.26,3.71-5.36.48-.21.12-3,.65-2.52C21.5,3.55,25.22,4,26.35,4.54Z"/><path class="cls-10" d="M29.36,13.23h.11a1.16,1.16,0,0,1,1.16,1.16v.85a1.16,1.16,0,0,1-1.16,1.16h-.11a0,0,0,0,1,0,0V13.23A0,0,0,0,1,29.36,13.23Z"/><path class="cls-10" d="M15.37,13.23h.11a1.16,1.16,0,0,1,1.16,1.16v.85a1.16,1.16,0,0,1-1.16,1.16h-.11a0,0,0,0,1,0,0V13.23A0,0,0,0,1,15.37,13.23Z" transform="translate(32.02 29.64) rotate(-180)"/><path class="cls-8" d="M29.63,13.33a1.6,1.6,0,0,1-.67-.14,1,1,0,0,1-.6-.91,4.34,4.34,0,0,0-.14-1,6.77,6.77,0,0,1-2.65-.19,3.57,3.57,0,0,0-3.56.71,1,1,0,0,1-.79.18,1,1,0,0,1-.67-.47,3.19,3.19,0,0,1-.19-2.39c-1.52.49-2.72,1.43-2.72,2.17a1,1,0,0,1-1.58.81,3.22,3.22,0,0,1-1.36-2c-.4-3.6,1.82-5.23,3.95-6.23,0-.22,0-.53.05-.74.05-.92.09-1.71.84-2a1.13,1.13,0,0,1,1.2.26c.79.76,2.71,1.25,4.11,1.6a12.18,12.18,0,0,1,1.92.59c2.8,1.29,5.6,4.32,4.29,8.62a1.48,1.48,0,0,1-.8.94A1.36,1.36,0,0,1,29.63,13.33ZM28.44,9.26a1.56,1.56,0,0,1,.91.29C29,7,26.53,5.72,25.93,5.44h0A12.4,12.4,0,0,0,24.35,5a19.1,19.1,0,0,1-3.68-1.21c-.06.82-.2,1.54-.87,1.83-2.12.94-3.05,1.92-3.14,3.46a8.59,8.59,0,0,1,5.7-2.23,1,1,0,0,1,.95.67A1,1,0,0,1,23,8.61a1.91,1.91,0,0,0-.53.68A5.52,5.52,0,0,1,26,9.17a4.56,4.56,0,0,0,2.08.13A2.2,2.2,0,0,1,28.44,9.26ZM19,3.77Zm.36-.88Z"/><path class="cls-8" d="M29.46,17.41h-.1a1,1,0,0,1-1-1V13.23a1,1,0,0,1,1-1h.1a2.17,2.17,0,0,1,2.17,2.16v.85A2.17,2.17,0,0,1,29.46,17.41Z"/><path class="cls-8" d="M16.64,17.41h-.1a2.17,2.17,0,0,1-2.17-2.17v-.85a2.17,2.17,0,0,1,2.17-2.16h.1a1,1,0,0,1,1,1v3.18A1,1,0,0,1,16.64,17.41Z"/><path class="cls-8" d="M23,20.47a2.26,2.26,0,0,1-1.94-.95,1,1,0,0,1,1.67-1.1.74.74,0,0,0,.56,0,1,1,0,0,1,1.35-.29,1,1,0,0,1,.3,1.4A2.26,2.26,0,0,1,23,20.47Z"/><path class="cls-8" d="M23.8,24.11H22.2a4.43,4.43,0,0,1-3.15-1.31l-1-1a8.31,8.31,0,0,1-2.45-5.92V11.28a1,1,0,1,1,2,0v4.63a6.31,6.31,0,0,0,1.87,4.51l1,1a2.49,2.49,0,0,0,1.74.72h1.6a2.49,2.49,0,0,0,1.74-.72l1-1a6.31,6.31,0,0,0,1.87-4.51V12.28a1,1,0,1,1,2,0v3.63a8.31,8.31,0,0,1-2.45,5.92l-1,1A4.43,4.43,0,0,1,23.8,24.11Z"/><circle class="cls-11" cx="19.96" cy="16.9" r="0.95"/><circle class="cls-11" cx="26.04" cy="16.9" r="0.95"/><path class="cls-8" d="M20,15a1,1,0,1,1,0-2h0a1,1,0,0,1,0,2Z"/><path class="cls-8" d="M26,15a1,1,0,1,1,0-2h0a1,1,0,0,1,0,2Z"/><path class="cls-16" d="M25.72,94.8c1.55-1.77,4.06-2.88,5-2.79,1.38.13.92,5.07.8,8A8.06,8.06,0,0,0,25.72,94.8Z"/><path class="cls-16" d="M14.15,99.65c-.13-2.9-.41-7.52.82-7.64.9-.1,3.38,1,4.93,2.75A7.92,7.92,0,0,0,14.15,99.65Z"/><ellipse class="cls-13" cx="22.76" cy="103.22" rx="9.25" ry="8.78"/><path class="cls-17" d="M22.76,105.06c6,0,7.73-.46,9.25-1.84A9,9,0,0,1,22.76,112a9,9,0,0,1-9.26-8.78C15.23,104.6,16.63,105.06,22.76,105.06Z"/><ellipse class="cls-17" cx="22.87" cy="105.55" rx="5.07" ry="3.72"/><path class="cls-8" d="M31.49,101.05a1,1,0,0,1-.94-.67,7.11,7.11,0,0,0-5.09-4.61,1,1,0,0,1-.5-1.63c1.71-2,4.47-3.27,5.82-3.13,2.16.21,2,3.75,1.77,7.85,0,.43,0,.85-.06,1.23a1,1,0,0,1-.85,1ZM27.6,94.41a9.06,9.06,0,0,1,3,2.22A12.34,12.34,0,0,0,30.41,93,7.87,7.87,0,0,0,27.6,94.41Z"/><path class="cls-8" d="M14.15,100.65l-.17,0a1,1,0,0,1-.83-.94l0-.58c-.21-4.9-.2-7.9,1.75-8.1,1.34-.13,4.06,1.16,5.78,3.09a1,1,0,0,1-.51,1.63A6.93,6.93,0,0,0,15.08,100,1,1,0,0,1,14.15,100.65ZM15.29,93A12,12,0,0,0,15,96.4a8.82,8.82,0,0,1,2.93-2A7.63,7.63,0,0,0,15.29,93Z"/><path class="cls-8" d="M34.19,104.67H32.24a1,1,0,0,1,0-2h1.95a1,1,0,1,1,0,2Z"/><path class="cls-8" d="M33,108.37h-2a1,1,0,1,1,0-2h2a1,1,0,1,1,0,2Z"/><path class="cls-8" d="M13.31,104.67h-2a1,1,0,0,1,0-2h2a1,1,0,1,1,0,2Z"/><path class="cls-8" d="M14.48,108.37h-2a1,1,0,0,1,0-2h2a1,1,0,1,1,0,2Z"/><path class="cls-8" d="M24.63,108.28a2.77,2.77,0,0,1-2.76-2.76,1,1,0,1,1,2,0,.76.76,0,0,0,1.52,0,1,1,0,0,1,2,0A2.77,2.77,0,0,1,24.63,108.28Z"/><path class="cls-8" d="M21.12,108.28a2.77,2.77,0,0,1-2.76-2.76,1,1,0,0,1,2,0,.76.76,0,1,0,1.51,0v-.88a1,1,0,0,1,1-1h0a1,1,0,0,1,1,1v.88A2.75,2.75,0,0,1,21.12,108.28Z"/><path class="cls-8" d="M28.25,102.22a1,1,0,0,1-1-1c0-.09-.17-.09-.17,0a1,1,0,0,1-2,0,2.09,2.09,0,0,1,4.17,0A1,1,0,0,1,28.25,102.22Z"/><path class="cls-18" d="M22.88,104.37c.41,0,1.29-.93,1-1.26a2.54,2.54,0,0,0-2.09,0C21.62,103.46,22.47,104.37,22.88,104.37Z"/><path class="cls-8" d="M22.88,105.37A2.55,2.55,0,0,1,21,104.06a1.4,1.4,0,0,1-.05-1.47,1.81,1.81,0,0,1,1.59-.7,2.63,2.63,0,0,1,2.15.61,1.33,1.33,0,0,1,.07,1.45A2.57,2.57,0,0,1,22.88,105.37Z"/><path class="cls-8" d="M19.75,102.22a1,1,0,0,1-1-1c0-.09-.17-.09-.17,0a1,1,0,0,1-2,0,2.09,2.09,0,0,1,4.17,0A1,1,0,0,1,19.75,102.22Z"/><path class="cls-8" d="M20.78,97.78a1,1,0,0,1-1-1V94.71a1,1,0,0,1,2,0v2.07A1,1,0,0,1,20.78,97.78Z"/><path class="cls-8" d="M24.48,97.78a1,1,0,0,1-1-1V94.71a1,1,0,0,1,2,0v2.07A1,1,0,0,1,24.48,97.78Z"/><path class="cls-8" d="M22.76,113a10.45,10.45,0,0,1-7.86-3.49,9.2,9.2,0,0,1-.8-1.06,9.34,9.34,0,0,1-1.6-5.23c0-6,4-9.79,10.26-9.79S33,97.36,33,103.22a9.55,9.55,0,0,1-2.3,6.17A10.4,10.4,0,0,1,22.76,113Zm0-17.57c-6.09,0-8.26,4-8.26,7.79a7.48,7.48,0,0,0,1.26,4.13h0a8.13,8.13,0,0,0,.63.82,8.57,8.57,0,0,0,12.79-.09A7.42,7.42,0,0,0,31,103.22C31,98.49,27.77,95.43,22.76,95.43Z"/></g><path class="cls-19" d="M84,113.69l7.13-7.13a6.7,6.7,0,0,0-.62-10L79.34,87.86a6.68,6.68,0,0,0-8.25,0l-2.49,2a6.7,6.7,0,0,1-8.88-.52l-20-20a6.68,6.68,0,0,1-.52-8.88l2-2.48a6.7,6.7,0,0,0,0-8.26L32.54,38.58a6.69,6.69,0,0,0-10-.62L15.4,45.09C10.48,50,10.5,63.78,37.9,91.18S79.48,118.21,84,113.69Z"/><g class="cls-2"><path class="cls-20" d="M18,48.59l7.13-7.13a8.41,8.41,0,0,1,2.11-1.52l-2.88-3.27A6.82,6.82,0,0,0,22.53,38L15.4,45.09C11.52,49,10.73,58.38,24.05,75.66,13.44,60.6,14.37,52.2,18,48.59Z"/></g><path class="cls-21" d="M89.16,102.2a8,8,0,0,1-1.37,1.86l-7.13,7.13c-3.4,3.4-12.27,4.45-28.14-6.92,18,14,27.84,13,31.48,9.42l7.13-7.13a6.57,6.57,0,0,0,1.35-2C90.83,103.5,89.92,102.67,89.16,102.2Z"/><path class="cls-21" d="M38.58,54.67,35.9,58a9.61,9.61,0,0,0-.9,10.4C38.38,75.5,51.62,87.7,59.06,92.19c3.63,2.19,8.32,1.93,9.56-2.19a8.13,8.13,0,0,1-7.18.81L39.76,69.36a6.68,6.68,0,0,1-.52-8.88l2-2.48C39.83,56.67,40,55.17,38.58,54.67Z"/><g class="cls-2"><path class="cls-17" d="M74.66,90.45l-3.3,2.7c-3.86,2.73-8.25.42-10.67-1.84-.94-.87.25-1.31.25-1.31a6.33,6.33,0,0,0,7.89-.16l2.47-2C72.65,89.21,74.15,89.07,74.66,90.45Z"/></g><path class="cls-22" d="M30.29,44.05a11.25,11.25,0,0,1,4.55-2.51l3.62,4.64a8.52,8.52,0,0,1-2.92,4.59Z"/><path class="cls-22" d="M32.54,38.58l1.73,2.23A9.57,9.57,0,0,0,27,39.89l-2.56-3.27A6.68,6.68,0,0,1,32.54,38.58Z"/><path class="cls-21" d="M39.29,47.26l1.93,2.48a6.68,6.68,0,0,1,0,8.26l-2.78-3.56A7.36,7.36,0,0,0,39.29,47.26Z"/><path class="cls-22" d="M85,98.79a10.9,10.9,0,0,0,2.51-4.55l-4.87-3.79c-2.18.74-3.7,1.75-4.35,3.09Z"/><path class="cls-21" d="M90.51,96.55l-2.24-1.74a9.56,9.56,0,0,1,.93,7.24l3.27,2.56A6.68,6.68,0,0,0,90.51,96.55Z"/><path class="cls-22" d="M81.82,89.79l-2.48-1.93a6.7,6.7,0,0,0-8.26,0l3.56,2.78A7.35,7.35,0,0,1,81.82,89.79Z"/><path class="cls-22" d="M40.75,88.58c27.4,27.4,35.48,19.77,40,15.25l4.42-4.94-6.92-5a40.5,40.5,0,0,1-5.08,5.41C69.75,102.17,60.8,101,44.42,85.42c-17.81-16.89-18.17-25.5-14.17-29.5l5-5a41.42,41.42,0,0,0-5-7L23.65,50C18.73,54.92,13.35,61.18,40.75,88.58Z"/><path class="cls-23" d="M77.23,117c-7,0-19.52-4.57-40-25.09C24.83,79.52,16.89,68.81,13.6,60.06c-3.47-9.22-.81-13.78,1.09-15.68l7.13-7.13A7.7,7.7,0,0,1,33.33,38L42,49.13a7.68,7.68,0,0,1,0,9.49L40,61.1a5.7,5.7,0,0,0,.44,7.56l20,20a5.69,5.69,0,0,0,7.55.44l2.48-2a7.69,7.69,0,0,1,9.5,0l11.16,8.69a7.69,7.69,0,0,1,.71,11.51L84.7,114.4h0C83.9,115.2,81.62,117,77.23,117Zm-50-80a5.69,5.69,0,0,0-4,1.67L16.1,45.8c-1.55,1.55-3.7,5.38-.63,13.55,3.19,8.49,11,19,23.14,31.12s22.59,19.81,31.27,23,12.22.7,13.41-.49l7.13-7.13a5.68,5.68,0,0,0-.53-8.51L78.73,88.65a5.66,5.66,0,0,0-7,0l-2.49,2A7.68,7.68,0,0,1,59,90l-20-20a7.69,7.69,0,0,1-.6-10.21l2-2.48a5.68,5.68,0,0,0,0-7L31.75,39.2A5.68,5.68,0,0,0,27.61,37ZM84,113.69h0Z"/><path class="cls-23" d="M41.2,59a1,1,0,0,1-.79-.38L23.69,37.23A1,1,0,1,1,25.26,36L42,57.39A1,1,0,0,1,41.2,59Z"/><path class="cls-23" d="M92.47,105.61a1,1,0,0,1-.61-.21L70.47,88.68A1,1,0,0,1,71.7,87.1l21.39,16.73a1,1,0,0,1-.62,1.78Z"/><path class="cls-4" d="M78,41h30a4,4,0,0,1,4,4V65a4,4,0,0,1-4,4h-4v7l-7-7H78a4,4,0,0,1-4-4V45A4,4,0,0,1,78,41Z"/><g class="cls-2"><path class="cls-24" d="M103,67a1,1,0,0,1,1-1h4a4,4,0,0,0,4-4v3a4,4,0,0,1-4,4h-5Z"/><path class="cls-24" d="M78,66H97.17a2,2,0,0,1,1.42.59L104,72v4l-7-7H78a4,4,0,0,1-4-4V62A4,4,0,0,0,78,66Z"/></g><path class="cls-22" d="M78,41h30a4,4,0,0,1,4,4v2c0-2.21-1.79-3-4-3H78c-2.21,0-4,.79-4,3V45A4,4,0,0,1,78,41Z"/><path class="cls-8" d="M104,77a1,1,0,0,1-.71-.29L96.59,70H78a5,5,0,0,1-5-5V45a5,5,0,0,1,5-5h30a5,5,0,0,1,5,5V65a5,5,0,0,1-5,5h-3v6a1,1,0,0,1-.62.92A.84.84,0,0,1,104,77ZM78,42a3,3,0,0,0-3,3V65a3,3,0,0,0,3,3H97a1,1,0,0,1,.71.29l5.29,5.3V69a1,1,0,0,1,1-1h4a3,3,0,0,0,3-3V45a3,3,0,0,0-3-3Z"/><g class="cls-25"><circle class="cls-24" cx="103" cy="57" r="4"/><circle class="cls-24" cx="93" cy="57" r="4"/><circle class="cls-24" cx="83" cy="57" r="4"/></g><circle class="cls-17" cx="103" cy="55" r="3"/><path class="cls-8" d="M103,59a4,4,0,1,1,4-4A4,4,0,0,1,103,59Zm0-6a2,2,0,1,0,2,2A2,2,0,0,0,103,53Z"/><circle class="cls-17" cx="93" cy="55" r="3"/><path class="cls-8" d="M93,59a4,4,0,1,1,4-4A4,4,0,0,1,93,59Zm0-6a2,2,0,1,0,2,2A2,2,0,0,0,93,53Z"/><circle class="cls-17" cx="83" cy="55" r="3"/><path class="cls-8" d="M83,59a4,4,0,1,1,4-4A4,4,0,0,1,83,59Zm0-6a2,2,0,1,0,2,2A2,2,0,0,0,83,53Z"/><path class="cls-7" d="M93,16H57a4,4,0,0,0-4,4V44a4,4,0,0,0,4,4h4V58L71,48H93a4,4,0,0,0,4-4V20A4,4,0,0,0,93,16Z"/><g class="cls-25"><circle class="cls-26" cx="63" cy="34" r="4"/><circle class="cls-26" cx="75" cy="34" r="4"/><circle class="cls-26" cx="87" cy="34" r="4"/></g><g class="cls-2"><path class="cls-26" d="M62,46a1,1,0,0,0-1-1H57a4,4,0,0,1-4-4v3a4,4,0,0,0,4,4h5Z"/><path class="cls-26" d="M93,45H70.83a2,2,0,0,0-1.42.59L61,54v4L71,48H93a4,4,0,0,0,4-4V41A4,4,0,0,1,93,45Z"/></g><path class="cls-20" d="M93,16H57a4,4,0,0,0-4,4v3a4,4,0,0,1,4-4H93a4,4,0,0,1,4,4V20A4,4,0,0,0,93,16Z"/><path class="cls-8" d="M61,59a.84.84,0,0,1-.38-.08A1,1,0,0,1,60,58V49H57a5,5,0,0,1-5-5V20a5,5,0,0,1,5-5H93a5,5,0,0,1,5,5V44a5,5,0,0,1-5,5H71.41l-9.7,9.71A1,1,0,0,1,61,59ZM57,17a3,3,0,0,0-3,3V44a3,3,0,0,0,3,3h4a1,1,0,0,1,1,1v7.59l8.29-8.3A1,1,0,0,1,71,47H93a3,3,0,0,0,3-3V20a3,3,0,0,0-3-3Z"/><circle class="cls-17" cx="63" cy="32" r="3"/><path class="cls-8" d="M63,36a4,4,0,1,1,4-4A4,4,0,0,1,63,36Zm0-6a2,2,0,1,0,2,2A2,2,0,0,0,63,30Z"/><circle class="cls-17" cx="75" cy="32" r="3"/><path class="cls-8" d="M75,36a4,4,0,1,1,4-4A4,4,0,0,1,75,36Zm0-6a2,2,0,1,0,2,2A2,2,0,0,0,75,30Z"/><circle class="cls-17" cx="87" cy="32" r="3"/><path class="cls-8" d="M87,36a4,4,0,1,1,4-4A4,4,0,0,1,87,36Zm0-6a2,2,0,1,0,2,2A2,2,0,0,0,87,30Z"/></svg>