<?xml version="1.0" ?><svg data-name="018" id="_018" viewBox="0 0 128 128" xmlns="http://www.w3.org/2000/svg"><defs><style>.cls-1,.cls-24,.cls-30,.cls-31{opacity:0.3;}.cls-2{fill:#97c1ff;}.cls-21,.cls-3,.cls-31,.cls-32{fill:#fff;}.cls-4{fill:#c9c1f5;}.cls-12,.cls-5{fill:#6d6daa;}.cls-6{fill:#eef6ff;}.cls-7{fill:#d4edff;}.cls-8{fill:#96d7ff;}.cls-9{fill:#939fc6;}.cls-10,.cls-12,.cls-21{opacity:0.5;}.cls-11{fill:#b1f1a8;}.cls-13{fill:#8b94b6;}.cls-14{fill:#6d6da8;}.cls-15{fill:#fcd9bf;}.cls-16{fill:#94d5ff;}.cls-17{fill:#c7bff3;}.cls-18{fill:#ecf4ff;}.cls-19{fill:#d6b5b0;}.cls-20{fill:#750000;}.cls-20,.cls-26{opacity:0.2;}.cls-22{fill:#ffd599;}.cls-23{fill:#ff9797;}.cls-24{fill:#d43c74;}.cls-25{fill:#f9e2dc;}.cls-26,.cls-27{fill:#2c4b75;}.cls-27{opacity:0.2;}.cls-28{fill:#ecc3b3;}.cls-29,.cls-30{fill:#cc7e54;}.cls-32{opacity:0.3;}</style></defs><title/><g class="cls-1"><path class="cls-2" d="M1.81,45.69a30,30,0,0,1,23.51-25A19.67,19.67,0,0,0,36.26,14.1a37,37,0,0,1,64.32,15.68A19.6,19.6,0,0,0,111,43,28,28,0,1,1,73.34,80.29,9.4,9.4,0,0,0,64.83,75H64a12.4,12.4,0,0,0-12,9.74,20.68,20.68,0,0,1-2,5.11A20,20,0,0,1,12.53,81,21.44,21.44,0,0,0,8,68.65,29.93,29.93,0,0,1,1.81,45.69Z"/><path class="cls-3" d="M56,9h-.34a1,1,0,0,1,0-2H56a1,1,0,1,1,0,2Z"/><path class="cls-3" d="M66,13H61a1,1,0,0,1,0-2h5a1,1,0,0,1,0,2Z"/><path class="cls-3" d="M65,17H56a1,1,0,0,1,0-2h9a1,1,0,0,1,0,2Z"/><path class="cls-3" d="M58,13H54a1,1,0,0,1,0-2h4a1,1,0,1,1,0,2Z"/><path class="cls-3" d="M70,9H60a1,1,0,0,1,0-2H70a1,1,0,0,1,0,2Z"/><rect class="cls-4" height="4" width="26" x="80" y="11.03"/><path class="cls-5" d="M106,16H80a1,1,0,0,1-1-1V11a1,1,0,0,1,1-1h26a1,1,0,0,1,1,1v4A1,1,0,0,1,106,16ZM81,14h24V12H81Z"/><rect class="cls-6" height="28" width="4" x="64" y="87.03"/><path class="cls-5" d="M68,116H64a1,1,0,0,1-1-1V87a1,1,0,0,1,1-1h4a1,1,0,0,1,1,1v28A1,1,0,0,1,68,116Zm-3-2h2V88H65Z"/><rect class="cls-7" height="28" width="6" x="68" y="87.03"/><path class="cls-5" d="M74,116H68a1,1,0,0,1-1-1V87a1,1,0,0,1,1-1h6a1,1,0,0,1,1,1v28A1,1,0,0,1,74,116Zm-5-2h4V88H69Z"/><rect class="cls-6" height="28" width="4" x="118" y="87.03"/><path class="cls-5" d="M122,116h-4a1,1,0,0,1-1-1V87a1,1,0,0,1,1-1h4a1,1,0,0,1,1,1v28A1,1,0,0,1,122,116Zm-3-2h2V88h-2Z"/><rect class="cls-7" height="28" width="6" x="112" y="87.03"/><path class="cls-5" d="M118,116h-6a1,1,0,0,1-1-1V87a1,1,0,0,1,1-1h6a1,1,0,0,1,1,1v28A1,1,0,0,1,118,116Zm-5-2h4V88h-4Z"/><rect class="cls-6" height="100" width="38" x="74" y="15.03"/><path class="cls-5" d="M112,116H74a1,1,0,0,1-1-1V15a1,1,0,0,1,1-1h38a1,1,0,0,1,1,1V115A1,1,0,0,1,112,116Zm-37-2h36V16H75Z"/><rect class="cls-8" height="80" width="30" x="78" y="19.03"/><path class="cls-5" d="M108,100H78a1,1,0,0,1-1-1V19a1,1,0,0,1,1-1h30a1,1,0,0,1,1,1V99A1,1,0,0,1,108,100ZM79,98h28V20H79Z"/><rect class="cls-7" height="16" width="30" x="78" y="99.03"/><path class="cls-5" d="M108,116H78a1,1,0,0,1-1-1V99a1,1,0,0,1,1-1h30a1,1,0,0,1,1,1v16A1,1,0,0,1,108,116Zm-29-2h28V100H79Z"/><path class="cls-5" d="M93,12a1,1,0,0,1-1-1V7a1,1,0,0,1,2,0v4A1,1,0,0,1,93,12Z"/><rect class="cls-9" height="4" width="10" x="64" y="111.03"/><path class="cls-5" d="M74,116H64a1,1,0,0,1-1-1v-4a1,1,0,0,1,1-1H74a1,1,0,0,1,1,1v4A1,1,0,0,1,74,116Zm-9-2h8v-2H65Z"/><path class="cls-5" d="M86,116a1,1,0,0,1-1-1V99a1,1,0,0,1,2,0v16A1,1,0,0,1,86,116Z"/><path class="cls-5" d="M100,116a1,1,0,0,1-1-1V99a1,1,0,0,1,2,0v16A1,1,0,0,1,100,116Z"/><path class="cls-5" d="M93,116a1,1,0,0,1-1-1V99a1,1,0,0,1,2,0v16A1,1,0,0,1,93,116Z"/><g class="cls-10"><path class="cls-5" d="M102,100a1,1,0,0,1-1-1V19a1,1,0,0,1,2,0V99A1,1,0,0,1,102,100Z"/><path class="cls-5" d="M96,100a1,1,0,0,1-1-1V19a1,1,0,0,1,2,0V99A1,1,0,0,1,96,100Z"/><path class="cls-5" d="M108,80H78a1,1,0,0,1,0-2h30a1,1,0,0,1,0,2Z"/><path class="cls-5" d="M108,90H78a1,1,0,0,1,0-2h30a1,1,0,0,1,0,2Z"/><path class="cls-5" d="M108,50H78a1,1,0,0,1,0-2h30a1,1,0,0,1,0,2Z"/><path class="cls-5" d="M108,60H78a1,1,0,0,1,0-2h30a1,1,0,0,1,0,2Z"/><path class="cls-5" d="M108,70H78a1,1,0,0,1,0-2h30a1,1,0,0,1,0,2Z"/><path class="cls-5" d="M108,30H78a1,1,0,0,1,0-2h30a1,1,0,0,1,0,2Z"/><path class="cls-5" d="M108,40H78a1,1,0,0,1,0-2h30a1,1,0,0,1,0,2Z"/><path class="cls-5" d="M90,100a1,1,0,0,1-1-1V19a1,1,0,0,1,2,0V99A1,1,0,0,1,90,100Z"/><path class="cls-5" d="M84,100a1,1,0,0,1-1-1V19a1,1,0,0,1,2,0V99A1,1,0,0,1,84,100Z"/></g><path class="cls-5" d="M108,100H78a1,1,0,0,1,0-2h30a1,1,0,0,1,0,2Z"/><path class="cls-5" d="M118,112a1,1,0,0,1-1-1V91a1,1,0,0,1,2,0v20A1,1,0,0,1,118,112Z"/><rect class="cls-9" height="4" width="10" x="112" y="111.03"/><path class="cls-5" d="M122,116H112a1,1,0,0,1-1-1v-4a1,1,0,0,1,1-1h10a1,1,0,0,1,1,1v4A1,1,0,0,1,122,116Zm-9-2h8v-2h-8Z"/><rect class="cls-4" height="4" width="10" x="112" y="87.03"/><path class="cls-5" d="M122,92H112a1,1,0,0,1-1-1V87a1,1,0,0,1,1-1h10a1,1,0,0,1,1,1v4A1,1,0,0,1,122,92Zm-9-2h8V88h-8Z"/><rect class="cls-4" height="4" width="10" x="64" y="87.03"/><path class="cls-5" d="M74,92H64a1,1,0,0,1-1-1V87a1,1,0,0,1,1-1H74a1,1,0,0,1,1,1v4A1,1,0,0,1,74,92Zm-9-2h8V88H65Z"/><path class="cls-5" d="M113.09,115.92a1,1,0,0,1-1-1v-8a1,1,0,1,1,2,0v8A1,1,0,0,1,113.09,115.92Z"/><path class="cls-11" d="M119.09,101.42a6,6,0,0,1-12,0c0-3,2.69-16.5,6-16.5S119.09,98.38,119.09,101.42Z"/><path class="cls-5" d="M113.09,107.92a6.77,6.77,0,0,1-7-6.5c0-2,2.33-17.5,7-17.5s7,15.55,7,17.5A6.77,6.77,0,0,1,113.09,107.92Zm0-22c-2,0-5,11.79-5,15.5a5,5,0,0,0,10,0C118.09,97.71,115.11,85.92,113.09,85.92Z"/><path class="cls-12" d="M111.81,103.78a1,1,0,0,1-.24,0,2.78,2.78,0,0,1-2.18-2.57,1,1,0,1,1,2-.25c.08.61.31.79.69.88a1,1,0,0,1-.25,2Z"/><path class="cls-12" d="M114.11,94.37a1,1,0,0,1-.82-.44c-.35-.51-.64-.56-1-.47a1,1,0,0,1-.44-1.95,2.79,2.79,0,0,1,3.11,1.3,1,1,0,0,1-.27,1.39A1,1,0,0,1,114.11,94.37Z"/><path class="cls-5" d="M112,116H23a1,1,0,0,1,0-2h89a1,1,0,0,1,0,2Z"/><path class="cls-5" d="M127,116H115a1,1,0,0,1,0-2h12a1,1,0,0,1,0,2Z"/><path class="cls-5" d="M6,116H1a1,1,0,0,1,0-2H6a1,1,0,0,1,0,2Z"/><path class="cls-5" d="M20,116H9a1,1,0,0,1,0-2H20a1,1,0,0,1,0,2Z"/><rect class="cls-13" height="4" width="46" x="21" y="21.03"/><path class="cls-14" d="M67,26H21a1,1,0,0,1-1-1V21a1,1,0,0,1,1-1H67a1,1,0,0,1,1,1v4A1,1,0,0,1,67,26ZM22,24H66V22H22Z"/><rect class="cls-15" height="5" width="52" x="18" y="25.03"/><path class="cls-14" d="M70,31H18a1,1,0,0,1-1-1V25a1,1,0,0,1,1-1H70a1,1,0,0,1,1,1v5A1,1,0,0,1,70,31ZM19,29H69V26H19Z"/><rect class="cls-15" height="5" width="52" x="18" y="40.03"/><path class="cls-14" d="M70,46H18a1,1,0,0,1-1-1V40a1,1,0,0,1,1-1H70a1,1,0,0,1,1,1v5A1,1,0,0,1,70,46ZM19,44H69V41H19Z"/><rect class="cls-16" height="10" width="50" x="19" y="30.03"/><path class="cls-14" d="M69,41H19a1,1,0,0,1-1-1V30a1,1,0,0,1,1-1H69a1,1,0,0,1,1,1V40A1,1,0,0,1,69,41ZM20,39H68V31H20Z"/><path class="cls-14" d="M22,22a1,1,0,0,1-1-1V20a1,1,0,0,1,2,0v1A1,1,0,0,1,22,22Z"/><path class="cls-14" d="M26,22a1,1,0,0,1-1-1V20a1,1,0,0,1,2,0v1A1,1,0,0,1,26,22Z"/><path class="cls-14" d="M30,22a1,1,0,0,1-1-1V20a1,1,0,0,1,2,0v1A1,1,0,0,1,30,22Z"/><path class="cls-14" d="M34,22a1,1,0,0,1-1-1V20a1,1,0,0,1,2,0v1A1,1,0,0,1,34,22Z"/><path class="cls-14" d="M38,22a1,1,0,0,1-1-1V20a1,1,0,0,1,2,0v1A1,1,0,0,1,38,22Z"/><path class="cls-14" d="M42,22a1,1,0,0,1-1-1V20a1,1,0,0,1,2,0v1A1,1,0,0,1,42,22Z"/><path class="cls-14" d="M46,22a1,1,0,0,1-1-1V20a1,1,0,0,1,2,0v1A1,1,0,0,1,46,22Z"/><path class="cls-14" d="M50,22a1,1,0,0,1-1-1V20a1,1,0,0,1,2,0v1A1,1,0,0,1,50,22Z"/><path class="cls-14" d="M54,22a1,1,0,0,1-1-1V20a1,1,0,0,1,2,0v1A1,1,0,0,1,54,22Z"/><path class="cls-14" d="M58,22a1,1,0,0,1-1-1V20a1,1,0,0,1,2,0v1A1,1,0,0,1,58,22Z"/><path class="cls-14" d="M62,22a1,1,0,0,1-1-1V20a1,1,0,0,1,2,0v1A1,1,0,0,1,62,22Z"/><path class="cls-14" d="M66,22a1,1,0,0,1-1-1V20a1,1,0,0,1,2,0v1A1,1,0,0,1,66,22Z"/><g class="cls-10"><path class="cls-14" d="M41,41a1,1,0,0,1-1-1V30a1,1,0,0,1,2,0V40A1,1,0,0,1,41,41Z"/><path class="cls-14" d="M35,41a1,1,0,0,1-1-1V30a1,1,0,0,1,2,0V40A1,1,0,0,1,35,41Z"/><path class="cls-14" d="M29,41a1,1,0,0,1-1-1V30a1,1,0,0,1,2,0V40A1,1,0,0,1,29,41Z"/><path class="cls-14" d="M23,41a1,1,0,0,1-1-1V30a1,1,0,0,1,2,0V40A1,1,0,0,1,23,41Z"/><path class="cls-14" d="M65,41a1,1,0,0,1-1-1V30a1,1,0,0,1,2,0V40A1,1,0,0,1,65,41Z"/><path class="cls-14" d="M59,41a1,1,0,0,1-1-1V30a1,1,0,0,1,2,0V40A1,1,0,0,1,59,41Z"/><path class="cls-14" d="M53,41a1,1,0,0,1-1-1V30a1,1,0,0,1,2,0V40A1,1,0,0,1,53,41Z"/><path class="cls-14" d="M47,41a1,1,0,0,1-1-1V30a1,1,0,0,1,2,0V40A1,1,0,0,1,47,41Z"/></g><path class="cls-14" d="M69,41H19a1,1,0,0,1,0-2H69a1,1,0,0,1,0,2Z"/><rect class="cls-15" height="5" width="52" x="18" y="55.03"/><path class="cls-14" d="M70,61H18a1,1,0,0,1-1-1V55a1,1,0,0,1,1-1H70a1,1,0,0,1,1,1v5A1,1,0,0,1,70,61ZM19,59H69V56H19Z"/><rect class="cls-16" height="10" width="50" x="19" y="45.03"/><path class="cls-14" d="M69,56H19a1,1,0,0,1-1-1V45a1,1,0,0,1,1-1H69a1,1,0,0,1,1,1V55A1,1,0,0,1,69,56ZM20,54H68V46H20Z"/><g class="cls-10"><path class="cls-14" d="M41,56a1,1,0,0,1-1-1V45a1,1,0,0,1,2,0V55A1,1,0,0,1,41,56Z"/><path class="cls-14" d="M35,56a1,1,0,0,1-1-1V45a1,1,0,0,1,2,0V55A1,1,0,0,1,35,56Z"/><path class="cls-14" d="M29,56a1,1,0,0,1-1-1V45a1,1,0,0,1,2,0V55A1,1,0,0,1,29,56Z"/><path class="cls-14" d="M23,56a1,1,0,0,1-1-1V45a1,1,0,0,1,2,0V55A1,1,0,0,1,23,56Z"/><path class="cls-14" d="M65,56a1,1,0,0,1-1-1V45a1,1,0,0,1,2,0V55A1,1,0,0,1,65,56Z"/><path class="cls-14" d="M59,56a1,1,0,0,1-1-1V45a1,1,0,0,1,2,0V55A1,1,0,0,1,59,56Z"/><path class="cls-14" d="M53,56a1,1,0,0,1-1-1V45a1,1,0,0,1,2,0V55A1,1,0,0,1,53,56Z"/><path class="cls-14" d="M47,56a1,1,0,0,1-1-1V45a1,1,0,0,1,2,0V55A1,1,0,0,1,47,56Z"/></g><path class="cls-14" d="M69,56H19a1,1,0,0,1,0-2H69a1,1,0,0,1,0,2Z"/><rect class="cls-15" height="5" width="52" x="18" y="70.03"/><path class="cls-14" d="M70,76H18a1,1,0,0,1-1-1V70a1,1,0,0,1,1-1H70a1,1,0,0,1,1,1v5A1,1,0,0,1,70,76ZM19,74H69V71H19Z"/><rect class="cls-16" height="10" width="50" x="19" y="60.03"/><path class="cls-14" d="M69,71H19a1,1,0,0,1-1-1V60a1,1,0,0,1,1-1H69a1,1,0,0,1,1,1V70A1,1,0,0,1,69,71ZM20,69H68V61H20Z"/><g class="cls-10"><path class="cls-14" d="M41,71a1,1,0,0,1-1-1V60a1,1,0,0,1,2,0V70A1,1,0,0,1,41,71Z"/><path class="cls-14" d="M35,71a1,1,0,0,1-1-1V60a1,1,0,0,1,2,0V70A1,1,0,0,1,35,71Z"/><path class="cls-14" d="M29,71a1,1,0,0,1-1-1V60a1,1,0,0,1,2,0V70A1,1,0,0,1,29,71Z"/><path class="cls-14" d="M23,71a1,1,0,0,1-1-1V60a1,1,0,0,1,2,0V70A1,1,0,0,1,23,71Z"/><path class="cls-14" d="M65,71a1,1,0,0,1-1-1V60a1,1,0,0,1,2,0V70A1,1,0,0,1,65,71Z"/><path class="cls-14" d="M59,71a1,1,0,0,1-1-1V60a1,1,0,0,1,2,0V70A1,1,0,0,1,59,71Z"/><path class="cls-14" d="M53,71a1,1,0,0,1-1-1V60a1,1,0,0,1,2,0V70A1,1,0,0,1,53,71Z"/><path class="cls-14" d="M47,71a1,1,0,0,1-1-1V60a1,1,0,0,1,2,0V70A1,1,0,0,1,47,71Z"/></g><path class="cls-14" d="M69,71H19a1,1,0,0,1,0-2H69a1,1,0,0,1,0,2Z"/><rect class="cls-15" height="5" width="52" x="18" y="85.03"/><path class="cls-14" d="M70,91H18a1,1,0,0,1-1-1V85a1,1,0,0,1,1-1H70a1,1,0,0,1,1,1v5A1,1,0,0,1,70,91ZM19,89H69V86H19Z"/><rect class="cls-16" height="10" width="50" x="19" y="75.03"/><path class="cls-14" d="M69,86H19a1,1,0,0,1-1-1V75a1,1,0,0,1,1-1H69a1,1,0,0,1,1,1V85A1,1,0,0,1,69,86ZM20,84H68V76H20Z"/><g class="cls-10"><path class="cls-14" d="M41,86a1,1,0,0,1-1-1V75a1,1,0,0,1,2,0V85A1,1,0,0,1,41,86Z"/><path class="cls-14" d="M35,86a1,1,0,0,1-1-1V75a1,1,0,0,1,2,0V85A1,1,0,0,1,35,86Z"/><path class="cls-14" d="M29,86a1,1,0,0,1-1-1V75a1,1,0,0,1,2,0V85A1,1,0,0,1,29,86Z"/><path class="cls-14" d="M23,86a1,1,0,0,1-1-1V75a1,1,0,0,1,2,0V85A1,1,0,0,1,23,86Z"/><path class="cls-14" d="M65,86a1,1,0,0,1-1-1V75a1,1,0,0,1,2,0V85A1,1,0,0,1,65,86Z"/><path class="cls-14" d="M59,86a1,1,0,0,1-1-1V75a1,1,0,0,1,2,0V85A1,1,0,0,1,59,86Z"/><path class="cls-14" d="M53,86a1,1,0,0,1-1-1V75a1,1,0,0,1,2,0V85A1,1,0,0,1,53,86Z"/><path class="cls-14" d="M47,86a1,1,0,0,1-1-1V75a1,1,0,0,1,2,0V85A1,1,0,0,1,47,86Z"/></g><path class="cls-14" d="M69,86H19a1,1,0,0,1,0-2H69a1,1,0,0,1,0,2Z"/><rect class="cls-16" height="10" width="50" x="19" y="90.03"/><path class="cls-14" d="M69,101H19a1,1,0,0,1-1-1V90a1,1,0,0,1,1-1H69a1,1,0,0,1,1,1v10A1,1,0,0,1,69,101ZM20,99H68V91H20Z"/><g class="cls-10"><path class="cls-14" d="M41,101a1,1,0,0,1-1-1V90a1,1,0,0,1,2,0v10A1,1,0,0,1,41,101Z"/><path class="cls-14" d="M35,101a1,1,0,0,1-1-1V90a1,1,0,0,1,2,0v10A1,1,0,0,1,35,101Z"/><path class="cls-14" d="M29,101a1,1,0,0,1-1-1V90a1,1,0,0,1,2,0v10A1,1,0,0,1,29,101Z"/><path class="cls-14" d="M23,101a1,1,0,0,1-1-1V90a1,1,0,0,1,2,0v10A1,1,0,0,1,23,101Z"/><path class="cls-14" d="M65,101a1,1,0,0,1-1-1V90a1,1,0,0,1,2,0v10A1,1,0,0,1,65,101Z"/><path class="cls-14" d="M59,101a1,1,0,0,1-1-1V90a1,1,0,0,1,2,0v10A1,1,0,0,1,59,101Z"/><path class="cls-14" d="M53,101a1,1,0,0,1-1-1V90a1,1,0,0,1,2,0v10A1,1,0,0,1,53,101Z"/><path class="cls-14" d="M47,101a1,1,0,0,1-1-1V90a1,1,0,0,1,2,0v10A1,1,0,0,1,47,101Z"/></g><path class="cls-14" d="M69,101H19a1,1,0,0,1,0-2H69a1,1,0,0,1,0,2Z"/><rect class="cls-15" height="5" width="52" x="18" y="100.03"/><path class="cls-14" d="M70,106H18a1,1,0,0,1-1-1v-5a1,1,0,0,1,1-1H70a1,1,0,0,1,1,1v5A1,1,0,0,1,70,106Zm-51-2H69v-3H19Z"/><rect class="cls-16" height="10" width="50" x="19" y="105.03"/><path class="cls-14" d="M69,116H19a1,1,0,0,1-1-1V105a1,1,0,0,1,1-1H69a1,1,0,0,1,1,1v10A1,1,0,0,1,69,116Zm-49-2H68v-8H20Z"/><g class="cls-10"><path class="cls-14" d="M41,116a1,1,0,0,1-1-1V105a1,1,0,0,1,2,0v10A1,1,0,0,1,41,116Z"/><path class="cls-14" d="M35,116a1,1,0,0,1-1-1V105a1,1,0,0,1,2,0v10A1,1,0,0,1,35,116Z"/><path class="cls-14" d="M29,116a1,1,0,0,1-1-1V105a1,1,0,0,1,2,0v10A1,1,0,0,1,29,116Z"/><path class="cls-14" d="M23,116a1,1,0,0,1-1-1V105a1,1,0,0,1,2,0v10A1,1,0,0,1,23,116Z"/><path class="cls-14" d="M65,116a1,1,0,0,1-1-1V105a1,1,0,0,1,2,0v10A1,1,0,0,1,65,116Z"/><path class="cls-14" d="M59,116a1,1,0,0,1-1-1V105a1,1,0,0,1,2,0v10A1,1,0,0,1,59,116Z"/><path class="cls-14" d="M53,116a1,1,0,0,1-1-1V105a1,1,0,0,1,2,0v10A1,1,0,0,1,53,116Z"/><path class="cls-14" d="M47,116a1,1,0,0,1-1-1V105a1,1,0,0,1,2,0v10A1,1,0,0,1,47,116Z"/></g><path class="cls-14" d="M69,116H19a1,1,0,0,1,0-2H69a1,1,0,0,1,0,2Z"/><polygon class="cls-17" points="44 39.29 44 43.29 8 52.76 8 48.77 44 39.29"/><polygon class="cls-18" points="7 115.03 7 53.03 45 43.03 45 115.03 7 115.03"/><path class="cls-14" d="M45,116H7a1,1,0,0,1-1-1V53a1,1,0,0,1,.74-1l38-10a1,1,0,0,1,.87.17A1,1,0,0,1,46,43v72A1,1,0,0,1,45,116ZM8,114H44V44.32L8,53.8Z"/><path class="cls-14" d="M7,50a1,1,0,0,1-.26-2l38-10a1,1,0,0,1,1.22.71A1,1,0,0,1,45.25,40l-38,10A.73.73,0,0,1,7,50Z"/><path class="cls-14" d="M8,53.76a1,1,0,0,1-1-1v-4a1,1,0,0,1,2,0v4A1,1,0,0,1,8,53.76Z"/><path class="cls-14" d="M44,44.29a1,1,0,0,1-1-1v-4a1,1,0,1,1,2,0v4A1,1,0,0,1,44,44.29Z"/><polygon class="cls-16" points="11 115.03 11 57.03 41 49.03 41 115.03 11 115.03"/><path class="cls-14" d="M41,116H11a1,1,0,0,1-1-1V57a1,1,0,0,1,.74-1l30-8a1,1,0,0,1,.87.17A1,1,0,0,1,42,49v66A1,1,0,0,1,41,116Zm-29-2H40V50.33L12,57.79Z"/><g class="cls-10"><path class="cls-14" d="M35,116a1,1,0,0,1-1-1V50.63a1,1,0,1,1,2,0V115A1,1,0,0,1,35,116Z"/><path class="cls-14" d="M29,116a1,1,0,0,1-1-1V52.23a1,1,0,1,1,2,0V115A1,1,0,0,1,29,116Z"/><path class="cls-14" d="M23,116a1,1,0,0,1-1-1V53.83a1,1,0,0,1,2,0V115A1,1,0,0,1,23,116Z"/><path class="cls-14" d="M17,116a1,1,0,0,1-1-1V55.43a1,1,0,0,1,2,0V115A1,1,0,0,1,17,116Z"/><path class="cls-14" d="M41,88H11a1,1,0,0,1,0-2H41a1,1,0,0,1,0,2Z"/><path class="cls-14" d="M41,98H11a1,1,0,0,1,0-2H41a1,1,0,0,1,0,2Z"/><path class="cls-14" d="M41,108H11a1,1,0,0,1,0-2H41a1,1,0,0,1,0,2Z"/><path class="cls-14" d="M41,68H11a1,1,0,0,1,0-2H41a1,1,0,0,1,0,2Z"/><path class="cls-14" d="M41,58H11a1,1,0,0,1,0-2H41a1,1,0,0,1,0,2Z"/><path class="cls-14" d="M41,78H11a1,1,0,0,1,0-2H41a1,1,0,0,1,0,2Z"/></g><path class="cls-14" d="M41,116H11a1,1,0,0,1,0-2H41a1,1,0,0,1,0,2Z"/><path class="cls-11" d="M22,111a2.93,2.93,0,0,0-1.11.22A3,3,0,0,0,18,109a3,3,0,0,0-1.68.52A5,5,0,0,0,12,107a5,5,0,0,0-4.6,3c-.13,0-.26,0-.4,0a4,4,0,0,0-4,4v1H25v-1A3,3,0,0,0,22,111Z"/><path class="cls-5" d="M25,116H3a1,1,0,0,1-1-1v-1a5,5,0,0,1,4.81-5,6,6,0,0,1,9.84-.77A3.88,3.88,0,0,1,18,108a4,4,0,0,1,3.48,2,3,3,0,0,1,.52,0,4,4,0,0,1,4,4v1A1,1,0,0,1,25,116ZM4,114H24a2,2,0,0,0-2.74-1.85,1,1,0,0,1-.82,0,1,1,0,0,1-.52-.64,2,2,0,0,0-3-1.13,1,1,0,0,1-.78.14,1,1,0,0,1-.65-.47A3.94,3.94,0,0,0,12,108a4,4,0,0,0-3.68,2.43,1,1,0,0,1-1,.61l-.18,0L7,111A3,3,0,0,0,4,114Z"/><path class="cls-12" d="M13.11,112.12a1,1,0,0,1-.59-.2c-.5-.37-.79-.32-1.12-.11a1,1,0,1,1-1.06-1.7,2.81,2.81,0,0,1,3.37.2,1,1,0,0,1,.2,1.4A1,1,0,0,1,13.11,112.12Z"/><path class="cls-11" d="M84.14,111.17A3,3,0,0,1,87,109a3,3,0,0,1,1.68.52,5,5,0,0,1,9.11,1.15A4,4,0,0,1,104,114v1H82v-1A3,3,0,0,1,84.14,111.17Z"/><path class="cls-5" d="M104,116H82a1,1,0,0,1-1-1v-1a4,4,0,0,1,2.36-3.63A4,4,0,0,1,87,108a3.88,3.88,0,0,1,1.35.24,6,6,0,0,1,10,1A4.93,4.93,0,0,1,100,109a5,5,0,0,1,5,5v1A1,1,0,0,1,104,116Zm-21-2h20a3,3,0,0,0-3-3,3.08,3.08,0,0,0-1.66.5,1,1,0,0,1-.9.1,1,1,0,0,1-.61-.66A4,4,0,0,0,93,108a3.94,3.94,0,0,0-3.45,2,1,1,0,0,1-.65.47,1,1,0,0,1-.78-.14A2,2,0,0,0,87,110a2,2,0,0,0-1.91,1.43,1,1,0,0,1-.67.67A2,2,0,0,0,83,114Zm1.14-2.86h0Z"/><path class="cls-12" d="M94.11,112.06a1,1,0,0,1-.55-.17c-.51-.34-.8-.28-1.11,0a1,1,0,1,1-1.16-1.64,2.8,2.8,0,0,1,3.38,0,1,1,0,0,1-.56,1.84Z"/><path class="cls-14" d="M27,15c-1.19,0-1.88-.37-2.06-1.11a1.39,1.39,0,0,1,.44-1.39c-.79-.5-1.76-1-2.72-1.53a1,1,0,1,1,.89-1.79,32,32,0,0,1,3.44,2,34.41,34.41,0,0,1,3.55-2,1,1,0,1,1,.91,1.78c-1,.52-2,1.09-2.84,1.6A1.38,1.38,0,0,1,29,13.88C28.74,15,27.39,15,27,15Zm.14-1.16h0Z"/><path class="cls-5" d="M113,126H84a1,1,0,0,1,0-2h29a1,1,0,0,1,0,2Z"/><path class="cls-5" d="M81,126H16a1,1,0,0,1,0-2H81a1,1,0,0,1,0,2Z"/><path class="cls-5" d="M13,126H11a1,1,0,0,1,0-2h2a1,1,0,0,1,0,2Z"/></g><path class="cls-5" d="M43.81,69a1.09,1.09,0,0,1-.59-.19,1,1,0,0,1-.22-1.4l2-2.76a1.27,1.27,0,0,0-.29-1.79l-4.62-3.33a1.29,1.29,0,0,0-1.79.29l-2,2.77a1,1,0,1,1-1.62-1.17l2-2.77A3.28,3.28,0,0,1,41.24,58l4.63,3.33a3.27,3.27,0,0,1,.74,4.58l-2,2.76A1,1,0,0,1,43.81,69Z"/><path class="cls-19" d="M25.29,56.76,13.6,73a2,2,0,0,0,.46,2.79L37.58,92.69a2,2,0,0,0,2.79-.46L52.06,76a2,2,0,0,0-.45-2.79L28.08,56.31A2,2,0,0,0,25.29,56.76Z"/><path class="cls-20" d="M42.13,89.8a2,2,0,0,1-2.79.45L15.81,73.33a2,2,0,0,1-.46-2.78L13.6,73a2,2,0,0,0,.46,2.79L37.58,92.69a2,2,0,0,0,2.79-.46Z"/><path class="cls-21" d="M23.54,59.2a2,2,0,0,1,2.79-.45L49.86,75.67a2,2,0,0,1,.46,2.78L52.06,76a2,2,0,0,0-.45-2.79L28.08,56.31a2,2,0,0,0-2.79.46Z"/><path class="cls-5" d="M38.75,94.06A3,3,0,0,1,37,93.5L13.47,76.57a3,3,0,0,1-.68-4.19l11.69-16.2h0a3,3,0,0,1,4.19-.68L52.19,72.43a3,3,0,0,1,1.21,1.95,3,3,0,0,1-.52,2.24l-11.7,16.2A3,3,0,0,1,38.75,94.06ZM26.1,57.35,14.41,73.55a1,1,0,0,0-.17.75,1,1,0,0,0,.4.65L38.17,91.88a1,1,0,0,0,1.39-.23l11.69-16.2a1,1,0,0,0,.18-.75,1,1,0,0,0-.4-.65L27.5,57.12a1,1,0,0,0-1.4.23Z"/><polygon class="cls-22" points="29.77 71.08 27.43 74.3 34.73 79.54 37.07 76.32 29.77 71.08"/><path class="cls-5" d="M34.73,80.54a1,1,0,0,1-.58-.19l-7.3-5.23a1,1,0,0,1-.41-.66,1,1,0,0,1,.18-.75L29,70.5a1,1,0,0,1,1.62,1.17l-1.75,2.41,5.67,4.06,1.76-2.41a1,1,0,0,1,1.4-.22,1,1,0,0,1,.22,1.4l-2.34,3.21A1,1,0,0,1,34.73,80.54Z"/><path class="cls-5" d="M46.35,83.51A3,3,0,0,1,44.6,83L21.07,66a3,3,0,0,1-.68-4.19,1,1,0,0,1,1.4-.22A1,1,0,0,1,22,63a1,1,0,0,0-.17.75,1,1,0,0,0,.4.65L45.77,81.33a1,1,0,0,0,1.39-.23,1,1,0,0,1,1.4-.22,1,1,0,0,1,.22,1.39A3,3,0,0,1,46.35,83.51Z"/><path class="cls-5" d="M40.58,72.42a1,1,0,0,1-.59-.18L32.69,67a1,1,0,1,1,1.17-1.62l7.3,5.23a1,1,0,0,1-.58,1.81Z"/><path class="cls-5" d="M39.18,72.68a1,1,0,0,1-.57-.18,1,1,0,0,1-.25-1.39l.58-.84a1,1,0,0,1,1.65,1.14l-.59.84A1,1,0,0,1,39.18,72.68Z"/><polygon class="cls-22" points="29.71 57.48 15.68 76.93 19.73 79.82 33.76 60.38 29.71 57.48"/><polygon class="cls-21" points="29.71 57.48 27.95 59.89 32.01 62.78 33.76 60.38 29.71 57.48"/><polygon class="cls-20" points="17.43 74.52 15.68 76.93 19.73 79.82 21.49 77.42 17.43 74.52"/><path class="cls-5" d="M19.73,80.82a1,1,0,0,1-.58-.18l-4-2.9a1,1,0,0,1-.41-.65,1,1,0,0,1,.18-.75l14-19.44a1,1,0,0,1,1.39-.23l4.05,2.9a1,1,0,0,1,.41.65,1,1,0,0,1-.18.74l-14,19.45A1,1,0,0,1,19.73,80.82ZM17.08,76.7l2.42,1.73L32.36,60.61l-2.42-1.73Z"/><polygon class="cls-9" points="25.03 63.97 22.11 68 26.16 70.9 29.09 66.87 25.03 63.97"/><path class="cls-5" d="M26.16,71.9a1,1,0,0,1-.58-.19l-4-2.89a1,1,0,0,1-.41-.66,1,1,0,0,1,.18-.74l2.92-4a1,1,0,0,1,1.39-.23l4.06,2.9a1,1,0,0,1,.23,1.4l-2.93,4A1,1,0,0,1,26.16,71.9Zm-2.65-4.13,2.43,1.74,1.74-2.41-2.42-1.73Z"/><path class="cls-5" d="M23.54,71.27a1,1,0,0,1-.8-1.59l1.17-1.6a1,1,0,0,1,1.61,1.19l-1.17,1.59A1,1,0,0,1,23.54,71.27Z"/><path class="cls-5" d="M21.73,73.81a1,1,0,0,1-.6-.2,1,1,0,0,1-.2-1.4l.06-.08a1,1,0,0,1,1.6,1.2l-.06.08A1,1,0,0,1,21.73,73.81Z"/><polygon class="cls-22" points="45.94 69.17 31.9 88.62 35.96 91.52 49.99 72.07 45.94 69.17"/><polygon class="cls-21" points="45.94 69.17 44.18 71.58 48.23 74.48 49.99 72.07 45.94 69.17"/><polygon class="cls-20" points="33.66 86.21 31.9 88.62 35.96 91.52 37.71 89.11 33.66 86.21"/><path class="cls-5" d="M36,92.51a1,1,0,0,1-.58-.18l-4.06-2.9a1,1,0,0,1-.23-1.4l14-19.44a1,1,0,0,1,1.4-.23l4,2.9a1,1,0,0,1,.23,1.4l-14,19.44A1,1,0,0,1,36,92.51ZM33.3,88.39l2.43,1.73L48.59,72.3l-2.43-1.73Z"/><polygon class="cls-9" points="41.26 75.67 38.33 79.69 42.39 82.59 45.31 78.56 41.26 75.67"/><path class="cls-5" d="M42.39,83.59a1,1,0,0,1-.58-.19l-4.06-2.89a1,1,0,0,1-.4-.65,1,1,0,0,1,.17-.75l2.93-4a1,1,0,0,1,1.39-.23l4,2.9a1,1,0,0,1,.41.65,1,1,0,0,1-.18.75l-2.92,4A1,1,0,0,1,42.39,83.59Zm-2.65-4.12,2.42,1.73,1.75-2.41-2.43-1.73Z"/><path class="cls-5" d="M39.77,83a1,1,0,0,1-.59-.19,1,1,0,0,1-.22-1.4l1.18-1.59a1,1,0,0,1,1.39-.22,1,1,0,0,1,.22,1.4l-1.17,1.59A1,1,0,0,1,39.77,83Z"/><path class="cls-5" d="M38,85.5a1,1,0,0,1-.6-.19,1,1,0,0,1-.2-1.4l.06-.08A1,1,0,1,1,38.82,85l-.06.08A1,1,0,0,1,38,85.5Z"/><polygon class="cls-23" points="56.62 33.62 66.36 27.73 65.48 21.57 60.4 22.6 56.55 27.01 56.62 33.62"/><polygon class="cls-24" points="56.62 33.62 66.36 27.73 65.48 21.57 60.4 22.6 56.55 27.01 56.62 33.62"/><path class="cls-5" d="M56.62,34.62a1,1,0,0,1-.52-1.85l9.17-5.56-.63-4.45-3.71.76L57.3,27.67a1,1,0,1,1-1.5-1.31l3.85-4.42a1.09,1.09,0,0,1,.56-.32l5.07-1a1,1,0,0,1,.78.17,1,1,0,0,1,.41.67l.87,6.16a1,1,0,0,1-.47,1l-9.74,5.9A1.06,1.06,0,0,1,56.62,34.62Z"/><polygon class="cls-23" points="56.62 33.62 83.17 43.75 83.28 41.53 56.55 27.01 56.62 33.62"/><path class="cls-5" d="M83.17,44.75a.84.84,0,0,1-.35-.07L56.26,34.56a1,1,0,0,1-.64-.93L55.55,27a1,1,0,0,1,1-1,1,1,0,0,1,1,1l.06,5.93,24.63,9.39v-.21L59.08,29.53a1,1,0,1,1,1-1.76L83.75,40.65a1,1,0,0,1,.53.93l-.11,2.22a1,1,0,0,1-.45.78A1,1,0,0,1,83.17,44.75Z"/><path class="cls-18" d="M79.68,46.53a4.38,4.38,0,0,1-6.35,3.37L61.87,47.57a2.49,2.49,0,0,0-1.77.3L46.93,55.52l-3.79-2.33,13-12.88A5,5,0,0,1,60,38.85l15.2.86C79.69,41.11,80,43.52,79.68,46.53Z"/><path class="cls-5" d="M46.93,56.52a1,1,0,0,1-.52-.15l-3.79-2.32a1,1,0,0,1-.47-.74,1,1,0,0,1,.29-.83l13-12.88a6,6,0,0,1,4.61-1.74l15.2.85a1,1,0,0,1,.24,0c5.35,1.67,5.47,4.94,5.16,7.87a5.52,5.52,0,0,1-2.61,4,5.38,5.38,0,0,1-5,.21L61.67,48.55a1.55,1.55,0,0,0-1.07.18L47.43,56.38A1,1,0,0,1,46.93,56.52ZM44.75,53l2.19,1.34L59.6,47a3.56,3.56,0,0,1,2.47-.41l11.46,2.33a1.06,1.06,0,0,1,.19.06,3.52,3.52,0,0,0,3.32,0,3.47,3.47,0,0,0,1.64-2.49h0c.27-2.58.17-4.5-3.65-5.73L60,39.85A4.08,4.08,0,0,0,56.87,41Z"/><path class="cls-12" d="M51.67,53.76a1,1,0,0,1-.62-.22L46.56,50a1,1,0,0,1-.16-1.41,1,1,0,0,1,1.4-.16L52.29,52a1,1,0,0,1,.17,1.4A1,1,0,0,1,51.67,53.76Z"/><path class="cls-25" d="M46.93,55.52,46.32,59A3,3,0,0,1,44.26,62a3,3,0,0,1-2-.4,5.37,5.37,0,0,1-1.58-2.14,3.54,3.54,0,0,1-.13-3.21l2.59-3Z"/><path class="cls-5" d="M43.8,63a3.92,3.92,0,0,1-2.07-.58,6.24,6.24,0,0,1-2-2.61,4.46,4.46,0,0,1-.15-3.9,1,1,0,0,1,.19-.34l2.59-3a1,1,0,0,1,1.28-.2l3.79,2.32a1,1,0,0,1,.46,1l-.58,3.37a4,4,0,0,1-2.82,3.87A3.2,3.2,0,0,1,43.8,63Zm-2.36-6.29A2.47,2.47,0,0,0,41.57,59a4.31,4.31,0,0,0,1.23,1.74,2,2,0,0,0,1.26.27,2,2,0,0,0,1.27-1.82.81.81,0,0,1,0-.31l.5-2.85-2.49-1.52Z"/><path class="cls-12" d="M47,53.24a1,1,0,0,1-.69-.3l-.06-.07a1,1,0,0,1,1.47-1.36,1,1,0,0,1,0,1.45A1,1,0,0,1,47,53.24Z"/><path class="cls-18" d="M79.68,46.53a4.38,4.38,0,0,1-6.35,3.37L61.87,47.57a2.49,2.49,0,0,0-1.77.3L46.93,55.52l-3.79-2.33,13-12.88A5,5,0,0,1,60,38.85l15.2.86C79.69,41.11,80,43.52,79.68,46.53Z"/><path class="cls-3" d="M57.36,42.85A5,5,0,0,1,61.2,41.4l15.2.85a7.61,7.61,0,0,1,3.3,1.82c-.24-1.86-1.31-3.37-4.49-4.36L60,38.85a5,5,0,0,0-3.84,1.46l-13,12.88,2.32,1.43Z"/><path class="cls-5" d="M46.93,56.52a1,1,0,0,1-.52-.15l-3.79-2.32a1,1,0,0,1-.47-.74,1,1,0,0,1,.29-.83l13-12.88a6,6,0,0,1,4.61-1.74l15.2.85a1,1,0,0,1,.24,0c5.35,1.67,5.47,4.94,5.16,7.87a5.52,5.52,0,0,1-2.61,4,5.38,5.38,0,0,1-5,.21L61.67,48.55a1.55,1.55,0,0,0-1.07.18L47.43,56.38A1,1,0,0,1,46.93,56.52ZM44.75,53l2.19,1.34L59.6,47a3.56,3.56,0,0,1,2.47-.41l11.46,2.33a1.06,1.06,0,0,1,.19.06,3.52,3.52,0,0,0,3.32,0,3.47,3.47,0,0,0,1.64-2.49h0c.27-2.58.17-4.5-3.65-5.73L60,39.85A4.08,4.08,0,0,0,56.87,41Z"/><path class="cls-12" d="M51.67,53.76a1,1,0,0,1-.62-.22L46.56,50a1,1,0,0,1-.16-1.41,1,1,0,0,1,1.4-.16L52.29,52a1,1,0,0,1,.17,1.4A1,1,0,0,1,51.67,53.76Z"/><path class="cls-25" d="M46.93,55.52,46.32,59A3,3,0,0,1,44.26,62a3,3,0,0,1-2-.4,5.37,5.37,0,0,1-1.58-2.14,3.54,3.54,0,0,1-.13-3.21l2.59-3Z"/><path class="cls-5" d="M43.8,63a3.92,3.92,0,0,1-2.07-.58,6.24,6.24,0,0,1-2-2.61,4.46,4.46,0,0,1-.15-3.9,1,1,0,0,1,.19-.34l2.59-3a1,1,0,0,1,1.28-.2l3.79,2.32a1,1,0,0,1,.46,1l-.58,3.37a4,4,0,0,1-2.82,3.87A3.2,3.2,0,0,1,43.8,63Zm-2.36-6.29A2.47,2.47,0,0,0,41.57,59a4.31,4.31,0,0,0,1.23,1.74,2,2,0,0,0,1.26.27,2,2,0,0,0,1.27-1.82.81.81,0,0,1,0-.31l.5-2.85-2.49-1.52Z"/><path class="cls-12" d="M47,53.24a1,1,0,0,1-.69-.3l-.06-.07a1,1,0,0,1,1.47-1.36,1,1,0,0,1,0,1.45A1,1,0,0,1,47,53.24Z"/><polygon class="cls-18" points="68.19 109.08 73.48 104.4 77.2 108.5 71.89 113.36 68.19 109.08"/><polygon class="cls-26" points="71.47 106.18 73.48 104.4 77.2 108.5 75.27 110.27 71.47 106.18"/><path class="cls-5" d="M71.89,114.36h-.06a1,1,0,0,1-.7-.34l-3.69-4.29a1,1,0,0,1,.09-1.4l5.29-4.68a1,1,0,0,1,1.4.08l3.73,4.1a1,1,0,0,1-.07,1.41l-5.32,4.86A1,1,0,0,1,71.89,114.36Zm-2.29-5.19L72,111.93l3.82-3.5-2.38-2.63Z"/><path class="cls-19" d="M72.92,113.41l.94-.8L69,107l-5.11,4.26c1,4,4.28,8.21,9.15,12.1a1.86,1.86,0,0,0,.7.14A2,2,0,0,0,75.06,120C72.15,117.47,72.92,113.41,72.92,113.41Z"/><path class="cls-9" d="M82.85,93.61l-12.18,8.31L77,108.65,91.45,96.92a5.79,5.79,0,0,0-.19-9.13L65.92,67.08,63.7,70.63a10.32,10.32,0,0,0,3.78,14.52Z"/><path class="cls-27" d="M77.9,79.34l.76-1.85-10.9-8.91L66,68a.92.92,0,0,0-.59,0L63.7,70.63a10.32,10.32,0,0,0,3.78,14.52L72,87.62l3.75-4.48A12.59,12.59,0,0,0,77.9,79.34Z"/><path class="cls-5" d="M77,109.65a1,1,0,0,1-.73-.31l-6.35-6.73a1,1,0,0,1-.27-.8,1,1,0,0,1,.43-.72L80.94,93.7,67,86A11.31,11.31,0,0,1,62.86,70.1l2.22-3.55a1,1,0,0,1,1.8.82l-.42,1.42a1,1,0,0,1-.87.71l-1,1.66A9.33,9.33,0,0,0,68,84.28l15.37,8.45a1,1,0,0,1,.09,1.7L72.2,102.09l4.91,5.2,14.6-11.88a3.9,3.9,0,0,0-.12-6.13L72.33,74.86a1,1,0,0,1-.21-1.4,1,1,0,0,1,1.41-.2L92.79,87.68A5.89,5.89,0,0,1,93,97L77.65,109.43A1,1,0,0,1,77,109.65Z"/><path class="cls-5" d="M73.82,124.49h-.07a2.82,2.82,0,0,1-1.08-.22l-.23-.14C67.32,120,64,115.66,63,111.51a1,1,0,0,1,.33-1l5.11-4.27a1,1,0,0,1,1.4.11L74.62,112a1,1,0,0,1,.24.72,1,1,0,0,1-.35.69l-.65.55a6.46,6.46,0,0,0,1.86,5.37,3,3,0,0,1,.76,3.33A2.85,2.85,0,0,1,73.82,124.49Zm-.26-2a.74.74,0,0,0,.25,0,.9.9,0,0,0,.81-.59,1,1,0,0,0-.23-1.11c-3.3-2.91-2.49-7.38-2.45-7.56a1,1,0,0,1,.33-.58l.18-.15-3.53-4.11-3.86,3.21C66.18,115.13,69.11,118.87,73.56,122.46Z"/><path class="cls-5" d="M66.37,117.38a1,1,0,0,1-.79-.39,1,1,0,0,1,.19-1.41l1-.72a1,1,0,1,1,1.21,1.59l-1,.73A1.08,1.08,0,0,1,66.37,117.38Z"/><polygon class="cls-28" points="85.84 32.17 83.2 42.95 75.34 41.65 76.3 31.27 85.84 32.17"/><path class="cls-5" d="M83.2,44h-.1c-1-.09-2.13-.32-3.38-.56a43.83,43.83,0,0,0-4.47-.73,1,1,0,0,1-.91-1.09l1-10.38a1,1,0,0,1,.36-.68,1,1,0,0,1,.73-.23l9.54.9a1,1,0,0,1,.72.42,1,1,0,0,1,.16.82L84.17,43.19A1,1,0,0,1,83.2,44Zm-6.78-3.18c1.26.17,2.53.42,3.69.64.83.17,1.63.33,2.33.43l2.15-8.78-7.39-.7Z"/><path class="cls-25" d="M76.07,33.65s-4.77-2.58-1.88-13.81c1.9-7.36,17.31-5.16,18.3,1.35l-.34,3.55-1,2.31,1.68,2L91.6,30.63A6.46,6.46,0,0,1,90,34.26L86.9,37.88l-4-.37c-1.59-.15-3.81-3.57-3.81-3.57Z"/><g class="cls-1"><path class="cls-29" d="M77,20.1c.83-3.22,4.24-4.61,7.9-4.61-4.56-.84-9.65.32-10.69,4.35-2.89,11.23,1.88,13.81,1.88,13.81l2.79.27S74.09,31.33,77,20.1Z"/></g><path class="cls-30" d="M92.28,23.37l.21-2.18c-1-6.51-16.4-8.71-18.3-1.35-1.45,5.66-.72,6.5.13,8.54.76.25,1.45,0,1.53-.91l.51-5.42,5-1.54C84,23.13,89.55,23.4,92.28,23.37Z"/><path class="cls-5" d="M87.39,28.1h-.14a1.35,1.35,0,0,1-.94-.5,1.39,1.39,0,0,1,.18-2,1.42,1.42,0,0,1,1-.31,1.34,1.34,0,0,1,.94.5,1.41,1.41,0,0,1,.32,1h0a1.46,1.46,0,0,1-.5,1A1.41,1.41,0,0,1,87.39,28.1Zm-.6-1.46a.58.58,0,0,0,.13.44.64.64,0,0,0,.41.22.59.59,0,0,0,.65-.54l-.2,0,.2,0h0a.6.6,0,0,0-.54-.65.65.65,0,0,0-.44.14A.57.57,0,0,0,86.79,26.64Z"/><path class="cls-5" d="M88.18,26.77a.8.8,0,0,1-1.59-.15.8.8,0,1,1,1.59.15Z"/><path class="cls-5" d="M89.93,33.55l-.29,0A2.23,2.23,0,0,1,88,32.64a1,1,0,1,1,1.42-1.42l.14.17c.09.12.11.13.3.15s.3,0,.31-.06a1,1,0,0,1,1.53,1.3A2.21,2.21,0,0,1,89.93,33.55Z"/><path class="cls-5" d="M86.9,38.88a1,1,0,0,1-.29,0L82,37.44a1,1,0,0,1,.58-1.91l3.95,1.21,2.72-3.13a5.41,5.41,0,0,0,1.31-3.08,1,1,0,0,1,.21-.52l.72-.91-1.17-1.41a1,1,0,0,1-.14-1l1-2.16.31-3.26c-.54-2.87-4.81-4.79-8.68-5-3.17-.17-6.84.76-7.64,3.84-2.62,10.18,1.35,12.66,1.39,12.69a1,1,0,1,1-1,1.75c-.23-.12-5.42-3.09-2.37-14.94.91-3.55,4.61-5.6,9.67-5.34,4.78.24,9.95,2.65,10.58,6.79a1,1,0,0,1,0,.24l-.33,3.56a1.18,1.18,0,0,1-.08.31l-.77,1.74,1.28,1.56a1,1,0,0,1,0,1.25l-1,1.32a7.41,7.41,0,0,1-1.76,3.9l-3.14,3.62A1,1,0,0,1,86.9,38.88Z"/><path class="cls-22" d="M90.13,20.93c-2.85-.18-6.53-.82-8.58-2.8l-.12,1.29a4.3,4.3,0,0,1-4.68,3.87l-.5-.05-.42,4.47c-.2,2.18-4.08.7-3.7-3.28.11-1.18.26-2.41.56-5.53.22-2.39,1.86-4.64,3.59-4.48h0a8.71,8.71,0,0,1,7.38-1.71C90.17,14,93.11,13.62,94,16.1A3.74,3.74,0,0,1,90.13,20.93Z"/><path class="cls-31" d="M73,22.35c.22-2.38,1.86-4.63,3.59-4.47A8.67,8.67,0,0,1,84,16.17c5.63,1.12,8.59,1,9.85,2.54A3.41,3.41,0,0,0,94,16.1c-.87-2.48-3.81-2.1-10.32-3.39a8.71,8.71,0,0,0-7.38,1.71c-1.73-.16-3.37,2.09-3.59,4.48-.3,3.12-.45,4.35-.56,5.53A4.73,4.73,0,0,0,72.55,27C72.66,26,72.8,24.71,73,22.35Z"/><path class="cls-5" d="M81.55,19.43h-.09a1,1,0,0,1-.9-1.09,1.12,1.12,0,0,0-.44-.75,1,1,0,1,1,1.31-1.51,3,3,0,0,1,1.12,2.45A1,1,0,0,1,81.55,19.43Z"/><path class="cls-5" d="M88.55,21.77a1.19,1.19,0,0,1-.32-.05,1,1,0,0,1-.62-1.28,1.07,1.07,0,0,0-.24-.84A1,1,0,1,1,89,18.45a3,3,0,0,1,.5,2.65A1,1,0,0,1,88.55,21.77Z"/><path class="cls-5" d="M92.06,21.54a1,1,0,0,1-.33-.06,1,1,0,0,1-.62-1.27,1.07,1.07,0,0,0-.24-.84,1,1,0,1,1,1.63-1.15,2.94,2.94,0,0,1,.5,2.65A1,1,0,0,1,92.06,21.54Z"/><path class="cls-5" d="M85.3,21.11a1,1,0,0,1-.33-.05,1,1,0,0,1-.61-1.27,1.11,1.11,0,0,0-.25-.85,1,1,0,0,1,1.64-1.15,3,3,0,0,1,.5,2.65A1,1,0,0,1,85.3,21.11Z"/><path class="cls-5" d="M74.8,29.72a3.09,3.09,0,0,1-1.75-.61,5.14,5.14,0,0,1-1.92-4.77c.05-.46.1-.93.16-1.51.09-.92.22-2.12.4-4,.25-2.62,2-5.28,4.26-5.38a9.74,9.74,0,0,1,7.91-1.69c1.68.34,3.1.55,4.36.75,3.66.55,5.86.89,6.7,3.28A4.46,4.46,0,0,1,94.24,20a4.85,4.85,0,0,1-4.17,1.93h0a18,18,0,0,1-7.71-2,5.3,5.3,0,0,1-5.2,4.34h0l-.33,3.49a2.05,2.05,0,0,1-1.15,1.73A2.17,2.17,0,0,1,74.8,29.72Zm1.31-14.3c-1,0-2.24,1.59-2.43,3.57s-.31,3.13-.4,4.05c-.06.57-.11,1-.15,1.49a3.14,3.14,0,0,0,1,2.88,1,1,0,0,0,.69.3s0,0,0-.1l.42-4.46a1,1,0,0,1,1.09-.9l.5.05a3.31,3.31,0,0,0,3.58-3l.12-1.3a1,1,0,0,1,1.69-.62c1.86,1.79,5.35,2.36,8,2.52h0a2.81,2.81,0,0,0,2.45-1.14,2.5,2.5,0,0,0,.4-2.36c-.42-1.2-1.65-1.45-5.12-2-1.28-.19-2.72-.41-4.45-.76a7.67,7.67,0,0,0-6.56,1.52,1,1,0,0,1-.72.21Z"/><path class="cls-18" d="M76.93,40.23c-2.28-1.75-6.07.59-7.37,3.68L63.77,66.17c-1.1,2.55-6,11.38-6,11.38l14.49,3.14,2.21-3.1,3.24-7.52S84.31,58,85.81,55c1.84-3.68.08-7.08-2.79-9.48l-1.93-1.69"/><path class="cls-26" d="M80.91,64.18c1.91-3.52,4.9-9.16,4.9-9.16L71.6,50.6Z"/><path class="cls-5" d="M72.25,81.69a.76.76,0,0,1-.21,0l-14.5-3.13a1,1,0,0,1-.69-.57,1,1,0,0,1,0-.9c0-.08,4.81-8.65,5.94-11.22L68.6,43.66a.57.57,0,0,1,0-.14,8.35,8.35,0,0,1,5.18-4.71,4.18,4.18,0,0,1,3.72.62A1,1,0,0,1,76.33,41a2.23,2.23,0,0,0-2-.28,6.37,6.37,0,0,0-3.82,3.49L64.74,66.42a.88.88,0,0,1,0,.15c-.88,2-4,7.78-5.41,10.29l12.54,2.71,1.77-2.47,3.19-7.42c.11-.21,6.67-12.19,8.13-15.11,1.89-3.77-.77-6.79-2.53-8.26l-1.95-1.7a1,1,0,1,1,1.32-1.51l1.93,1.69c3.75,3.13,4.85,7,3,10.68-1.48,3-7.85,14.59-8.12,15.08L75.38,78a1.74,1.74,0,0,1-.1.19l-2.22,3.09A1,1,0,0,1,72.25,81.69Z"/><polygon class="cls-18" points="30.96 113.58 36.38 109.05 39.98 113.26 34.52 117.97 30.96 113.58"/><polygon class="cls-26" points="36.92 115.9 39.98 113.26 36.38 109.05 33.14 111.76 36.92 115.9"/><path class="cls-5" d="M34.52,119h-.09a1,1,0,0,1-.68-.36l-3.57-4.4a1,1,0,0,1,.14-1.39l5.42-4.52a1,1,0,0,1,1.4.12l3.6,4.2a1,1,0,0,1-.11,1.41l-5.46,4.7A1,1,0,0,1,34.52,119Zm-2.17-5.26,2.3,2.83,3.92-3.38-2.31-2.7Z"/><path class="cls-19" d="M40,125c.67-.49.59-2.59-.49-2.81-5.79-1.16-5.2-4-5.2-4l.88-.74-4.45-5.33-5.49,4.16A16.65,16.65,0,0,0,33.8,125Z"/><path class="cls-9" d="M72,82.5,56.33,101.21,39.06,114.44l-7.23-7.94L47.89,96.1A7.19,7.19,0,0,0,49.57,94l9.6-21.56,3.47-3.47L76.2,73.55,74,79A11.54,11.54,0,0,1,72,82.5Z"/><path class="cls-32" d="M49.54,98.35a7.12,7.12,0,0,0,1.75-2.25l10-22.52L65,70l11.15,3.82.09-.22L62.64,68.92l-3.47,3.47L49.57,94a7.19,7.19,0,0,1-1.68,2.15L31.83,106.5l1.91,2.09Z"/><path class="cls-5" d="M39.06,115.44a1,1,0,0,1-.74-.33l-7.23-7.94a1,1,0,0,1,.2-1.51l16-10.36a5.8,5.8,0,0,0,1.39-1.8L58.26,72a1.21,1.21,0,0,1,.2-.3l3.48-3.47A1,1,0,0,1,63,68L76.53,72.6a1,1,0,0,1,.59.53,1.06,1.06,0,0,1,0,.8L74.9,79.34a12.38,12.38,0,0,1-2.18,3.8L57.09,101.85a.57.57,0,0,1-.16.15L39.67,115.23A1,1,0,0,1,39.06,115.44Zm-5.69-8.74,5.81,6.39,16.45-12.61L71.19,81.85h0A10.52,10.52,0,0,0,73,78.63l1.85-4.48-12-4.09L60,73,50.48,94.35a7.9,7.9,0,0,1-1.94,2.51l-.11.08Zm23-5.49Z"/><path class="cls-5" d="M74.12,79.54a1,1,0,0,1-.33-.06L69,77.76a1,1,0,1,1,.67-1.88l4.83,1.72a1,1,0,0,1-.34,1.94Z"/><path class="cls-5" d="M62.64,75.71a.85.85,0,0,1-.31-.06L58.85,74.5a1,1,0,0,1,.64-1.9L63,73.76A1,1,0,0,1,63.59,75,1,1,0,0,1,62.64,75.71Z"/><path class="cls-5" d="M40,126H33.8a1.06,1.06,0,0,1-.42-.09,17.65,17.65,0,0,1-9.09-9.25,1,1,0,0,1,.33-1.15l5.48-4.17a1,1,0,0,1,1.38.15l4.45,5.33a1,1,0,0,1-.12,1.41l-.54.45c.16.71,1.18,1.89,4.41,2.54a2.18,2.18,0,0,1,1.63,1.8,2.79,2.79,0,0,1-.74,2.79A1,1,0,0,1,40,126ZM34,124h5.36a1.18,1.18,0,0,0-.16-.85c-2.64-.52-4.46-1.49-5.37-2.86A3.12,3.12,0,0,1,33.3,118a1,1,0,0,1,.33-.57l.13-.1-3.21-3.83-4.11,3.12A15.86,15.86,0,0,0,34,124Z"/><path class="cls-5" d="M28.37,122.14a1,1,0,0,1-.79-.39,1,1,0,0,1,.19-1.4l.95-.73a1,1,0,1,1,1.21,1.59l-.95.73A1,1,0,0,1,28.37,122.14Z"/><path class="cls-18" d="M83.13,45.61l-7.75-4.88-.22-4.14,6.86,4a3.48,3.48,0,0,1,1.35,4.6Z"/><path class="cls-5" d="M83.13,46.61a1,1,0,0,1-.45-.11,1,1,0,0,1-.43-1.35l.23-.46a2.48,2.48,0,0,0-1-3.27l-5.26-3,.06,1.2a1,1,0,0,1-.94,1.06,1,1,0,0,1-1-1l-.17-3a1,1,0,0,1,.47-.9,1,1,0,0,1,1,0l6.86,4a4.47,4.47,0,0,1,1.74,5.92l-.24.45A1,1,0,0,1,83.13,46.61Z"/><path class="cls-18" d="M106.49,51.94,92.36,62.56a5.09,5.09,0,0,1-6.63-.45l-9.51-9.37c-3-2.29-2.42-5.13-.77-7.8a4.67,4.67,0,0,1,7.2-.76l6.11,8.59a2.53,2.53,0,0,0,3.1.85L104,48.21Z"/><path class="cls-3" d="M81.09,46.85l6.55,8.73c.7,1,3.18,1.11,4.29.61L105.2,50,104,48.21,91.86,53.62a2.53,2.53,0,0,1-3.1-.85l-6.11-8.59a4.67,4.67,0,0,0-7.2.76A6.86,6.86,0,0,1,81.09,46.85Z"/><path class="cls-12" d="M103.22,52.72a.92.92,0,0,1-.69-.31l-.06-.07a1,1,0,0,1,.06-1.41A1,1,0,0,1,104,51a1,1,0,0,1,0,1.44A1,1,0,0,1,103.22,52.72Z"/><path class="cls-5" d="M89.31,64.56A6.09,6.09,0,0,1,85,62.83L71.94,51.36a1,1,0,0,1,1.32-1.51L86.39,61.36a4.14,4.14,0,0,0,5.37.4l13.38-10-1.47-2.24-11.4,5.07a3.56,3.56,0,0,1-4.33-1.19l-6.11-8.6a1,1,0,1,1,1.63-1.15l6.11,8.59a1.56,1.56,0,0,0,1.89.52l12.17-5.42a1,1,0,0,1,1.24.37l2.45,3.74a1,1,0,0,1-.23,1.34L93,63.36A6.07,6.07,0,0,1,89.31,64.56Z"/><path class="cls-25" d="M104,48.21l2-2.72a3.78,3.78,0,0,1,3.56-2,2.92,2.92,0,0,1,1.73,1.17,5,5,0,0,1,.4,2.69,4,4,0,0,1-1.58,3.13l-3.63,1.46Z"/><path class="cls-5" d="M106.49,52.94a1,1,0,0,1-.84-.45l-2.45-3.74a1,1,0,0,1,0-1.13L105.14,45a4.75,4.75,0,0,1,4.57-2.5,3.88,3.88,0,0,1,2.43,1.63,5.76,5.76,0,0,1,.55,3.34,4.91,4.91,0,0,1-1.87,3.73,1,1,0,0,1-.32.21l-3.64,1.46A1,1,0,0,1,106.49,52.94Zm-1.24-4.7,1.62,2.47,2.69-1.08a2.89,2.89,0,0,0,1.14-2.32,4,4,0,0,0-.25-2.11,1.86,1.86,0,0,0-1.08-.73,2.81,2.81,0,0,0-2.43,1.39.94.94,0,0,1-.12.22Z"/><path class="cls-12" d="M102.31,56.08a1,1,0,0,1-.82-.42L98.19,51a1,1,0,1,1,1.63-1.15l3.3,4.63a1,1,0,0,1-.24,1.4A1,1,0,0,1,102.31,56.08Z"/></svg>