<?xml version="1.0" ?><svg data-name="016" id="_016" viewBox="0 0 128 128" xmlns="http://www.w3.org/2000/svg"><defs><style>.cls-1,.cls-12,.cls-28,.cls-5,.cls-6,.cls-9{opacity:0.3;}.cls-2{fill:#ff9797;}.cls-3{fill:#6d6da8;}.cls-4{fill:#afefa6;}.cls-13,.cls-21,.cls-24,.cls-5{fill:#fff;}.cls-6{fill:#48ba33;}.cls-13,.cls-14,.cls-7{opacity:0.5;}.cls-8{fill:#c9c1f5;}.cls-9{fill:#554dab;}.cls-10,.cls-14{fill:#6d6daa;}.cls-11{fill:#d2ebff;}.cls-12{fill:#5cbcff;}.cls-15{fill:#ccd6ec;}.cls-16{fill:#9eb2cc;}.cls-17{fill:#2c4b75;}.cls-17,.cls-20{opacity:0.2;}.cls-18{fill:#d6b5b0;}.cls-19{fill:#91765f;opacity:0.3;}.cls-20{fill:#750000;}.cls-21{opacity:0.4;}.cls-22{fill:#fedbc1;}.cls-23{fill:#c7bff3;}.cls-25{fill:#f7e0da;}.cls-26{fill:#f9e2dc;}.cls-27{fill:#eddad0;}.cls-28{fill:#ca7e54;}.cls-29{fill:#ffd397;}.cls-30{fill:#d4b3ae;}</style></defs><title/><g class="cls-1"><path class="cls-2" d="M116,47A39,39,0,1,0,38.93,35,20.59,20.59,0,0,1,23.54,51.71a30.75,30.75,0,1,0,22,57c7.6-4,17-2.68,22.63,3.83A33.75,33.75,0,0,0,121.6,71.44,33.65,33.65,0,0,1,116,47Z"/><path class="cls-3" d="M97,12H56a1,1,0,0,1,0-2H97a1,1,0,0,1,0,2Z"/><path class="cls-3" d="M96,20H53a1,1,0,0,1,0-2H96a1,1,0,0,1,0,2Z"/><path class="cls-3" d="M89,28H49a1,1,0,0,1,0-2H89a1,1,0,0,1,0,2Z"/><path class="cls-3" d="M85,12a1,1,0,0,1-1-1V8a1,1,0,0,1,2,0v3A1,1,0,0,1,85,12Z"/><path class="cls-3" d="M67,12a1,1,0,0,1-1-1V7a1,1,0,0,1,2,0v4A1,1,0,0,1,67,12Z"/><path class="cls-3" d="M85,28a1,1,0,0,1-1-1V19a1,1,0,0,1,2,0v8A1,1,0,0,1,85,28Z"/><path class="cls-3" d="M67,28a1,1,0,0,1-1-1V19a1,1,0,0,1,2,0v8A1,1,0,0,1,67,28Z"/><path class="cls-3" d="M76,20a1,1,0,0,1-1-1V11a1,1,0,0,1,2,0v8A1,1,0,0,1,76,20Z"/><path class="cls-3" d="M94,20a1,1,0,0,1-1-1V11a1,1,0,0,1,2,0v8A1,1,0,0,1,94,20Z"/><path class="cls-3" d="M58,20a1,1,0,0,1-1-1V11a1,1,0,0,1,2,0v8A1,1,0,0,1,58,20Z"/><path class="cls-3" d="M76,30a1,1,0,0,1-1-1V27a1,1,0,0,1,2,0v2A1,1,0,0,1,76,30Z"/><path class="cls-3" d="M58,31a1,1,0,0,1-1-1V27a1,1,0,0,1,2,0v3A1,1,0,0,1,58,31Z"/><path class="cls-3" d="M78,92H38a1,1,0,0,1,0-2H78a1,1,0,0,1,0,2Z"/><path class="cls-3" d="M76,84H40a1,1,0,0,1,0-2H76a1,1,0,0,1,0,2Z"/><path class="cls-3" d="M72,76H37a1,1,0,0,1,0-2H72a1,1,0,0,1,0,2Z"/><path class="cls-3" d="M69,96a1,1,0,0,1-1-1V91a1,1,0,0,1,2,0v4A1,1,0,0,1,69,96Z"/><path class="cls-3" d="M51,98a1,1,0,0,1-1-1V91a1,1,0,0,1,2,0v6A1,1,0,0,1,51,98Z"/><path class="cls-3" d="M69,84a1,1,0,0,1-1-1V75a1,1,0,0,1,2,0v8A1,1,0,0,1,69,84Z"/><path class="cls-3" d="M51,84a1,1,0,0,1-1-1V75a1,1,0,0,1,2,0v8A1,1,0,0,1,51,84Z"/><path class="cls-3" d="M60,92a1,1,0,0,1-1-1V83a1,1,0,0,1,2,0v8A1,1,0,0,1,60,92Z"/><path class="cls-3" d="M42,92a1,1,0,0,1-1-1V83a1,1,0,0,1,2,0v8A1,1,0,0,1,42,92Z"/><path class="cls-3" d="M60,76a1,1,0,0,1-1-1V73a1,1,0,0,1,2,0v2A1,1,0,0,1,60,76Z"/><path class="cls-3" d="M42,76a1,1,0,0,1-1-1V72a1,1,0,0,1,2,0v3A1,1,0,0,1,42,76Z"/><path class="cls-3" d="M127,126H1a1,1,0,0,1,0-2H127a1,1,0,0,1,0,2Z"/><path class="cls-4" d="M46,87.43a1.4,1.4,0,0,1,2,0,1.69,1.69,0,0,0,2.1.42,1.4,1.4,0,0,1,1.87.78,1.68,1.68,0,0,0,1.77,1.18,1.4,1.4,0,0,1,1.44,1.43A1.69,1.69,0,0,0,56.37,93a1.4,1.4,0,0,1,.78,1.87,1.69,1.69,0,0,0,.42,2.1A1.41,1.41,0,0,1,58,98a1.39,1.39,0,0,1-.44,1,1.7,1.7,0,0,0-.41,2.1,1.4,1.4,0,0,1-.78,1.87,1.69,1.69,0,0,0-1.18,1.78,1.4,1.4,0,0,1-1.44,1.43A1.68,1.68,0,0,0,52,107.37a1.4,1.4,0,0,1-1.87.78,1.69,1.69,0,0,0-2.1.42,1.4,1.4,0,0,1-2,0,1.69,1.69,0,0,0-2.1-.42,1.4,1.4,0,0,1-1.87-.78,1.69,1.69,0,0,0-1.78-1.18,1.4,1.4,0,0,1-1.43-1.43A1.69,1.69,0,0,0,37.63,103a1.4,1.4,0,0,1-.78-1.87,1.69,1.69,0,0,0-.42-2.1,1.4,1.4,0,0,1,0-2,1.69,1.69,0,0,0,.42-2.1A1.4,1.4,0,0,1,37.63,93a1.69,1.69,0,0,0,1.18-1.78,1.4,1.4,0,0,1,1.43-1.43A1.69,1.69,0,0,0,42,88.63a1.4,1.4,0,0,1,1.87-.78A1.69,1.69,0,0,0,46,87.43Z"/><path class="cls-5" d="M43.66,89.51a.76.76,0,0,1,1.09,0,.92.92,0,0,0,1.13.23.75.75,0,0,1,1,.41.91.91,0,0,0,1,.64.78.78,0,0,1,.55.22.74.74,0,0,1,.22.56.9.9,0,0,0,.64,1,.77.77,0,0,1,.43.42.76.76,0,0,1,0,.59.91.91,0,0,0,.23,1.13.76.76,0,0,1,.23.55.73.73,0,0,1-.23.54.91.91,0,0,0-.23,1.13.78.78,0,0,1,0,.6.73.73,0,0,1-.43.41.92.92,0,0,0-.64,1,.75.75,0,0,1-.77.77.92.92,0,0,0-1,.64.73.73,0,0,1-.41.43.78.78,0,0,1-.6,0,.91.91,0,0,0-1.13.23.76.76,0,0,1-1.09,0,.91.91,0,0,0-1.13-.23.71.71,0,0,1-.59,0,.77.77,0,0,1-.42-.43.91.91,0,0,0-1-.64A.74.74,0,0,1,40,99.4a.78.78,0,0,1-.22-.55.91.91,0,0,0-.64-1,.75.75,0,0,1-.41-1,.93.93,0,0,0-.23-1.13.73.73,0,0,1-.23-.54.76.76,0,0,1,.23-.55.92.92,0,0,0,.23-1.13.71.71,0,0,1,0-.59.79.79,0,0,1,.42-.42.89.89,0,0,0,.64-1,.75.75,0,0,1,.78-.78.89.89,0,0,0,1-.64.79.79,0,0,1,.42-.42.71.71,0,0,1,.59,0A.92.92,0,0,0,43.66,89.51Z"/><path class="cls-6" d="M58,98a1.41,1.41,0,0,0-.43-1,1.69,1.69,0,0,1-.42-2.1A1.4,1.4,0,0,0,56.37,93a1.69,1.69,0,0,1-1.18-1.78,1.4,1.4,0,0,0-1.44-1.43,1.85,1.85,0,0,1-1.08-.27,1.86,1.86,0,0,0,.91.69,1.4,1.4,0,0,1,.78,1.87,1.7,1.7,0,0,0,.41,2.1,1.38,1.38,0,0,1,0,2,1.7,1.7,0,0,0-.41,2.1,1.4,1.4,0,0,1,0,1.1,1.42,1.42,0,0,1-.79.77A1.68,1.68,0,0,0,52.4,102a1.4,1.4,0,0,1-.41,1,1.44,1.44,0,0,1-1,.41,1.68,1.68,0,0,0-1.77,1.18,1.4,1.4,0,0,1-1.87.78,1.7,1.7,0,0,0-2.1.41,1.39,1.39,0,0,1-1,.44,1.37,1.37,0,0,1-1-.44,1.7,1.7,0,0,0-2.1-.41,1.4,1.4,0,0,1-1.1,0,1.36,1.36,0,0,1-.77-.79,1.86,1.86,0,0,0-.69-.91,1.86,1.86,0,0,1,.27,1.09,1.4,1.4,0,0,0,1.43,1.43A1.69,1.69,0,0,1,42,107.37a1.4,1.4,0,0,0,1.87.78,1.69,1.69,0,0,1,2.1.42,1.4,1.4,0,0,0,2,0,1.69,1.69,0,0,1,2.1-.42,1.4,1.4,0,0,0,1.87-.78,1.68,1.68,0,0,1,1.77-1.18,1.4,1.4,0,0,0,1.44-1.43A1.69,1.69,0,0,1,56.37,103a1.4,1.4,0,0,0,.78-1.87,1.7,1.7,0,0,1,.41-2.1A1.39,1.39,0,0,0,58,98Z"/><path class="cls-3" d="M47,110a2.38,2.38,0,0,1-1.74-.75.72.72,0,0,0-1-.19,2.38,2.38,0,0,1-3.21-1.33.71.71,0,0,0-.82-.54,2.41,2.41,0,0,1-2.46-2.46.72.72,0,0,0-.54-.82,2.38,2.38,0,0,1-1.33-3.21.72.72,0,0,0-.19-1,2.39,2.39,0,0,1,0-3.48.72.72,0,0,0,.19-1,2.38,2.38,0,0,1,1.33-3.21.72.72,0,0,0,.54-.82,2.39,2.39,0,0,1,2.46-2.46.7.7,0,0,0,.82-.54,2.38,2.38,0,0,1,3.21-1.33.72.72,0,0,0,1-.19,2.48,2.48,0,0,1,3.48,0,.72.72,0,0,0,1,.19,2.38,2.38,0,0,1,3.21,1.33.7.7,0,0,0,.82.54,2.37,2.37,0,0,1,1.75.7,2.44,2.44,0,0,1,.71,1.76.71.71,0,0,0,.54.82,2.38,2.38,0,0,1,1.33,3.21.72.72,0,0,0,.19,1,2.39,2.39,0,0,1,0,3.48.72.72,0,0,0-.19,1,2.38,2.38,0,0,1-1.33,3.21.71.71,0,0,0-.54.82,2.39,2.39,0,0,1-2.46,2.46.73.73,0,0,0-.82.54,2.38,2.38,0,0,1-3.21,1.33.72.72,0,0,0-1,.19A2.4,2.4,0,0,1,47,110Zm-2.28-3a2.71,2.71,0,0,1,2,.92.43.43,0,0,0,.58,0,2.7,2.7,0,0,1,3.22-.65.4.4,0,0,0,.32,0A.38.38,0,0,0,51,107a2.67,2.67,0,0,1,2.74-1.83.56.56,0,0,0,.29-.12.38.38,0,0,0,.12-.29A2.67,2.67,0,0,1,56,102.05a.39.39,0,0,0,.23-.22.42.42,0,0,0,0-.31,2.68,2.68,0,0,1,.64-3.23.41.41,0,0,0,0-.58,2.71,2.71,0,0,1-.65-3.23.37.37,0,0,0,0-.31A.39.39,0,0,0,56,94a2.67,2.67,0,0,1-1.82-2.73.4.4,0,0,0-.12-.29.41.41,0,0,0-.29-.12A2.67,2.67,0,0,1,51,89a.35.35,0,0,0-.21-.22.44.44,0,0,0-.32,0,2.68,2.68,0,0,1-3.22-.64.42.42,0,0,0-.58,0h0a2.7,2.7,0,0,1-3.22.65.4.4,0,0,0-.32,0A.35.35,0,0,0,43,89a2.69,2.69,0,0,1-2.74,1.83.4.4,0,0,0-.29.12.38.38,0,0,0-.12.29A2.66,2.66,0,0,1,38,94a.4.4,0,0,0-.22.22.44.44,0,0,0,0,.32,2.68,2.68,0,0,1-.64,3.22.41.41,0,0,0,0,.58,2.68,2.68,0,0,1,.64,3.22.44.44,0,0,0,0,.32A.35.35,0,0,0,38,102a2.68,2.68,0,0,1,1.83,2.74.4.4,0,0,0,.12.29.37.37,0,0,0,.29.12A2.66,2.66,0,0,1,43,107a.4.4,0,0,0,.22.22.42.42,0,0,0,.31,0A3,3,0,0,1,44.72,107ZM46,87.43h0Z"/><g class="cls-7"><path class="cls-3" d="M47.44,104a2.05,2.05,0,0,1-1.78-1,1,1,0,0,1,1.74-1,0,0,0,0,0,.06,0,1,1,0,0,1,.37-1.4,1,1,0,0,1,1.38.34,2,2,0,0,1-.75,2.79A2,2,0,0,1,47.44,104Z"/><path class="cls-3" d="M53.23,96.66a1,1,0,0,1-.5-.13,1,1,0,0,1-.37-1.37,0,0,0,0,0,0-.06,1,1,0,0,1-1.39.37,1,1,0,0,1-.4-1.35,2,2,0,0,1,2.79-.75,2,2,0,0,1,.75,2.79A1,1,0,0,1,53.23,96.66Z"/><path class="cls-3" d="M43.5,96a.91.91,0,0,1-.67-.28,2,2,0,0,1,0-2.89,2.09,2.09,0,0,1,2.89,0,1,1,0,0,1-1.41,1.41.08.08,0,0,0-.07,0A1,1,0,0,1,43.5,96Z"/><path class="cls-3" d="M42,97.52a.94.94,0,0,1-.68-.28,2,2,0,0,1-.59-1.44,2.06,2.06,0,0,1,.59-1.45,2.1,2.1,0,0,1,2.9,0,1,1,0,1,1-1.41,1.41.08.08,0,0,0-.07,0A1,1,0,0,1,42,97.52Z"/></g><path class="cls-8" d="M53.26,119H40.73a2,2,0,0,1-2-1.72L37,105H57l-1.76,12.28A2,2,0,0,1,53.26,119Z"/><path class="cls-9" d="M52.5,105l-.88,12.28c-.07,1-.49,1.72-1,1.72h2.63a2,2,0,0,0,2-1.72L57,105Z"/><path class="cls-5" d="M45.5,105h-5l1.07,12.28c.09,1,.6,1.72,1.21,1.72H45.7a7.87,7.87,0,0,1-.11-1.72Z"/><path class="cls-10" d="M53.26,120H40.73a3,3,0,0,1-3-2.57L36,105.14a1,1,0,0,1,.23-.79A1,1,0,0,1,37,104H57a1,1,0,0,1,1,1.14l-1.76,12.29A3,3,0,0,1,53.26,120ZM38.15,106l1.59,11.14a1,1,0,0,0,1,.86H53.26a1,1,0,0,0,1-.86L55.84,106Z"/><path class="cls-10" d="M58,106H36a1,1,0,0,1,0-2H58a1,1,0,0,1,0,2Z"/><path class="cls-10" d="M56.42,110H37.57a1,1,0,1,1,0-2H56.42a1,1,0,1,1,0,2Z"/><rect class="cls-11" height="14" rx="2" width="10" x="50" y="39"/><path class="cls-12" d="M58,50H52a2,2,0,0,1-2-2v3a2,2,0,0,0,2,2h6a2,2,0,0,0,2-2V48A2,2,0,0,1,58,50Z"/><path class="cls-13" d="M58,39H52a2,2,0,0,0-2,2v3a2,2,0,0,1,2-2h6a2,2,0,0,1,2,2V41A2,2,0,0,0,58,39Z"/><path class="cls-10" d="M58,54H52a3,3,0,0,1-3-3V41a3,3,0,0,1,3-3h6a3,3,0,0,1,3,3V51A3,3,0,0,1,58,54ZM52,40a1,1,0,0,0-1,1V51a1,1,0,0,0,1,1h6a1,1,0,0,0,1-1V41a1,1,0,0,0-1-1Z"/><path class="cls-14" d="M57,43H53a1,1,0,0,1,0-2h4a1,1,0,0,1,0,2Z"/><path class="cls-14" d="M57,46H53a1,1,0,0,1,0-2h4a1,1,0,0,1,0,2Z"/><path class="cls-10" d="M55,51a2,2,0,1,1,2-2A2,2,0,0,1,55,51Zm0-2Z"/></g><rect class="cls-15" height="6" width="120" x="4" y="118.99"/><path class="cls-3" d="M124,126H4a1,1,0,0,1-1-1v-6a1,1,0,0,1,1-1H124a1,1,0,0,1,1,1v6A1,1,0,0,1,124,126ZM5,124H123v-4H5Z"/><g class="cls-7"><path class="cls-3" d="M24,126a1,1,0,0,1-1-1v-6a1,1,0,1,1,2,0v6A1,1,0,0,1,24,126Z"/><path class="cls-3" d="M44,126a1,1,0,0,1-1-1v-6a1,1,0,1,1,2,0v6A1,1,0,0,1,44,126Z"/><path class="cls-3" d="M64,126a1,1,0,0,1-1-1v-6a1,1,0,1,1,2,0v6A1,1,0,0,1,64,126Z"/><path class="cls-3" d="M104,126a1,1,0,0,1-1-1v-6a1,1,0,1,1,2,0v6A1,1,0,0,1,104,126Z"/><path class="cls-3" d="M84,126a1,1,0,0,1-1-1v-6a1,1,0,1,1,2,0v6A1,1,0,0,1,84,126Z"/></g><rect class="cls-16" height="6" width="60" x="62" y="113"/><rect class="cls-13" height="6" width="3" x="62" y="113"/><rect class="cls-17" height="6" width="3" x="119" y="113"/><rect class="cls-16" height="3" width="62" x="61" y="110"/><rect class="cls-13" height="3" width="3" x="61" y="110"/><rect class="cls-17" height="3" width="3" x="120" y="110"/><path class="cls-10" d="M122,120H62a1,1,0,0,1-1-1v-6a1,1,0,0,1,1-1h60a1,1,0,0,1,1,1v6A1,1,0,0,1,122,120Zm-59-2h58v-4H63Z"/><path class="cls-10" d="M123,114H61a1,1,0,0,1-1-1v-3a1,1,0,0,1,1-1h62a1,1,0,0,1,1,1v3A1,1,0,0,1,123,114Zm-61-2h60v-1H62Z"/><rect class="cls-18" height="91" width="56" x="64" y="19"/><path class="cls-19" d="M115,25a1,1,0,0,1-.71-.29,1,1,0,0,1,0-1.42l5-5a1,1,0,0,1,1.42,1.42l-5,5A1,1,0,0,1,115,25Z"/><path class="cls-19" d="M69,25a1,1,0,0,1-.71-.29l-5-5a1,1,0,0,1,1.42-1.42l5,5a1,1,0,0,1,0,1.42A1,1,0,0,1,69,25Z"/><rect class="cls-20" height="3" width="56" x="64" y="107"/><rect class="cls-20" height="3" width="56" x="64" y="19"/><path class="cls-10" d="M120,111H64a1,1,0,0,1-1-1V19a1,1,0,0,1,1-1h56a1,1,0,0,1,1,1v91A1,1,0,0,1,120,111Zm-55-2h54V20H65Z"/><rect class="cls-18" height="3" width="60" x="62" y="16"/><rect class="cls-20" height="3" width="3" x="119" y="16"/><rect class="cls-21" height="3" width="3" x="62" y="16"/><path class="cls-10" d="M122,20H62a1,1,0,0,1-1-1V16a1,1,0,0,1,1-1h60a1,1,0,0,1,1,1v3A1,1,0,0,1,122,20ZM63,18h58V17H63Z"/><rect class="cls-18" height="86" width="46" x="69" y="24"/><rect class="cls-20" height="3" width="46" x="69" y="107"/><rect class="cls-21" height="3" width="46" x="69" y="24"/><path class="cls-10" d="M115,111H69a1,1,0,0,1-1-1V24a1,1,0,0,1,1-1h46a1,1,0,0,1,1,1v86A1,1,0,0,1,115,111Zm-45-2h44V25H70Z"/><rect class="cls-22" height="28" width="28" x="78" y="53"/><rect class="cls-20" height="3" width="28" x="78" y="78"/><rect class="cls-21" height="3" width="28" x="78" y="53"/><path class="cls-10" d="M106,82H78a1,1,0,0,1-1-1V53a1,1,0,0,1,1-1h28a1,1,0,0,1,1,1V81A1,1,0,0,1,106,82ZM79,80h26V54H79Z"/><rect class="cls-22" height="12" width="28" x="78" y="33"/><rect class="cls-21" height="3" width="28" x="78" y="33"/><rect class="cls-20" height="3" width="28" x="78" y="42"/><path class="cls-10" d="M106,46H78a1,1,0,0,1-1-1V33a1,1,0,0,1,1-1h28a1,1,0,0,1,1,1V45A1,1,0,0,1,106,46ZM79,44h26V34H79Z"/><rect class="cls-22" height="12" width="28" x="78" y="89"/><rect class="cls-21" height="3" width="28" x="78" y="89"/><rect class="cls-20" height="3" width="28" x="78" y="98"/><path class="cls-10" d="M106,102H78a1,1,0,0,1-1-1V89a1,1,0,0,1,1-1h28a1,1,0,0,1,1,1v12A1,1,0,0,1,106,102Zm-27-2h26V90H79Z"/><rect class="cls-11" height="9" width="3" x="72" y="62"/><path class="cls-10" d="M75,72H72a1,1,0,0,1-1-1V62a1,1,0,0,1,1-1h3a1,1,0,0,1,1,1v9A1,1,0,0,1,75,72Zm-2-2h1V63H73Z"/><path class="cls-11" d="M80.5,68H72V65h8.5A1.5,1.5,0,0,1,82,66.5h0A1.5,1.5,0,0,1,80.5,68Z"/><path class="cls-10" d="M80.5,69H72a1,1,0,0,1-1-1V65a1,1,0,0,1,1-1h8.5a2.5,2.5,0,0,1,0,5ZM73,67h7.5a.5.5,0,0,0,0-1H73Z"/><path class="cls-23" d="M13.81,83.9H31V71.41l1.16-8.78-4.64-2.21c-.51,1.64-2.95,3-5.5,3a6,6,0,0,1-5.46-3.14H16.5l-5,2.38a5,5,0,0,0-2.77,3.94l-.93,7.78a7.57,7.57,0,0,0,0,1.78L9,86.76h4.77Z"/><polygon class="cls-24" points="12.9 86.76 8.95 86.88 8.56 83.18 12.9 83.18 12.9 86.76"/><path class="cls-25" d="M9,87h4a0,0,0,0,1,0,0v5.6a0,0,0,0,1,0,0h-.64A3.36,3.36,0,0,1,9,89.24V87A0,0,0,0,1,9,87Z"/><path class="cls-3" d="M13,93.6h-.64A4.37,4.37,0,0,1,8,89.24V87a1,1,0,0,1,1-1h4a1,1,0,0,1,1,1v5.6A1,1,0,0,1,13,93.6ZM10,88v1.24a2.36,2.36,0,0,0,2,2.33V88Z"/><path class="cls-23" d="M31.88,69.65l20-4.73-.74-5.18L31.88,62.26C28.92,62.26,28.92,69.65,31.88,69.65Z"/><path class="cls-3" d="M13,84.9a1,1,0,0,1-1-1V71.41a1,1,0,0,1,2,0V83.9A1,1,0,0,1,13,84.9Z"/><path class="cls-3" d="M31,84.9a1,1,0,0,1-1-1V70a1,1,0,0,1,2,0V83.9A1,1,0,0,1,31,84.9Z"/><path class="cls-5" d="M7.86,76.8l.85-7.17a5,5,0,0,1,2.77-3.94l5-2.38h.06A6,6,0,0,0,22,66.45c2.55,0,5-1.39,5.5-3l2.92,1.39a4,4,0,0,0,2.23.35L51.1,62.74,51.42,65l.42-.09-.74-5.18L31.88,62.26a1.67,1.67,0,0,0-.38.06l-4-1.9c-.51,1.64-2.95,3-5.5,3a6,6,0,0,1-5.46-3.14H16.5l-5,2.38a5,5,0,0,0-2.77,3.94l-.93,7.78a7.57,7.57,0,0,0,0,1.78Z"/><path class="cls-3" d="M13.82,88H9a1,1,0,0,1-1-.88L6.79,76.31a8.53,8.53,0,0,1,0-2l.92-7.77a6.07,6.07,0,0,1,3.34-4.74l5-2.38a1,1,0,1,1,.85,1.81l-5,2.38A4,4,0,0,0,9.7,66.75l-.92,7.78a5.6,5.6,0,0,0,0,1.53L9.93,86h3.89a1,1,0,0,1,0,2Z"/><path class="cls-3" d="M13,84H9a1,1,0,0,1,0-2h4a1,1,0,0,1,0,2Z"/><path class="cls-26" d="M51.83,64.59l2.77-.43a3.57,3.57,0,0,0,3-3.49l0-1.09L54,60.07l-.75-2.28-1.63.28-.38,2.87Z"/><path class="cls-10" d="M51.82,65.59a1,1,0,0,1-1-.85l-.56-3.65a.94.94,0,0,1,0-.29l.39-2.87a1,1,0,0,1,.82-.85l1.64-.28a1,1,0,0,1,1.11.68L54.72,59l2.8-.38a1,1,0,0,1,.8.24,1,1,0,0,1,.34.76l0,1.1a4.55,4.55,0,0,1-3.89,4.46L52,65.58Zm.46-4.66.38,2.52,1.79-.27a2.58,2.58,0,0,0,2.19-2.45l-2.47.33a1,1,0,0,1-1.09-.67l-.48-1.47h-.06Z"/><polygon class="cls-24" points="51.84 64.92 48.14 65.21 47.4 59.74 51.1 59.74 51.84 64.92"/><path class="cls-10" d="M31,71a1,1,0,0,1-1-.76A1,1,0,0,1,30.76,69l20-4.88-.47-3.3L33.5,63a6.9,6.9,0,0,1-3.7-.52l-2.68-1.17a1,1,0,0,1-.54-1.29,1,1,0,0,1,1.25-.58h0l2.75,1.19a4.88,4.88,0,0,0,2.64.38L51,58.75a1,1,0,0,1,1.12.85l.74,5.17a1,1,0,0,1-.76,1.12L31.24,71A1,1,0,0,1,31,71Z"/><path class="cls-10" d="M48.14,66.47a1,1,0,0,1-1-.86l-.74-5.17a1,1,0,1,1,2-.28l.74,5.17a1,1,0,0,1-.85,1.13Z"/><path class="cls-27" d="M26.67,57.69a2.13,2.13,0,0,0,.94,2.63c-.73,1.65-3.54,2.54-5.5,3.13-2-.59-5-1.39-5.5-3a2.21,2.21,0,0,0,.92-2.73Z"/><path class="cls-28" d="M26.67,57.69H17.53a2.59,2.59,0,0,1,0,1.86l.57.59a4.18,4.18,0,0,0,3,1.32h2a4.18,4.18,0,0,0,3-1.32l.57-.6A2.61,2.61,0,0,1,26.67,57.69Z"/><path class="cls-3" d="M22.11,64.45c-3,0-5.81-1.64-6.46-3.73a1,1,0,0,1,.43-1.15,1.43,1.43,0,0,0,.54-1.64,1,1,0,0,1,1.84-.79,3.32,3.32,0,0,1-.62,3.51,5.57,5.57,0,0,0,4.27,1.8,5.31,5.31,0,0,0,4.2-2A3.43,3.43,0,0,1,25.75,57a1,1,0,1,1,1.84.77,1.55,1.55,0,0,0,.55,1.72,1,1,0,0,1,.35,1.23A7.07,7.07,0,0,1,22.11,64.45Z"/><polygon class="cls-29" points="13 118 20 118 20 91 24 91 24 118 31 118 31 83.9 13 83.9 13 118"/><path class="cls-3" d="M31,119H24a1,1,0,0,1-1-1V92H21v26a1,1,0,0,1-1,1H13a1,1,0,0,1-1-1V83.9a1,1,0,0,1,1-1H31a1,1,0,0,1,1,1V118A1,1,0,0,1,31,119Zm-6-2h5V84.9H14V117h5V91a1,1,0,0,1,1-1h4a1,1,0,0,1,1,1Z"/><path class="cls-3" d="M13,89.7a1,1,0,0,1-.71-.29,1,1,0,0,1,0-1.42l4.83-4.8a1,1,0,0,1,1.42,1.42l-4.83,4.8A1,1,0,0,1,13,89.7Z"/><path class="cls-3" d="M30.92,89.4a1,1,0,0,1-.7-.3l-4.5-4.5a1,1,0,1,1,1.41-1.41l4.5,4.5a1,1,0,0,1,0,1.41A1,1,0,0,1,30.92,89.4Z"/><path class="cls-30" d="M15.7,113.91h.6a3.7,3.7,0,0,1,3.7,3.7V119a0,0,0,0,1,0,0H12.67a.67.67,0,0,1-.67-.67v-.72A3.7,3.7,0,0,1,15.7,113.91Z"/><path class="cls-3" d="M20,120H12.67A1.67,1.67,0,0,1,11,118.33v-.72a4.71,4.71,0,0,1,4.7-4.7h.6a4.71,4.71,0,0,1,4.7,4.7V119A1,1,0,0,1,20,120Zm-7-2h6v-.39a2.7,2.7,0,0,0-2.7-2.7h-.6a2.7,2.7,0,0,0-2.7,2.7Z"/><path class="cls-30" d="M27.7,113.91h.6a3.7,3.7,0,0,1,3.7,3.7v.72a.67.67,0,0,1-.67.67H24a0,0,0,0,1,0,0v-1.39a3.7,3.7,0,0,1,3.7-3.7Z"/><path class="cls-3" d="M31.33,120H24a1,1,0,0,1-1-1v-1.39a4.71,4.71,0,0,1,4.7-4.7h.6a4.71,4.71,0,0,1,4.7,4.7v.72A1.67,1.67,0,0,1,31.33,120ZM25,118h6v-.39a2.7,2.7,0,0,0-2.7-2.7h-.6a2.7,2.7,0,0,0-2.7,2.7Z"/><path class="cls-25" d="M23.1,59H20.9a4.32,4.32,0,0,1-3-1.24l-2.62-2.59a4.23,4.23,0,0,1-1.25-3V44.83c0-6.18,16-6.18,16,0v7.34a4.23,4.23,0,0,1-1.25,3l-2.62,2.59A4.32,4.32,0,0,1,23.1,59Z"/><path class="cls-28" d="M26.13,55a4.32,4.32,0,0,1-3,1.24H20.9a4.32,4.32,0,0,1-3-1.24l-2.62-2.59a4.21,4.21,0,0,1-1.25-3v2.8a4.23,4.23,0,0,0,1.25,3l2.62,2.59a4.32,4.32,0,0,0,3,1.24h2.2a4.32,4.32,0,0,0,3-1.24l2.62-2.59a4.23,4.23,0,0,0,1.25-3v-2.8a4.21,4.21,0,0,1-1.25,3Z"/><path class="cls-28" d="M29.9,47.69V44.51c0-5.75-15.84-5.75-15.84,0v2.91c.72-.83,1.88-1.48,2.27-2.65,4.5,2.09,9,.23,12,.77A2.36,2.36,0,0,1,29.9,47.69Z"/><path class="cls-3" d="M23.1,60H20.9a5.28,5.28,0,0,1-3.74-1.53l-2.61-2.59A5.29,5.29,0,0,1,13,52.17V44.83c0-3.87,4.67-5.63,9-5.63s9,1.76,9,5.63v7.34a5.29,5.29,0,0,1-1.55,3.71l-2.62,2.59A5.24,5.24,0,0,1,23.1,60ZM22,41.2c-3.48,0-7,1.25-7,3.63v7.34a3.18,3.18,0,0,0,1,2.29l2.61,2.59a3.31,3.31,0,0,0,2.33,1h2.2a3.31,3.31,0,0,0,2.33-1L28,54.46a3.18,3.18,0,0,0,1-2.29V44.83a3,3,0,0,0-2-2.58A11.39,11.39,0,0,0,22,41.2Z"/><path class="cls-30" d="M27.18,38c2.3,1.06,4.26,2.24,4.26,5.52a11.8,11.8,0,0,1-.25,2.28c-.15.71-1.18.39-1.18.39s0-1.91-1.4-2.45c-3.53-1.41-9.26,1.06-13.13-1.56A3.56,3.56,0,0,1,14.3,45s-1.36,0-1.44-.78c-.39-3.51,1.05-5.07,2.62-4.68C19.38,35.62,25.79,37.32,27.18,38Z"/><path class="cls-5" d="M15.48,41.45c3.9-3.9,10.31-2.2,11.7-1.56,2.07,1,4,1.56,4.26,4.15.3-3.71-1.83-5-4.26-6.08-1.39-.64-7.8-2.34-11.7,1.56-1.49-.37-2.89,1-2.67,4.18C13,41.6,14.25,41.14,15.48,41.45Z"/><path class="cls-3" d="M30.49,47.22a2.84,2.84,0,0,1-.78-.11,1,1,0,0,1-.7-.9,2.28,2.28,0,0,0-.9-1.64c-1-.57-2.68-.44-4.46-.31-2.3.17-4.9.36-7.37-.67a5.11,5.11,0,0,1-1.19,2,1.09,1.09,0,0,1-.79.38h0a2.21,2.21,0,0,1-2.44-1.67c-.26-2.35.22-4.18,1.34-5.16a2.7,2.7,0,0,1,1.94-.69c4.21-3.78,10.37-2.33,12.44-1.42s4.76,2.57,4.86,6.41A11.26,11.26,0,0,1,32.17,46a1.53,1.53,0,0,1-.72,1A1.8,1.8,0,0,1,30.49,47.22Zm-4.64-5.07a6.48,6.48,0,0,1,3.25.68,3.54,3.54,0,0,1,1.32,1.35,5.2,5.2,0,0,0,0-.67c-.07-2.55-1.51-3.7-3.66-4.64h0c-1.67-.73-7.2-2-10.6,1.35a1,1,0,0,1-.95.27.73.73,0,0,0-.72.17c-.44.39-.84,1.44-.68,3.24l.05,0a2.26,2.26,0,0,0,.53-1.1,1.69,1.69,0,0,1,.88-1.18,1.71,1.71,0,0,1,1.48,0c2.1,1,4.46.82,6.73.65C24.31,42.21,25.1,42.15,25.85,42.15Z"/><path class="cls-3" d="M22.19,52.79a1.84,1.84,0,0,1-1.14-.49A1,1,0,0,1,21,50.89a1,1,0,0,1,1.23-.21,1,1,0,0,1,1.19.23,1,1,0,0,1-.06,1.39A1.84,1.84,0,0,1,22.19,52.79Z"/><path class="cls-3" d="M22.11,56A3.54,3.54,0,0,1,20,55.47a1,1,0,0,1-.48-1.36,1,1,0,0,1,1.31-.47l.21.12a1.68,1.68,0,0,0,1.05.24,1.87,1.87,0,0,0,1.1-.23A1,1,0,1,1,24.5,55.3,3.59,3.59,0,0,1,22.11,56Z"/><path class="cls-3" d="M18.19,50a1.36,1.36,0,1,1,1.36-1.36A1.36,1.36,0,0,1,18.19,50Z"/><path class="cls-3" d="M26.07,50a1.36,1.36,0,1,1,1.36-1.36A1.36,1.36,0,0,1,26.07,50Z"/></svg>