<?xml version="1.0" ?><svg data-name="016" id="_016" viewBox="0 0 128 128" xmlns="http://www.w3.org/2000/svg"><defs><style>.cls-1,.cls-12,.cls-14,.cls-6,.cls-9{opacity:0.3;}.cls-2{fill:#94d5ff;}.cls-12,.cls-3{fill:#fff;}.cls-19,.cls-4{fill:#6d6daa;}.cls-5{fill:#eef6ff;}.cls-6{fill:#5cbeff;}.cls-7{fill:#ecf4ff;}.cls-8,.cls-9{fill:#5cbcff;}.cls-10{fill:#6d6da8;}.cls-11{fill:#c7bff3;}.cls-13{fill:#efdcd2;}.cls-14{fill:#cc7e54;}.cls-15{fill:#f9e2dc;}.cls-16{fill:#ffd599;}.cls-17{fill:#d6b5b0;}.cls-18{fill:#939fc6;}.cls-19{opacity:0.5;}.cls-20,.cls-21{fill:#89dbba;}.cls-21{opacity:0.6;}</style></defs><title/><g class="cls-1"><path class="cls-2" d="M1.1,61.64A30,30,0,0,0,18.28,91.27a19.57,19.57,0,0,1,9.1,8.81,37.1,37.1,0,0,0,7.05,9.55A36.43,36.43,0,0,0,82,112.53,37,37,0,0,0,92.74,99.35a20.84,20.84,0,0,1,13.5-10.91c15.27-4,26.31-21.08,17.8-41.41a16.74,16.74,0,0,0-5.05-6.2A20.58,20.58,0,0,1,111.71,28a28.45,28.45,0,0,0-14-20.22A27.87,27.87,0,0,0,73.37,6.24a19.68,19.68,0,0,1-16.68-.82,28.34,28.34,0,0,0-25-1A29,29,0,0,0,14.51,30.36,20.18,20.18,0,0,1,9,43.58,30,30,0,0,0,1.1,61.64Z"/><path class="cls-3" d="M98.5,32a1,1,0,0,1-.39-.07,1.14,1.14,0,0,1-.32-.22,1,1,0,0,1-.22-1.09,1.21,1.21,0,0,1,.22-.32l.15-.13.17-.09L98.3,30a1.28,1.28,0,0,1,.39,0,1.06,1.06,0,0,1,.19.06l.17.09a.64.64,0,0,1,.15.13.87.87,0,0,1,.22.32,1,1,0,0,1-.22,1.09,1,1,0,0,1-.32.22A1,1,0,0,1,98.5,32Z"/><path class="cls-3" d="M96.5,36h-6a1,1,0,0,1,0-2h6a1,1,0,0,1,0,2Z"/><path class="cls-3" d="M94.5,32h-7a1,1,0,0,1,0-2h7a1,1,0,0,1,0,2Z"/><path class="cls-3" d="M86.5,36h-2a1,1,0,0,1,0-2h2a1,1,0,0,1,0,2Z"/><path class="cls-3" d="M94.5,40h-8a1,1,0,0,1,0-2h8a1,1,0,0,1,0,2Z"/><path class="cls-3" d="M40.5,33a1,1,0,0,1-.71-.3,1,1,0,0,1-.21-1.08.93.93,0,0,1,.21-.33.61.61,0,0,1,.16-.12,1,1,0,0,1,.17-.1l.19-.05a1,1,0,0,1,.9.27.93.93,0,0,1,.21.33.84.84,0,0,1,.08.38,1,1,0,0,1-.07.38,1.21,1.21,0,0,1-.22.32A1,1,0,0,1,40.5,33Z"/><path class="cls-3" d="M41.5,29h-2a1,1,0,0,1,0-2h2a1,1,0,0,1,0,2Z"/><path class="cls-3" d="M44.5,25h-10a1,1,0,0,1,0-2h10a1,1,0,0,1,0,2Z"/><path class="cls-3" d="M35.5,29h-4a1,1,0,0,1,0-2h4a1,1,0,0,1,0,2Z"/><path class="cls-3" d="M36.5,33h-8a1,1,0,0,1,0-2h8a1,1,0,0,1,0,2Z"/><path class="cls-4" d="M105,126H24a1,1,0,1,1,0-2h81a1,1,0,0,1,0,2Z"/><path class="cls-4" d="M109,126h-1a1,1,0,1,1,0-2h1a1,1,0,0,1,0,2Z"/><path class="cls-4" d="M21,126H19a1,1,0,1,1,0-2h2a1,1,0,0,1,0,2Z"/><path class="cls-5" d="M11.2,16.91a6.84,6.84,0,0,1,0-.79A7.16,7.16,0,0,1,25,13.62a3.82,3.82,0,0,1,6.18,3c0,.11,0,.22,0,.33A5.69,5.69,0,0,1,29.28,28H13.06A5.7,5.7,0,0,1,11.2,16.91Z"/><path class="cls-3" d="M11.2,19.29a6.84,6.84,0,0,1,0-.79A7.16,7.16,0,0,1,25,16a3.82,3.82,0,0,1,6.18,3c0,.11,0,.21,0,.32a5.69,5.69,0,0,1,3.69,4.21A5.34,5.34,0,0,0,35,22.3a5.68,5.68,0,0,0-3.83-5.37c0-.11,0-.22,0-.33a3.82,3.82,0,0,0-6.18-3,7.16,7.16,0,0,0-13.85,2.5,6.84,6.84,0,0,0,0,.79A5.7,5.7,0,0,0,7.34,22.3a6,6,0,0,0,.13,1.21A5.72,5.72,0,0,1,11.2,19.29Z"/><path class="cls-6" d="M29.28,25.62H13.06a5.72,5.72,0,0,1-5.59-4.49A5.66,5.66,0,0,0,13.06,28H29.28a5.62,5.62,0,0,0,5.58-6.87A5.7,5.7,0,0,1,29.28,25.62Z"/><path class="cls-4" d="M29.28,29H13.06a6.69,6.69,0,0,1-2.91-12.74v-.14A8.16,8.16,0,0,1,25.44,12.2a4.82,4.82,0,0,1,6.73,4.06A6.69,6.69,0,0,1,29.28,29Zm-11-19a6.15,6.15,0,0,0-6.16,6.12c0,.24,0,.46,0,.69a1,1,0,0,1-.67,1.05A4.69,4.69,0,0,0,13.06,27H29.28a4.69,4.69,0,0,0,1.56-9.13,1,1,0,0,1-.67-1,1.93,1.93,0,0,0,0-.24,2.81,2.81,0,0,0-2.81-2.8,2.78,2.78,0,0,0-1.75.61A1,1,0,0,1,24.06,14,6.17,6.17,0,0,0,18.31,10Z"/><path class="cls-5" d="M13.06,16.6a5.84,5.84,0,0,0-1.88.31"/><path class="cls-4" d="M11.18,17.91a1,1,0,0,1-.94-.67A1,1,0,0,1,10.85,16a6.62,6.62,0,0,1,2.21-.37,1,1,0,0,1,0,2,4.76,4.76,0,0,0-1.55.26A1,1,0,0,1,11.18,17.91Z"/><path class="cls-5" d="M31.17,16.92a5.64,5.64,0,0,0-1.89-.32"/><path class="cls-4" d="M31.17,17.92a1,1,0,0,1-.33-.06,4.86,4.86,0,0,0-1.56-.26,1,1,0,0,1,0-2A6.94,6.94,0,0,1,31.5,16a1,1,0,0,1,.61,1.28A1,1,0,0,1,31.17,17.92Z"/><path class="cls-5" d="M25,13.6a3.86,3.86,0,0,0-1,1.24"/><path class="cls-4" d="M24,15.84a1.12,1.12,0,0,1-.47-.11,1,1,0,0,1-.42-1.35,4.85,4.85,0,0,1,1.31-1.57,1,1,0,0,1,1.23,1.58,2.92,2.92,0,0,0-.77.91A1,1,0,0,1,24,15.84Z"/><path class="cls-7" d="M87.24,15.93A7.5,7.5,0,0,1,87,14.08a7.33,7.33,0,0,1,7.33-7.33,7.25,7.25,0,0,1,3.8,1.07,9.62,9.62,0,0,1,17.24,4.81A6.87,6.87,0,0,1,113.13,26H87.46a5,5,0,0,1-.22-10.07Z"/><path class="cls-3" d="M87.24,18.68A7.5,7.5,0,0,1,87,16.83a6.51,6.51,0,0,1,.06-.88,5,5,0,0,0-4.44,6.42A5,5,0,0,1,87.24,18.68Z"/><path class="cls-3" d="M94.33,9.5a7.25,7.25,0,0,1,3.8,1.07,9.62,9.62,0,0,1,17.24,4.81,6.88,6.88,0,0,1,4.48,5.16,6.62,6.62,0,0,0,.15-1.41,6.87,6.87,0,0,0-4.63-6.5A9.62,9.62,0,0,0,98.13,7.82a7.25,7.25,0,0,0-3.8-1.07A7.33,7.33,0,0,0,87,14.08a7.22,7.22,0,0,0,.14,1.33A7.33,7.33,0,0,1,94.33,9.5Z"/><path class="cls-8" d="M87.24,13.18c0-.17-.07-.35-.1-.52,0,.18-.06.36-.08.54Z"/><path class="cls-9" d="M113.13,23.25H87.46a5,5,0,0,1-4.84-3.63,4.93,4.93,0,0,0-.2,1.34,5,5,0,0,0,5,5h25.67A6.88,6.88,0,0,0,120,19.13a6.65,6.65,0,0,0-.15-1.35A6.86,6.86,0,0,1,113.13,23.25Z"/><path class="cls-10" d="M113.12,27H87.46a6,6,0,0,1-1.4-11.92,8.33,8.33,0,0,1,8.27-9.33,8.22,8.22,0,0,1,3.55.8,10.61,10.61,0,0,1,18.4,5.37A7.87,7.87,0,0,1,113.12,27ZM94.33,7.75a6.31,6.31,0,0,0-6.12,7.93,1,1,0,0,1-.16.84,1,1,0,0,1-.76.41A4,4,0,0,0,87.46,25h25.66A5.87,5.87,0,0,0,115,13.58a1,1,0,0,1-.67-.85A8.61,8.61,0,0,0,98.93,8.42a1,1,0,0,1-1.32.25A6.35,6.35,0,0,0,94.33,7.75Z"/><path class="cls-10" d="M115,17.6a.81.81,0,0,1-.31-.05,1,1,0,0,1-.64-1.26,8.87,8.87,0,0,0,.42-2.67A8.64,8.64,0,0,0,105.79,5a1,1,0,0,1,0-2A10.63,10.63,0,0,1,115.9,16.91,1,1,0,0,1,115,17.6Z"/><path class="cls-10" d="M90.78,18.17a1,1,0,0,1-.66-.25,4,4,0,0,0-2.66-1,1,1,0,1,1,0-2,6.06,6.06,0,0,1,4,1.49,1,1,0,0,1,.09,1.41A1,1,0,0,1,90.78,18.17Z"/><path class="cls-10" d="M100.3,10.81a1,1,0,0,1-.82-.41,6.35,6.35,0,0,0-5.15-2.65,1,1,0,0,1,0-2,8.37,8.37,0,0,1,6.78,3.48,1,1,0,0,1-.23,1.4A1,1,0,0,1,100.3,10.81Z"/></g><path class="cls-11" d="M75.26,44.44S71.9,43.07,72,43.15C71,45.45,67.54,47.42,64,47.42s-7.25-2-8-4.27l-3.16,1.33A12.74,12.74,0,0,0,45,56.24V77a3,3,0,0,0,3,3H80a3,3,0,0,0,3-3V56.13A12.73,12.73,0,0,0,75.26,44.44Z"/><path class="cls-3" d="M45,75h7a0,0,0,0,1,0,0v5a0,0,0,0,1,0,0H48a3,3,0,0,1-3-3V75A0,0,0,0,1,45,75Z"/><path class="cls-3" d="M79,75h4a0,0,0,0,1,0,0v5a0,0,0,0,1,0,0H76a0,0,0,0,1,0,0V78A3,3,0,0,1,79,75Z" transform="translate(159 154.93) rotate(180)"/><path class="cls-12" d="M75.26,44.44s-3.31-1.37-3.2-1.29c-1.06,2.3-4.65,4.27-8.1,4.27s-7.25-2-8-4.27l-3.16,1.33A12.74,12.74,0,0,0,45,56.24v2.3A11.72,11.72,0,0,1,54.82,47.1c1,1.94,5.68,4.17,9.14,4.17S72,49,73,47.1C79.38,48.83,83,53.35,83,58.44V56.13A12.73,12.73,0,0,0,75.26,44.44Z"/><path class="cls-4" d="M76,86a1,1,0,0,1-1-1V55a1,1,0,0,1,2,0V85A1,1,0,0,1,76,86Z"/><path class="cls-4" d="M52,86a1,1,0,0,1-1-1V55a1,1,0,0,1,2,0V85A1,1,0,0,1,52,86Z"/><path class="cls-4" d="M80,81H76a1,1,0,0,1,0-2h4a2,2,0,0,0,2-2V56.13a11.7,11.7,0,0,0-7.09-10.77l-3.22-1.28a1,1,0,0,1-.56-1.3,1,1,0,0,1,1.3-.56l3.24,1.29A13.72,13.72,0,0,1,84,56.13V77A4,4,0,0,1,80,81Z"/><path class="cls-4" d="M52,81H48a4,4,0,0,1-4-4V56.24a13.7,13.7,0,0,1,8.44-12.68l3.1-1.33a1,1,0,1,1,.79,1.84L53.22,45.4A11.72,11.72,0,0,0,46,56.24V77a2,2,0,0,0,2,2h4a1,1,0,0,1,0,2Z"/><path class="cls-13" d="M70.69,39.38a3,3,0,0,0,1.37,3.77C71,45.45,66.88,46.6,64,47.42c-2.88-.82-7.32-2-8.06-4.27a3,3,0,0,0,1.35-3.77Z"/><path class="cls-14" d="M70.69,39.38H57.29a3.41,3.41,0,0,1,0,2.59l.83.84a6.25,6.25,0,0,0,4.42,1.83h2.88a6.25,6.25,0,0,0,4.42-1.83L70.7,42A3.45,3.45,0,0,1,70.69,39.38Z"/><path class="cls-4" d="M64,48.42c-4.16,0-8.11-2.18-9-5a1,1,0,0,1,.43-1.16,2,2,0,0,0,1-2.5A1,1,0,1,1,58.21,39a3.81,3.81,0,0,1-1,4.48c1,1.51,3.72,3,6.81,3a8.5,8.5,0,0,0,6.77-3,3.79,3.79,0,0,1-1-4.4,1,1,0,1,1,1.83.8,2.1,2.1,0,0,0,1,2.53A1,1,0,0,1,73,43.57C71.67,46.38,67.9,48.42,64,48.42Z"/><path class="cls-15" d="M47,80h5a0,0,0,0,1,0,0v7a0,0,0,0,1,0,0h-.66A4.34,4.34,0,0,1,47,82.62V80A0,0,0,0,1,47,80Z"/><path class="cls-4" d="M52,88h-.66A5.35,5.35,0,0,1,46,82.62V80a1,1,0,0,1,1-1h5a1,1,0,0,1,1,1v7A1,1,0,0,1,52,88Zm-4-7v1.65A3.35,3.35,0,0,0,51,86V81Z"/><path class="cls-15" d="M80.34,80H81a0,0,0,0,1,0,0v7a0,0,0,0,1,0,0H76a0,0,0,0,1,0,0V84.31A4.34,4.34,0,0,1,80.34,80Z" transform="translate(157 166.93) rotate(180)"/><path class="cls-4" d="M76.66,88H76a1,1,0,0,1-1-1V80a1,1,0,0,1,1-1h5a1,1,0,0,1,1,1v2.65A5.35,5.35,0,0,1,76.66,88ZM77,81v5a3.35,3.35,0,0,0,3-3.33V81Z"/><polygon class="cls-16" points="61 124 61 85 67 85 67 124 76 124 76 76 52 76 52 124 61 124"/><path class="cls-4" d="M76,125H67a1,1,0,0,1-1-1V86H62v38a1,1,0,0,1-1,1H52a1,1,0,0,1-1-1V76a1,1,0,0,1,1-1H76a1,1,0,0,1,1,1v48A1,1,0,0,1,76,125Zm-8-2h7V77H53v46h7V85a1,1,0,0,1,1-1h6a1,1,0,0,1,1,1Z"/><path class="cls-4" d="M52,83.19a1,1,0,0,1-.71-1.71l6.19-6.19a1,1,0,0,1,1.41,0,1,1,0,0,1,0,1.42l-6.18,6.18A1,1,0,0,1,52,83.19Z"/><path class="cls-4" d="M76,82.75a1,1,0,0,1-.71-.29l-5.75-5.75A1,1,0,0,1,71,75.29L76.71,81a1,1,0,0,1,0,1.42A1,1,0,0,1,76,82.75Z"/><path class="cls-4" d="M52,76H45a1,1,0,0,1,0-2h7a1,1,0,0,1,0,2Z"/><path class="cls-4" d="M83,76H76a1,1,0,0,1,0-2h7a1,1,0,0,1,0,2Z"/><path class="cls-4" d="M64,55a1,1,0,0,1-1-1V47.42a1,1,0,0,1,2,0V54A1,1,0,0,1,64,55Z"/><path class="cls-17" d="M55.5,118h0a5.5,5.5,0,0,1,5.5,5.5V125a0,0,0,0,1,0,0H51a1,1,0,0,1-1-1v-.5a5.5,5.5,0,0,1,5.5-5.5Z"/><path class="cls-4" d="M61,126H51a2,2,0,0,1-2-2v-.5a6.5,6.5,0,0,1,13,0V125A1,1,0,0,1,61,126Zm-5.5-7a4.51,4.51,0,0,0-4.5,4.5v.5h9v-.5A4.51,4.51,0,0,0,55.5,119Z"/><path class="cls-17" d="M72.5,118h0a5.5,5.5,0,0,1,5.5,5.5v.5a1,1,0,0,1-1,1H67a0,0,0,0,1,0,0v-1.5A5.5,5.5,0,0,1,72.5,118Z"/><path class="cls-4" d="M77,126H67a1,1,0,0,1-1-1v-1.5a6.5,6.5,0,0,1,13,0v.5A2,2,0,0,1,77,126Zm-9-2h9v-.5a4.5,4.5,0,0,0-9,0Z"/><path class="cls-15" d="M65.37,42H62.62a6,6,0,0,1-4.22-1.74l-3.65-3.61A5.9,5.9,0,0,1,53,32.44v-11c0-8.62,22-8.62,22,0v11a5.9,5.9,0,0,1-1.75,4.18L69.6,40.23A6,6,0,0,1,65.37,42Z"/><path class="cls-14" d="M69.6,37.23A6,6,0,0,1,65.37,39H62.62a6,6,0,0,1-4.22-1.74l-3.65-3.61A5.9,5.9,0,0,1,53,29.44v3a5.9,5.9,0,0,0,1.75,4.18l3.65,3.61A6,6,0,0,0,62.62,42h2.75a6,6,0,0,0,4.23-1.74l3.65-3.61A5.9,5.9,0,0,0,75,32.44v-3a5.9,5.9,0,0,1-1.75,4.18Z"/><path class="cls-14" d="M74.86,25.42V21c0-8-21.78-8-21.78,0v4.06c1-1.17,2.62-2.07,3.17-3.71,6.28,2.93,12.29.33,16.37,1.08C74.12,22.7,74.82,24.51,74.86,25.42Z"/><path class="cls-4" d="M65.37,43H62.62a7,7,0,0,1-4.93-2L54,37.33a6.85,6.85,0,0,1-2-4.89v-11C52,16.3,58.22,14,64,14s12,2.33,12,7.46v11a6.86,6.86,0,0,1-2,4.89L70.3,40.94A7,7,0,0,1,65.37,43ZM64,16c-5,0-10,1.87-10,5.46v11a4.84,4.84,0,0,0,1.45,3.47l3.65,3.61A5,5,0,0,0,62.62,41h2.75a5.06,5.06,0,0,0,3.53-1.45l3.64-3.61A4.85,4.85,0,0,0,74,32.44v-11C74,17.84,69,16,64,16Z"/><path class="cls-17" d="M71.05,12.26C74.26,13.74,77,15.39,77,20a16.28,16.28,0,0,1-.35,3.18c-.21,1-1.65.54-1.65.54s-.06-2.66-2-3.42c-4.92-2-12.92,1.49-18.33-2.18a5,5,0,0,1-1.63,4s-1.9,0-2-1.09c-.55-4.9,1.47-7.08,3.65-6.54C60.16,9,69.12,11.36,71.05,12.26Z"/><path class="cls-12" d="M54.71,17.13c5.45-5.45,14.41-3.07,16.34-2.18,2.89,1.34,5.61,2.19,6,5.79.41-5.17-2.56-6.92-6-8.48-1.93-.9-10.89-3.27-16.34,2.17-2.07-.51-4,1.44-3.71,5.84C51.25,17.34,53,16.7,54.71,17.13Z"/><path class="cls-4" d="M75.68,24.79a3.86,3.86,0,0,1-1-.14,1,1,0,0,1-.7-.89,3.58,3.58,0,0,0-1.46-2.62c-1.48-.85-3.78-.68-6.44-.48-3.34.25-7.07.52-10.54-1.09a6.47,6.47,0,0,1-1.68,3.1,1.16,1.16,0,0,1-.8.39h0c-1.38,0-2.85-.62-3-2-.35-3.14.27-5.58,1.73-6.86a3.42,3.42,0,0,1,2.59-.85c5.73-5.28,14.22-3.28,17.07-2s6.41,3.46,6.55,8.6a15.43,15.43,0,0,1-.38,3.41,1.72,1.72,0,0,1-.81,1.16A2.15,2.15,0,0,1,75.68,24.79ZM69.19,18.5a8.73,8.73,0,0,1,4.35.9,5.08,5.08,0,0,1,2.23,3A12.22,12.22,0,0,0,76,20c-.11-4-2.64-5.63-5.35-6.82h0c-2.39-1.05-10.32-2.94-15.23,2a1,1,0,0,1-1,.26,1.44,1.44,0,0,0-1.36.33c-.93.81-1.32,2.73-1.06,5.13a2.43,2.43,0,0,0,.59.16A4.1,4.1,0,0,0,53.71,18a1,1,0,0,1,.52-.88,1,1,0,0,1,1,0c3.28,2.09,7.22,1.8,10.7,1.55C67.07,18.58,68.16,18.5,69.19,18.5Z"/><path class="cls-4" d="M64.07,32.81a2.12,2.12,0,0,1-1.32-.59,1,1,0,0,1,1.32-1.5,1,1,0,0,1,1.41.1,1,1,0,0,1-.08,1.4A2.17,2.17,0,0,1,64.07,32.81Z"/><path class="cls-4" d="M64,36.61a4.64,4.64,0,0,1-2.71-.68l-.12-.07A1,1,0,0,1,62,34.07l.27.15a2.65,2.65,0,0,0,1.67.39,3.09,3.09,0,0,0,1.79-.41A1,1,0,1,1,67,35.73,4.66,4.66,0,0,1,64,36.61Z"/><path class="cls-4" d="M71.58,26.87a1,1,0,0,1-.45-.1,6.49,6.49,0,0,0-2.6,0c-.62.06-1.26.12-1.85.12a1,1,0,0,1,0-2c.49,0,1.06-.06,1.65-.12A7.1,7.1,0,0,1,72,25a1,1,0,0,1,.44,1.34A1,1,0,0,1,71.58,26.87Z"/><path class="cls-4" d="M58.48,30a1.5,1.5,0,1,1,1.5-1.5A1.51,1.51,0,0,1,58.48,30Zm0-2a.5.5,0,0,0-.5.5.51.51,0,0,0,.5.5.5.5,0,0,0,.5-.5A.5.5,0,0,0,58.48,28Z"/><path class="cls-4" d="M61.23,27a14.92,14.92,0,0,1-2.1-.2,5.87,5.87,0,0,0-2.35-.05,1,1,0,0,1-.9-1.79,6.16,6.16,0,0,1,3.52-.14,13.47,13.47,0,0,0,1.83.18,1,1,0,0,1,0,2Z"/><path class="cls-4" d="M69.48,30a1.5,1.5,0,1,1,1.5-1.5A1.51,1.51,0,0,1,69.48,30Zm0-2a.5.5,0,0,0-.5.5.51.51,0,0,0,.5.5.5.5,0,0,0,.5-.5A.5.5,0,0,0,69.48,28Z"/><circle class="cls-4" cx="58.48" cy="28.47" r="1"/><circle class="cls-4" cx="69.48" cy="28.47" r="1"/><path class="cls-18" d="M67,10.22a20.8,20.8,0,0,0-6,0V19h6Z"/><rect class="cls-18" height="13" rx="3" width="28" x="50" y="18.97"/><path class="cls-4" d="M75,33H53a4,4,0,0,1-4-4V22a4,4,0,0,1,4-4H75a4,4,0,0,1,4,4v7A4,4,0,0,1,75,33ZM53,20a2,2,0,0,0-2,2v7a2,2,0,0,0,2,2H75a2,2,0,0,0,2-2V22a2,2,0,0,0-2-2Z"/><path class="cls-19" d="M66.5,33h-5a1,1,0,0,1-.81-.42,1,1,0,0,1-.14-.9l.77-2.32A2,2,0,0,1,63.22,28h1.56a2,2,0,0,1,1.9,1.36l.77,2.32a1,1,0,0,1-.14.9A1,1,0,0,1,66.5,33Zm-3.61-2h2.22l-.33-1H63.22Zm.33-1Zm-.95-.32h0Z"/><path class="cls-4" d="M67,23h0a1,1,0,1,1,1-1A1,1,0,0,1,67,23Z"/><path class="cls-4" d="M53,28a1,1,0,0,1-1-1V24a1,1,0,0,1,2,0v3A1,1,0,0,1,53,28Z"/><path class="cls-4" d="M75,28a1,1,0,0,1-1-1V24a1,1,0,0,1,2,0v3A1,1,0,0,1,75,28Z"/><path class="cls-4" d="M67,20H61a1,1,0,0,1-1-1V10.21a1,1,0,0,1,.85-1,22.16,22.16,0,0,1,6.3,0,1,1,0,0,1,.85,1V19A1,1,0,0,1,67,20Zm-5-2h4V11.1a20.56,20.56,0,0,0-4,0Z"/><path class="cls-4" d="M64,23h0a1,1,0,1,1,1-1A1,1,0,0,1,64,23Z"/><path class="cls-4" d="M61,23h0a1,1,0,1,1,1-1A1,1,0,0,1,61,23Z"/><path class="cls-20" d="M119,43.87V91c0-2.46-10-4.62-25-5.87V38C109.05,39.25,119,41.41,119,43.87Z"/><path class="cls-20" d="M34,38V85.13C19,86.38,9,88.54,9,91V43.87C9,41.41,19,39.25,34,38Z"/><path class="cls-4" d="M34,86.13a1,1,0,0,1-1-1V49.74a1,1,0,0,1,2,0V85.13A1,1,0,0,1,34,86.13Z"/><path class="cls-4" d="M94,86.13a1,1,0,0,1-1-1V49.74a1,1,0,0,1,2,0V85.13A1,1,0,0,1,94,86.13Z"/><path class="cls-4" d="M119,92a1,1,0,0,1-1-1c-.22-.81-5-3.29-24.08-4.87A1,1,0,0,1,93,85.05a1,1,0,0,1,1.08-.91C120,86.29,120,89.83,120,91A1,1,0,0,1,119,92Z"/><path class="cls-4" d="M9,92a1,1,0,0,1-1-1c0-1.17,0-4.71,25.92-6.86a1,1,0,0,1,1.08.91,1,1,0,0,1-.92,1.08C15,87.71,10.22,90.19,10,91A1,1,0,0,1,9,92Z"/><path class="cls-21" d="M119,43.87V91c0,3.87-24.62,7-55,7S9,94.87,9,91V43.87c0,3.87,24.62,7,55,7S119,47.74,119,43.87Z"/><path class="cls-4" d="M64,51.87c-19.37,0-56-1.67-56-8C8,42.7,8,39.16,33.92,37a1,1,0,0,1,1.08.91A1,1,0,0,1,34.08,39C15,40.58,10.22,43.06,10,43.89c.57,2.12,19.11,6,54,6s53.43-3.86,54-6c-.22-.79-5-3.27-24.08-4.85A1,1,0,0,1,93,37.92,1,1,0,0,1,94.08,37C120,39.16,120,42.7,120,43.87,120,50.2,83.37,51.87,64,51.87Z"/><path class="cls-4" d="M64,99C44.63,99,8,97.33,8,91a1,1,0,0,1,2,0c.57,2.14,19.11,6,54,6s53.43-3.86,54-6a1,1,0,0,1,1-1,1,1,0,0,1,1,1C120,97.33,83.37,99,64,99Z"/><path class="cls-4" d="M9,92a1,1,0,0,1-1-1V43.87a1,1,0,0,1,2,0V91A1,1,0,0,1,9,92Z"/><path class="cls-4" d="M34,50.74a1,1,0,0,1-1-1V38a1,1,0,0,1,2,0V49.74A1,1,0,0,1,34,50.74Z"/><path class="cls-4" d="M94,50.74a1,1,0,0,1-1-1V38a1,1,0,0,1,2,0V49.74A1,1,0,0,1,94,50.74Z"/><path class="cls-4" d="M119,92a1,1,0,0,1-1-1V43.87a1,1,0,0,1,2,0V91A1,1,0,0,1,119,92Z"/><path class="cls-3" d="M19,61a1,1,0,0,1-1-1V57a1,1,0,0,1,1-1h3a1,1,0,0,1,0,2H20v2A1,1,0,0,1,19,61Z"/><path class="cls-3" d="M111,61a1,1,0,0,1-1-1V58h-2a1,1,0,0,1,0-2h3a1,1,0,0,1,1,1v3A1,1,0,0,1,111,61Z"/><path class="cls-3" d="M51,61a1,1,0,0,1-1-1V59a1,1,0,0,1,2,0v1A1,1,0,0,1,51,61Z"/><path class="cls-3" d="M51,74a1,1,0,0,1-1-1V72a1,1,0,0,1,2,0v1A1,1,0,0,1,51,74Z"/><path class="cls-3" d="M51,87a1,1,0,0,1-1-1V85a1,1,0,0,1,2,0v1A1,1,0,0,1,51,87Z"/><path class="cls-3" d="M111,89h-3a1,1,0,0,1,0-2h2V85a1,1,0,0,1,2,0v3A1,1,0,0,1,111,89Z"/><path class="cls-3" d="M22,89H19a1,1,0,0,1-1-1V85a1,1,0,0,1,2,0v2h2a1,1,0,0,1,0,2Z"/><path class="cls-3" d="M32,71H27a1,1,0,0,1-1-1V65a1,1,0,0,1,1-1h5a1,1,0,0,1,1,1v5A1,1,0,0,1,32,71Zm-4-2h3V66H28Z"/><path class="cls-3" d="M42,71H37a1,1,0,0,1-1-1V65a1,1,0,0,1,1-1h5a1,1,0,0,1,1,1v5A1,1,0,0,1,42,71Zm-4-2h3V66H38Z"/><path class="cls-3" d="M32,81H27a1,1,0,0,1-1-1V75a1,1,0,0,1,1-1h5a1,1,0,0,1,1,1v5A1,1,0,0,1,32,81Zm-4-2h3V76H28Z"/><path class="cls-3" d="M42,81H37a1,1,0,0,1-1-1V75a1,1,0,0,1,1-1h5a1,1,0,0,1,1,1v5A1,1,0,0,1,42,81Zm-4-2h3V76H38Z"/><path class="cls-3" d="M66,83H59a1,1,0,0,1-1-1V75a1,1,0,0,1,1-1h7a1,1,0,0,1,1,1v7A1,1,0,0,1,66,83Zm-6-2h5V76H60Z"/><path class="cls-3" d="M78,83H71a1,1,0,0,1-1-1V75a1,1,0,0,1,1-1h7a1,1,0,0,1,1,1v7A1,1,0,0,1,78,83Zm-6-2h5V76H72Z"/><path class="cls-3" d="M66,71H59a1,1,0,0,1-1-1V63a1,1,0,0,1,1-1h7a1,1,0,0,1,1,1v7A1,1,0,0,1,66,71Zm-6-2h5V64H60Z"/><path class="cls-3" d="M78,71H71a1,1,0,0,1-1-1V63a1,1,0,0,1,1-1h7a1,1,0,0,1,1,1v7A1,1,0,0,1,78,71Zm-6-2h5V64H72Z"/><path class="cls-3" d="M91,65H84a1,1,0,0,1,0-2h7a1,1,0,0,1,0,2Z"/><path class="cls-3" d="M101,69H84a1,1,0,0,1,0-2h17a1,1,0,0,1,0,2Z"/><path class="cls-3" d="M91,77H84a1,1,0,0,1,0-2h7a1,1,0,0,1,0,2Z"/><path class="cls-3" d="M101,81H84a1,1,0,0,1,0-2h17a1,1,0,0,1,0,2Z"/></svg>